# unit_cube.obj
# Unit cube centered at origin, size 1x1x1
 
o UnitCube
 
v  0.5 -0.5 -0.5
v  0.5 -0.5  0.5
v -0.5 -0.5  0.5
v -0.5 -0.5 -0.5
v  0.5  0.5 -0.5
v  0.5  0.5  0.5
v -0.5  0.5  0.5
v -0.5  0.5 -0.5
 
# Normals (optional, for completeness)
vn  0.0 -1.0  0.0
vn  0.0  1.0  0.0
vn  1.0  0.0  0.0
vn  0.0  0.0  1.0
vn -1.0  0.0  0.0
vn  0.0  0.0 -1.0
 
# Faces (triangles)
f  1  2  3
f  1  3  4
f  5  8  7
f  5  7  6
f  1  5  6
f  1  6  2
f  2  6  7
f  2  7  3
f  3  7  8
f  3  8  4
f  5  1  4
f  5  4  8
