{
	"asset": {
		"generator": "grass-blade-gen",
		"version": "2.0"
	},
	"scene": 0,
	"scenes": [
		{
			"name": "Scene",
			"nodes": [
				0
			]
		}
	],
	"nodes": [
		{
			"mesh": 0,
			"name": "GrassBlade"
		}
	],
	"meshes": [
		{
			"name": "GrassBlade",
			"primitives": [
				{
					"attributes": {
						"POSITION": 1,
						"NORMAL": 2,
						"TEXCOORD_0": 3,
						"TANGENT": 4
					},
					"indices": 0,
					"mode": 4
				}
			]
		}
	],
	"accessors": [
		{
			"bufferView": 0,
			"byteOffset": 0,
			"componentType": 5123,
			"count": 12,
			"type": "SCALAR"
		},
		{
			"bufferView": 1,
			"byteOffset": 0,
			"componentType": 5126,
			"count": 8,
			"type": "VEC3",
			"min": [
				-0.5,
				0,
				-0.5
			],
			"max": [
				0.5,
				1,
				0.5
			]
		},
		{
			"bufferView": 2,
			"byteOffset": 0,
			"componentType": 5126,
			"count": 8,
			"type": "VEC3"
		},
		{
			"bufferView": 3,
			"byteOffset": 0,
			"componentType": 5126,
			"count": 8,
			"type": "VEC2"
		},
		{
			"bufferView": 4,
			"byteOffset": 0,
			"componentType": 5126,
			"count": 8,
			"type": "VEC4"
		}
	],
	"bufferViews": [
		{
			"buffer": 0,
			"byteOffset": 0,
			"byteLength": 24,
			"target": 34963
		},
		{
			"buffer": 0,
			"byteOffset": 24,
			"byteLength": 96,
			"target": 34962
		},
		{
			"buffer": 0,
			"byteOffset": 120,
			"byteLength": 96,
			"target": 34962
		},
		{
			"buffer": 0,
			"byteOffset": 216,
			"byteLength": 64,
			"target": 34962
		},
		{
			"buffer": 0,
			"byteOffset": 280,
			"byteLength": 128,
			"target": 34962
		}
	],
	"buffers": [
		{
			"byteLength": 408,
			"uri": "data:application/octet-stream;base64,"
		}
	]
}