{
	"asset":{
		"generator":"Khronos glTF Blender I/O v5.0.21",
		"version":"2.0"
	},
	"extensionsUsed":[
		"KHR_materials_specular"
	],
	"scene":0,
	"scenes":[
		{
			"name":"Scene",
			"nodes":[
				67
			]
		}
	],
	"nodes":[
		{
			"name":"mixamorig:HeadTop_End",
			"rotation":[
				-4.0978196835794733e-08,
				8.881784197001252e-16,
				-1.3433699444997341e-14,
				1
			],
			"scale":[
				1,
				0.9999999403953552,
				0.9999999403953552
			],
			"translation":[
				9.856964879872976e-07,
				20.962778091430664,
				10.122934341430664
			]
		},
		{
			"children":[
				0
			],
			"name":"mixamorig:Head",
			"rotation":[
				-2.6077035641947077e-08,
				-4.2188479170920685e-15,
				-2.664535428506965e-14,
				1
			],
			"scale":[
				1,
				0.9999999403953552,
				0.9999999403953552
			],
			"translation":[
				-1.0756813395573772e-07,
				9.341904640197754,
				2.8410394191741943
			]
		},
		{
			"children":[
				1
			],
			"name":"mixamorig:Neck",
			"rotation":[
				5.401671643312511e-08,
				2.6645352591003757e-15,
				5.4511953897226975e-14,
				1
			],
			"scale":[
				1,
				0.9999999403953552,
				0.9999999403953552
			],
			"translation":[
				4.1526959648763295e-10,
				16.865333557128906,
				4.156675004196586e-13
			]
		},
		{
			"name":"mixamorig:RightHandThumb4",
			"rotation":[
				0.005774892400950193,
				-0.11750973016023636,
				-0.048744086176157,
				0.9918579459190369
			],
			"scale":[
				1,
				1.0000001192092896,
				1
			],
			"translation":[
				-5.036592483520508e-06,
				2.574983835220337,
				5.800335429739789e-07
			]
		},
		{
			"children":[
				3
			],
			"name":"mixamorig:RightHandThumb3",
			"rotation":[
				-0.0016637971857562661,
				-0.0008070381009019911,
				0.00692043686285615,
				0.9999743103981018
			],
			"scale":[
				1.0000001192092896,
				1.0000001192092896,
				0.9999998807907104
			],
			"translation":[
				2.980232238769531e-07,
				3.4162638187408447,
				1.516543488833122e-05
			]
		},
		{
			"children":[
				4
			],
			"name":"mixamorig:RightHandThumb2",
			"rotation":[
				-0.002315897960215807,
				-0.00117102125659585,
				0.00929975975304842,
				0.9999533891677856
			],
			"scale":[
				1,
				0.9999998807907104,
				0.9999999403953552
			],
			"translation":[
				-2.384185791015625e-07,
				4.188979148864746,
				-6.856594154669438e-07
			]
		},
		{
			"children":[
				5
			],
			"name":"mixamorig:RightHandThumb1",
			"rotation":[
				0.2532840669155121,
				0.06161852926015854,
				-0.22821009159088135,
				0.9380674362182617
			],
			"scale":[
				1,
				1.0000001192092896,
				1
			],
			"translation":[
				2.6818511486053467,
				2.4648022651672363,
				1.5739895105361938
			]
		},
		{
			"name":"mixamorig:RightHandIndex4",
			"rotation":[
				-8.731538514439308e-08,
				0.0010028444230556488,
				8.707880624569952e-05,
				0.9999995231628418
			],
			"scale":[
				0.9999999403953552,
				1,
				1
			],
			"translation":[
				2.2922176867723465e-07,
				2.772183895111084,
				1.5431007341248915e-05
			]
		},
		{
			"children":[
				7
			],
			"name":"mixamorig:RightHandIndex3",
			"rotation":[
				-1.4075303422789176e-12,
				-1.1162911306428214e-07,
				-8.790926949586719e-05,
				1
			],
			"translation":[
				-2.253764250781387e-07,
				2.850001811981201,
				1.4698543054691982e-05
			]
		},
		{
			"children":[
				8
			],
			"name":"mixamorig:RightHandIndex2",
			"rotation":[
				-8.776745823169119e-12,
				3.744806775785037e-08,
				0.0002556447288952768,
				1
			],
			"scale":[
				1,
				1.0000001192092896,
				1
			],
			"translation":[
				-1.6975354810710996e-07,
				3.6999902725219727,
				-3.150079805891437e-07
			]
		},
		{
			"children":[
				9
			],
			"name":"mixamorig:RightHandIndex1",
			"rotation":[
				-1.345906242358752e-12,
				-8.208349555616223e-09,
				-0.00016412234981544316,
				1
			],
			"scale":[
				0.9999999403953552,
				0.9999999403953552,
				1
			],
			"translation":[
				2.2598321437835693,
				9.108281135559082,
				0.5178676843643188
			]
		},
		{
			"name":"mixamorig:RightHandMiddle4",
			"rotation":[
				-1.545135148717236e-07,
				0.0009288184810429811,
				0.0001663558796280995,
				0.9999995827674866
			],
			"translation":[
				-1.0216717782896012e-07,
				2.946639060974121,
				-1.5645053281332366e-05
			]
		},
		{
			"children":[
				11
			],
			"name":"mixamorig:RightHandMiddle3",
			"rotation":[
				2.088396990063135e-11,
				-7.023493253655033e-08,
				-0.00032187573378905654,
				1
			],
			"scale":[
				1,
				0.9999998211860657,
				1.0000001192092896
			],
			"translation":[
				6.176142051117495e-07,
				2.949988603591919,
				-1.6415948266512714e-05
			]
		},
		{
			"children":[
				12
			],
			"name":"mixamorig:RightHandMiddle2",
			"rotation":[
				-8.071188162261933e-11,
				3.946541937693837e-08,
				0.0008498824900016189,
				0.9999996423721313
			],
			"translation":[
				4.559115041047335e-08,
				3.700000047683716,
				-1.599076495040208e-05
			]
		},
		{
			"children":[
				13
			],
			"name":"mixamorig:RightHandMiddle1",
			"rotation":[
				2.2904497742892715e-11,
				9.396218025869985e-09,
				-0.0005016233189962804,
				0.9999998807907104
			],
			"translation":[
				-2.688818312890362e-05,
				9.53249740600586,
				4.515284672379494e-05
			]
		},
		{
			"name":"mixamorig:RightHandRing4",
			"rotation":[
				1.1675690103629677e-07,
				0.00014620384899899364,
				-0.0007992450846359134,
				0.9999997019767761
			],
			"translation":[
				-3.0992941901786253e-07,
				2.6388235092163086,
				-1.4925322830094956e-05
			]
		},
		{
			"children":[
				15
			],
			"name":"mixamorig:RightHandRing3",
			"rotation":[
				-4.7530651289817705e-12,
				-7.784896638440841e-08,
				-0.00011284986976534128,
				1
			],
			"scale":[
				1,
				1.0000001192092896,
				1.0000001192092896
			],
			"translation":[
				2.4331529857590795e-07,
				2.8896877765655518,
				-1.6083904483821243e-05
			]
		},
		{
			"children":[
				16
			],
			"name":"mixamorig:RightHandRing2",
			"rotation":[
				-5.555705635124086e-12,
				3.4844717333726294e-08,
				-0.00022151690791361034,
				1
			],
			"scale":[
				0.9999999403953552,
				1.000000238418579,
				1
			],
			"translation":[
				3.5659650166053325e-07,
				3.379270315170288,
				-3.098783736277255e-07
			]
		},
		{
			"children":[
				17
			],
			"name":"mixamorig:RightHandRing1",
			"rotation":[
				5.526184111009913e-12,
				-3.5416611865457526e-08,
				0.00015601085033267736,
				1
			],
			"scale":[
				0.9999999403953552,
				0.9999999403953552,
				1
			],
			"translation":[
				-1.8651362657546997,
				9.103588104248047,
				0.043074727058410645
			]
		},
		{
			"name":"mixamorig:RightHandPinky4",
			"rotation":[
				6.473675284723868e-08,
				0.0015693933237344027,
				-4.124285260331817e-05,
				0.9999987483024597
			],
			"scale":[
				0.9999998807907104,
				0.9999999403953552,
				1
			],
			"translation":[
				-6.48953573545441e-07,
				2.1157782077789307,
				8.987757610157132e-06
			]
		},
		{
			"children":[
				19
			],
			"name":"mixamorig:RightHandPinky3",
			"rotation":[
				-2.7006397118611858e-08,
				3.022933370289138e-08,
				-0.0004967707791365683,
				0.9999998807907104
			],
			"scale":[
				1,
				1.0000001192092896,
				1.0000001192092896
			],
			"translation":[
				6.697300705127418e-07,
				2.099989891052246,
				-1.0314239261788316e-05
			]
		},
		{
			"children":[
				20
			],
			"name":"mixamorig:RightHandPinky2",
			"rotation":[
				-6.055846597519121e-07,
				8.953162478064769e-08,
				0.0008462776313535869,
				0.9999996423721313
			],
			"scale":[
				1,
				0.9999999403953552,
				1
			],
			"translation":[
				4.168291525274981e-07,
				3.599989891052246,
				-2.414876007605926e-06
			]
		},
		{
			"children":[
				21
			],
			"name":"mixamorig:RightHandPinky1",
			"rotation":[
				4.238556812197203e-06,
				-2.4566695344674372e-08,
				0.0005205131019465625,
				0.9999998807907104
			],
			"scale":[
				0.9999999403953552,
				1,
				1
			],
			"translation":[
				-3.806281089782715,
				8.076671600341797,
				0.48670855164527893
			]
		},
		{
			"children":[
				6,
				10,
				14,
				18,
				22
			],
			"name":"mixamorig:RightHand",
			"rotation":[
				-5.685962768328667e-17,
				-1.1197464289125492e-08,
				-1.119746695366075e-08,
				1
			],
			"translation":[
				1.4402235137822572e-05,
				28.328838348388672,
				-7.477766530428198e-07
			]
		},
		{
			"children":[
				23
			],
			"name":"mixamorig:RightForeArm",
			"rotation":[
				-1.8626447051417472e-09,
				1.5350107851475059e-09,
				-6.662003393387295e-09,
				1
			],
			"translation":[
				-8.832064850139432e-06,
				27.841516494750977,
				-8.909482858143747e-07
			]
		},
		{
			"children":[
				24
			],
			"name":"mixamorig:RightArm",
			"rotation":[
				-0.024616172537207603,
				0.002562346402555704,
				-0.10349855571985245,
				0.9943217039108276
			],
			"scale":[
				0.9999999403953552,
				1,
				0.9999998807907104
			],
			"translation":[
				-3.5762786865234375e-07,
				10.838176727294922,
				-1.5143054042709991e-05
			]
		},
		{
			"children":[
				25
			],
			"name":"mixamorig:RightShoulder",
			"rotation":[
				0.4844306409358978,
				-0.5709636807441711,
				0.526163637638092,
				0.40308716893196106
			],
			"scale":[
				0.9999998211860657,
				0.9999999403953552,
				0.9999998807907104
			],
			"translation":[
				-4.56997013092041,
				11.195846557617188,
				-0.8066323399543762
			]
		},
		{
			"name":"mixamorig:LeftHandThumb4",
			"rotation":[
				0.005154432728886604,
				0.1226826012134552,
				0.041651394218206406,
				0.9915581345558167
			],
			"scale":[
				0.9999999403953552,
				1,
				0.9999998807907104
			],
			"translation":[
				1.1026859283447266e-06,
				2.580589532852173,
				2.1761716197943315e-05
			]
		},
		{
			"children":[
				27
			],
			"name":"mixamorig:LeftHandThumb3",
			"rotation":[
				-0.0015333942137658596,
				0.0007450056145898998,
				-0.006072760093957186,
				0.999980092048645
			],
			"scale":[
				0.9999998807907104,
				1,
				0.9999999403953552
			],
			"translation":[
				-4.291534423828125e-06,
				3.4183945655822754,
				-4.184197223366937e-06
			]
		},
		{
			"children":[
				28
			],
			"name":"mixamorig:LeftHandThumb2",
			"rotation":[
				-0.002066876506432891,
				0.0010426720837131143,
				-0.008213404566049576,
				0.9999635815620422
			],
			"translation":[
				2.384185791015625e-06,
				4.187107563018799,
				5.703986403204908e-07
			]
		},
		{
			"children":[
				29
			],
			"name":"mixamorig:LeftHandThumb1",
			"rotation":[
				0.2530965209007263,
				-0.061322856694459915,
				0.22735269367694855,
				0.9383455514907837
			],
			"translation":[
				-2.6817314624786377,
				2.466150999069214,
				1.576171875
			]
		},
		{
			"name":"mixamorig:LeftHandIndex4",
			"rotation":[
				-4.930599484254117e-09,
				-0.00037742318818345666,
				-1.305992373090703e-05,
				0.9999999403953552
			],
			"scale":[
				1,
				0.9999999403953552,
				1
			],
			"translation":[
				3.958612069254741e-07,
				2.7748637199401855,
				-2.129062522726599e-05
			]
		},
		{
			"children":[
				31
			],
			"name":"mixamorig:LeftHandIndex3",
			"rotation":[
				7.24767375004376e-08,
				-3.6091677202421124e-08,
				-6.625645619351417e-05,
				1
			],
			"scale":[
				1,
				0.9999998807907104,
				1
			],
			"translation":[
				2.533420229156036e-07,
				2.850010395050049,
				6.815745564381359e-06
			]
		},
		{
			"children":[
				32
			],
			"name":"mixamorig:LeftHandIndex2",
			"rotation":[
				6.220614068297436e-07,
				1.8862436945710215e-08,
				0.0001051144499797374,
				1
			],
			"translation":[
				-4.436978997546248e-07,
				3.7000014781951904,
				-1.0695164746721275e-05
			]
		},
		{
			"children":[
				33
			],
			"name":"mixamorig:LeftHandIndex1",
			"rotation":[
				1.1276550822003628e-06,
				-1.4389607727594012e-08,
				-4.407522646943107e-05,
				1
			],
			"translation":[
				-2.2598628997802734,
				9.10931396484375,
				0.518008291721344
			]
		},
		{
			"name":"mixamorig:LeftHandMiddle4",
			"rotation":[
				2.8695124498767655e-08,
				-0.0010240045376121998,
				2.8017251679557376e-05,
				0.999999463558197
			],
			"translation":[
				-6.160189514048398e-07,
				2.9528634548187256,
				-1.4729353097209241e-06
			]
		},
		{
			"children":[
				35
			],
			"name":"mixamorig:LeftHandMiddle3",
			"rotation":[
				2.747232996647142e-12,
				-6.287716303177149e-08,
				2.067953028017655e-05,
				1
			],
			"translation":[
				4.0178929339163005e-07,
				2.950003147125244,
				-7.746781420792104e-07
			]
		},
		{
			"children":[
				36
			],
			"name":"mixamorig:LeftHandMiddle2",
			"rotation":[
				1.7646652368530358e-12,
				1.1266701349654795e-08,
				2.1230505808489397e-05,
				1
			],
			"translation":[
				-6.590571501874365e-07,
				3.7000021934509277,
				1.4359461601998191e-05
			]
		},
		{
			"children":[
				37
			],
			"name":"mixamorig:LeftHandMiddle1",
			"rotation":[
				-9.2726429556933e-07,
				-7.831481241282745e-09,
				-3.16578516503796e-05,
				1
			],
			"translation":[
				-3.623409793362953e-05,
				9.533406257629395,
				-5.922942727920599e-05
			]
		},
		{
			"name":"mixamorig:LeftHandRing4",
			"rotation":[
				-7.919059186178856e-09,
				0.0004933033487759531,
				1.6048934412538074e-05,
				0.9999998807907104
			],
			"translation":[
				-2.2851092580822296e-05,
				2.6443257331848145,
				1.5625861124135554e-05
			]
		},
		{
			"children":[
				39
			],
			"name":"mixamorig:LeftHandRing3",
			"rotation":[
				9.382925480420218e-14,
				5.414085535448976e-08,
				5.41410827281652e-08,
				1
			],
			"translation":[
				2.251774731121259e-06,
				2.949998378753662,
				-4.3578165787039325e-07
			]
		},
		{
			"children":[
				40
			],
			"name":"mixamorig:LeftHandRing2",
			"rotation":[
				5.150205817372466e-10,
				-2.8229337090124318e-08,
				-3.654236024885904e-08,
				1
			],
			"translation":[
				-1.9744038581848145e-07,
				3.150010108947754,
				1.5327721484936774e-05
			]
		},
		{
			"children":[
				41
			],
			"name":"mixamorig:LeftHandRing1",
			"rotation":[
				-9.277766253035225e-07,
				7.212518937649293e-08,
				6.338916136883199e-06,
				1
			],
			"translation":[
				1.8650809526443481,
				9.104533195495605,
				0.04300159588456154
			]
		},
		{
			"name":"mixamorig:LeftHandPinky4",
			"rotation":[
				-2.3141902261158975e-07,
				-0.0007834380376152694,
				-0.0002954566152766347,
				0.9999996423721313
			],
			"scale":[
				1,
				1,
				1.0000001192092896
			],
			"translation":[
				7.244234438985586e-07,
				2.125530958175659,
				-1.4008486687089317e-05
			]
		},
		{
			"children":[
				43
			],
			"name":"mixamorig:LeftHandPinky3",
			"rotation":[
				4.3628915591398254e-08,
				2.1567666408373043e-07,
				-6.689946167171001e-05,
				1
			],
			"scale":[
				1,
				1,
				1.0000001192092896
			],
			"translation":[
				-1.230982888955623e-07,
				2.1000144481658936,
				4.515695763984695e-06
			]
		},
		{
			"children":[
				44
			],
			"name":"mixamorig:LeftHandPinky2",
			"rotation":[
				6.05553282184701e-07,
				-1.318119586812827e-07,
				-0.0002107508626068011,
				1
			],
			"scale":[
				1,
				0.9999998807907104,
				0.9999999403953552
			],
			"translation":[
				6.497264166682726e-07,
				3.5999999046325684,
				1.5999868992366828e-05
			]
		},
		{
			"children":[
				45
			],
			"name":"mixamorig:LeftHandPinky1",
			"rotation":[
				-5.165792572370265e-06,
				2.7583133999087295e-08,
				0.0020448036957532167,
				0.9999979138374329
			],
			"scale":[
				0.9999999403953552,
				0.9999999403953552,
				1
			],
			"translation":[
				3.8062632083892822,
				8.077783584594727,
				0.4868508577346802
			]
		},
		{
			"children":[
				30,
				34,
				38,
				42,
				46
			],
			"name":"mixamorig:LeftHand",
			"rotation":[
				3.8863055351612275e-07,
				-6.712475908443594e-09,
				-6.712447486734163e-09,
				1
			],
			"translation":[
				5.6526278058299795e-06,
				28.328840255737305,
				-1.2893019629700575e-06
			]
		},
		{
			"children":[
				47
			],
			"name":"mixamorig:LeftForeArm",
			"rotation":[
				-1.0849343645702447e-08,
				1.1031765501101631e-09,
				-1.7106340788330954e-09,
				1
			],
			"translation":[
				-7.169819582486525e-07,
				27.841529846191406,
				1.3024112377024721e-05
			]
		},
		{
			"children":[
				48
			],
			"name":"mixamorig:LeftArm",
			"rotation":[
				-0.024606693536043167,
				-0.0025613487232476473,
				0.10350450873374939,
				0.9943212270736694
			],
			"translation":[
				7.152557373046875e-07,
				10.8377046585083,
				-3.332449705339968e-05
			]
		},
		{
			"children":[
				49
			],
			"name":"mixamorig:LeftShoulder",
			"rotation":[
				0.4844229221343994,
				0.570970356464386,
				-0.5261617302894592,
				0.4030897319316864
			],
			"scale":[
				0.9999997615814209,
				0.9999995827674866,
				0.9999998807907104
			],
			"translation":[
				4.570446014404297,
				11.195630073547363,
				-0.8066279292106628
			]
		},
		{
			"children":[
				2,
				26,
				50
			],
			"name":"mixamorig:Spine2",
			"rotation":[
				0.01288564968854189,
				-4.771162909200655e-10,
				-3.702407624928128e-08,
				0.9999169707298279
			],
			"scale":[
				1,
				1,
				1.0000001192092896
			],
			"translation":[
				7.176481631177012e-13,
				9.322083473205566,
				-5.960459930065554e-07
			]
		},
		{
			"children":[
				51
			],
			"name":"mixamorig:Spine1",
			"rotation":[
				-3.3527612686157227e-08,
				1.27675647831893e-15,
				1.5404344466674047e-14,
				1
			],
			"translation":[
				-1.183941833460267e-12,
				10.00268840789795,
				1.937151409947546e-06
			]
		},
		{
			"children":[
				52
			],
			"name":"mixamorig:Spine",
			"rotation":[
				-0.08015572279691696,
				4.4552277076164316e-15,
				-2.480681757788261e-07,
				0.9967823624610901
			],
			"translation":[
				-4.247961704617609e-10,
				10.182435035705566,
				2.980223889892386e-08
			]
		},
		{
			"name":"mixamorig:RightToe_End",
			"rotation":[
				1.3825523836885623e-08,
				0.011608132161200047,
				1.604932436949369e-10,
				0.9999326467514038
			],
			"scale":[
				1,
				1,
				0.9999998807907104
			],
			"translation":[
				-5.491771730703476e-07,
				9.278120994567871,
				-9.868017514236271e-11
			]
		},
		{
			"children":[
				54
			],
			"name":"mixamorig:RightToeBase",
			"rotation":[
				0.3352414667606354,
				2.63412207601732e-08,
				-1.334391726004469e-07,
				0.942132294178009
			],
			"scale":[
				1,
				0.9999998211860657,
				0.9999999403953552
			],
			"translation":[
				6.411783033399843e-07,
				13.816864967346191,
				1.1895360785274534e-07
			]
		},
		{
			"children":[
				55
			],
			"name":"mixamorig:RightFoot",
			"rotation":[
				0.45974016189575195,
				-4.17253289697328e-08,
				-1.460113026041654e-07,
				0.8880535364151001
			],
			"scale":[
				1,
				0.9999999403953552,
				0.9999999403953552
			],
			"translation":[
				-1.8877427976349281e-07,
				44.52779769897461,
				-7.506292831749306e-08
			]
		},
		{
			"children":[
				56
			],
			"name":"mixamorig:RightLeg",
			"rotation":[
				-0.03809138759970665,
				-3.4170895446550276e-08,
				1.6871346986135904e-08,
				0.9992743134498596
			],
			"scale":[
				1,
				1,
				0.9999999403953552
			],
			"translation":[
				7.40087557460356e-07,
				44.3714714050293,
				-4.8098968363774475e-08
			]
		},
		{
			"children":[
				57
			],
			"name":"mixamorig:RightUpLeg",
			"rotation":[
				-3.4096967027608116e-08,
				0.010356475599110126,
				0.9999463558197021,
				2.575762891865452e-07
			],
			"scale":[
				1,
				1.000000238418579,
				1
			],
			"translation":[
				-8.207788467407227,
				-6.771759510040283,
				-1.5122188329696655
			]
		},
		{
			"name":"mixamorig:LeftToe_End",
			"rotation":[
				1.215532385856477e-08,
				-0.011869153007864952,
				-1.4424370031740352e-10,
				0.9999295473098755
			],
			"translation":[
				-5.491935439749795e-07,
				9.27813720703125,
				8.344613888766617e-11
			]
		},
		{
			"children":[
				59
			],
			"name":"mixamorig:LeftToeBase",
			"rotation":[
				0.3352415859699249,
				2.634089568687159e-08,
				-1.3343900207019033e-07,
				0.9421321749687195
			],
			"scale":[
				1,
				1,
				1.0000001192092896
			],
			"translation":[
				6.411981985365856e-07,
				13.81686782836914,
				-5.272053158478229e-07
			]
		},
		{
			"children":[
				60
			],
			"name":"mixamorig:LeftFoot",
			"rotation":[
				0.4597485065460205,
				1.1832120838661808e-09,
				-1.5616616622082802e-07,
				0.8880491852760315
			],
			"translation":[
				-2.913934906700888e-07,
				44.52786636352539,
				2.407006149951485e-07
			]
		},
		{
			"children":[
				61
			],
			"name":"mixamorig:LeftLeg",
			"rotation":[
				-0.03811243921518326,
				-1.329344740952365e-07,
				1.643354607949732e-08,
				0.9992734789848328
			],
			"scale":[
				1,
				1.000000238418579,
				1
			],
			"translation":[
				8.493983045809728e-07,
				44.37139892578125,
				3.5241328077972867e-08
			]
		},
		{
			"children":[
				62
			],
			"name":"mixamorig:LeftUpLeg",
			"rotation":[
				-8.944905971475237e-08,
				0.010367962531745434,
				0.9999462366104126,
				2.677493853298074e-07
			],
			"scale":[
				1,
				0.9999996423721313,
				1
			],
			"translation":[
				8.207789421081543,
				-6.771798133850098,
				-1.5122138261795044
			]
		},
		{
			"children":[
				53,
				58,
				63
			],
			"name":"mixamorig:Hips",
			"rotation":[
				-0.7025253176689148,
				1.7827882459187094e-07,
				1.7599077750674041e-07,
				0.7116588354110718
			],
			"scale":[
				1,
				1,
				0.9999999403953552
			],
			"translation":[
				-7.727290721959434e-06,
				1.5543158054351807,
				-104.27487182617188
			]
		},
		{
			"extras":{
				"currentUVSet":"map1"
			},
			"mesh":0,
			"name":"Beta_Joints",
			"skin":0
		},
		{
			"extras":{
				"currentUVSet":"map1"
			},
			"mesh":1,
			"name":"Beta_Surface",
			"skin":0
		},
		{
			"children":[
				65,
				66,
				64
			],
			"name":"Armature",
			"rotation":[
				0.7071068286895752,
				0,
				0,
				0.7071068286895752
			],
			"scale":[
				0.009999999776482582,
				0.009999999776482582,
				0.009999999776482582
			]
		}
	],
	"animations":[
		{
			"channels":[
				{
					"sampler":0,
					"target":{
						"node":64,
						"path":"translation"
					}
				},
				{
					"sampler":1,
					"target":{
						"node":64,
						"path":"rotation"
					}
				},
				{
					"sampler":2,
					"target":{
						"node":64,
						"path":"scale"
					}
				},
				{
					"sampler":3,
					"target":{
						"node":53,
						"path":"translation"
					}
				},
				{
					"sampler":4,
					"target":{
						"node":53,
						"path":"rotation"
					}
				},
				{
					"sampler":5,
					"target":{
						"node":53,
						"path":"scale"
					}
				},
				{
					"sampler":6,
					"target":{
						"node":52,
						"path":"translation"
					}
				},
				{
					"sampler":7,
					"target":{
						"node":52,
						"path":"rotation"
					}
				},
				{
					"sampler":8,
					"target":{
						"node":52,
						"path":"scale"
					}
				},
				{
					"sampler":9,
					"target":{
						"node":51,
						"path":"translation"
					}
				},
				{
					"sampler":10,
					"target":{
						"node":51,
						"path":"rotation"
					}
				},
				{
					"sampler":11,
					"target":{
						"node":51,
						"path":"scale"
					}
				},
				{
					"sampler":12,
					"target":{
						"node":2,
						"path":"translation"
					}
				},
				{
					"sampler":13,
					"target":{
						"node":2,
						"path":"rotation"
					}
				},
				{
					"sampler":14,
					"target":{
						"node":2,
						"path":"scale"
					}
				},
				{
					"sampler":15,
					"target":{
						"node":1,
						"path":"translation"
					}
				},
				{
					"sampler":16,
					"target":{
						"node":1,
						"path":"rotation"
					}
				},
				{
					"sampler":17,
					"target":{
						"node":1,
						"path":"scale"
					}
				},
				{
					"sampler":18,
					"target":{
						"node":0,
						"path":"translation"
					}
				},
				{
					"sampler":19,
					"target":{
						"node":0,
						"path":"rotation"
					}
				},
				{
					"sampler":20,
					"target":{
						"node":0,
						"path":"scale"
					}
				},
				{
					"sampler":21,
					"target":{
						"node":26,
						"path":"translation"
					}
				},
				{
					"sampler":22,
					"target":{
						"node":26,
						"path":"rotation"
					}
				},
				{
					"sampler":23,
					"target":{
						"node":26,
						"path":"scale"
					}
				},
				{
					"sampler":24,
					"target":{
						"node":25,
						"path":"translation"
					}
				},
				{
					"sampler":25,
					"target":{
						"node":25,
						"path":"rotation"
					}
				},
				{
					"sampler":26,
					"target":{
						"node":25,
						"path":"scale"
					}
				},
				{
					"sampler":27,
					"target":{
						"node":24,
						"path":"translation"
					}
				},
				{
					"sampler":28,
					"target":{
						"node":24,
						"path":"rotation"
					}
				},
				{
					"sampler":29,
					"target":{
						"node":24,
						"path":"scale"
					}
				},
				{
					"sampler":30,
					"target":{
						"node":23,
						"path":"translation"
					}
				},
				{
					"sampler":31,
					"target":{
						"node":23,
						"path":"rotation"
					}
				},
				{
					"sampler":32,
					"target":{
						"node":23,
						"path":"scale"
					}
				},
				{
					"sampler":33,
					"target":{
						"node":6,
						"path":"translation"
					}
				},
				{
					"sampler":34,
					"target":{
						"node":6,
						"path":"rotation"
					}
				},
				{
					"sampler":35,
					"target":{
						"node":6,
						"path":"scale"
					}
				},
				{
					"sampler":36,
					"target":{
						"node":5,
						"path":"translation"
					}
				},
				{
					"sampler":37,
					"target":{
						"node":5,
						"path":"rotation"
					}
				},
				{
					"sampler":38,
					"target":{
						"node":5,
						"path":"scale"
					}
				},
				{
					"sampler":39,
					"target":{
						"node":4,
						"path":"translation"
					}
				},
				{
					"sampler":40,
					"target":{
						"node":4,
						"path":"rotation"
					}
				},
				{
					"sampler":41,
					"target":{
						"node":4,
						"path":"scale"
					}
				},
				{
					"sampler":42,
					"target":{
						"node":3,
						"path":"translation"
					}
				},
				{
					"sampler":43,
					"target":{
						"node":3,
						"path":"rotation"
					}
				},
				{
					"sampler":44,
					"target":{
						"node":3,
						"path":"scale"
					}
				},
				{
					"sampler":45,
					"target":{
						"node":10,
						"path":"translation"
					}
				},
				{
					"sampler":46,
					"target":{
						"node":10,
						"path":"rotation"
					}
				},
				{
					"sampler":47,
					"target":{
						"node":10,
						"path":"scale"
					}
				},
				{
					"sampler":48,
					"target":{
						"node":9,
						"path":"translation"
					}
				},
				{
					"sampler":49,
					"target":{
						"node":9,
						"path":"rotation"
					}
				},
				{
					"sampler":50,
					"target":{
						"node":9,
						"path":"scale"
					}
				},
				{
					"sampler":51,
					"target":{
						"node":8,
						"path":"translation"
					}
				},
				{
					"sampler":52,
					"target":{
						"node":8,
						"path":"rotation"
					}
				},
				{
					"sampler":53,
					"target":{
						"node":8,
						"path":"scale"
					}
				},
				{
					"sampler":54,
					"target":{
						"node":7,
						"path":"translation"
					}
				},
				{
					"sampler":55,
					"target":{
						"node":7,
						"path":"rotation"
					}
				},
				{
					"sampler":56,
					"target":{
						"node":7,
						"path":"scale"
					}
				},
				{
					"sampler":57,
					"target":{
						"node":14,
						"path":"translation"
					}
				},
				{
					"sampler":58,
					"target":{
						"node":14,
						"path":"rotation"
					}
				},
				{
					"sampler":59,
					"target":{
						"node":14,
						"path":"scale"
					}
				},
				{
					"sampler":60,
					"target":{
						"node":13,
						"path":"translation"
					}
				},
				{
					"sampler":61,
					"target":{
						"node":13,
						"path":"rotation"
					}
				},
				{
					"sampler":62,
					"target":{
						"node":13,
						"path":"scale"
					}
				},
				{
					"sampler":63,
					"target":{
						"node":12,
						"path":"translation"
					}
				},
				{
					"sampler":64,
					"target":{
						"node":12,
						"path":"rotation"
					}
				},
				{
					"sampler":65,
					"target":{
						"node":12,
						"path":"scale"
					}
				},
				{
					"sampler":66,
					"target":{
						"node":11,
						"path":"translation"
					}
				},
				{
					"sampler":67,
					"target":{
						"node":11,
						"path":"rotation"
					}
				},
				{
					"sampler":68,
					"target":{
						"node":11,
						"path":"scale"
					}
				},
				{
					"sampler":69,
					"target":{
						"node":18,
						"path":"translation"
					}
				},
				{
					"sampler":70,
					"target":{
						"node":18,
						"path":"rotation"
					}
				},
				{
					"sampler":71,
					"target":{
						"node":18,
						"path":"scale"
					}
				},
				{
					"sampler":72,
					"target":{
						"node":17,
						"path":"translation"
					}
				},
				{
					"sampler":73,
					"target":{
						"node":17,
						"path":"rotation"
					}
				},
				{
					"sampler":74,
					"target":{
						"node":17,
						"path":"scale"
					}
				},
				{
					"sampler":75,
					"target":{
						"node":16,
						"path":"translation"
					}
				},
				{
					"sampler":76,
					"target":{
						"node":16,
						"path":"rotation"
					}
				},
				{
					"sampler":77,
					"target":{
						"node":16,
						"path":"scale"
					}
				},
				{
					"sampler":78,
					"target":{
						"node":15,
						"path":"translation"
					}
				},
				{
					"sampler":79,
					"target":{
						"node":15,
						"path":"rotation"
					}
				},
				{
					"sampler":80,
					"target":{
						"node":15,
						"path":"scale"
					}
				},
				{
					"sampler":81,
					"target":{
						"node":22,
						"path":"translation"
					}
				},
				{
					"sampler":82,
					"target":{
						"node":22,
						"path":"rotation"
					}
				},
				{
					"sampler":83,
					"target":{
						"node":22,
						"path":"scale"
					}
				},
				{
					"sampler":84,
					"target":{
						"node":21,
						"path":"translation"
					}
				},
				{
					"sampler":85,
					"target":{
						"node":21,
						"path":"rotation"
					}
				},
				{
					"sampler":86,
					"target":{
						"node":21,
						"path":"scale"
					}
				},
				{
					"sampler":87,
					"target":{
						"node":20,
						"path":"translation"
					}
				},
				{
					"sampler":88,
					"target":{
						"node":20,
						"path":"rotation"
					}
				},
				{
					"sampler":89,
					"target":{
						"node":20,
						"path":"scale"
					}
				},
				{
					"sampler":90,
					"target":{
						"node":19,
						"path":"translation"
					}
				},
				{
					"sampler":91,
					"target":{
						"node":19,
						"path":"rotation"
					}
				},
				{
					"sampler":92,
					"target":{
						"node":19,
						"path":"scale"
					}
				},
				{
					"sampler":93,
					"target":{
						"node":50,
						"path":"translation"
					}
				},
				{
					"sampler":94,
					"target":{
						"node":50,
						"path":"rotation"
					}
				},
				{
					"sampler":95,
					"target":{
						"node":50,
						"path":"scale"
					}
				},
				{
					"sampler":96,
					"target":{
						"node":49,
						"path":"translation"
					}
				},
				{
					"sampler":97,
					"target":{
						"node":49,
						"path":"rotation"
					}
				},
				{
					"sampler":98,
					"target":{
						"node":49,
						"path":"scale"
					}
				},
				{
					"sampler":99,
					"target":{
						"node":48,
						"path":"translation"
					}
				},
				{
					"sampler":100,
					"target":{
						"node":48,
						"path":"rotation"
					}
				},
				{
					"sampler":101,
					"target":{
						"node":48,
						"path":"scale"
					}
				},
				{
					"sampler":102,
					"target":{
						"node":47,
						"path":"translation"
					}
				},
				{
					"sampler":103,
					"target":{
						"node":47,
						"path":"rotation"
					}
				},
				{
					"sampler":104,
					"target":{
						"node":47,
						"path":"scale"
					}
				},
				{
					"sampler":105,
					"target":{
						"node":30,
						"path":"translation"
					}
				},
				{
					"sampler":106,
					"target":{
						"node":30,
						"path":"rotation"
					}
				},
				{
					"sampler":107,
					"target":{
						"node":30,
						"path":"scale"
					}
				},
				{
					"sampler":108,
					"target":{
						"node":29,
						"path":"translation"
					}
				},
				{
					"sampler":109,
					"target":{
						"node":29,
						"path":"rotation"
					}
				},
				{
					"sampler":110,
					"target":{
						"node":29,
						"path":"scale"
					}
				},
				{
					"sampler":111,
					"target":{
						"node":28,
						"path":"translation"
					}
				},
				{
					"sampler":112,
					"target":{
						"node":28,
						"path":"rotation"
					}
				},
				{
					"sampler":113,
					"target":{
						"node":28,
						"path":"scale"
					}
				},
				{
					"sampler":114,
					"target":{
						"node":27,
						"path":"translation"
					}
				},
				{
					"sampler":115,
					"target":{
						"node":27,
						"path":"rotation"
					}
				},
				{
					"sampler":116,
					"target":{
						"node":27,
						"path":"scale"
					}
				},
				{
					"sampler":117,
					"target":{
						"node":34,
						"path":"translation"
					}
				},
				{
					"sampler":118,
					"target":{
						"node":34,
						"path":"rotation"
					}
				},
				{
					"sampler":119,
					"target":{
						"node":34,
						"path":"scale"
					}
				},
				{
					"sampler":120,
					"target":{
						"node":33,
						"path":"translation"
					}
				},
				{
					"sampler":121,
					"target":{
						"node":33,
						"path":"rotation"
					}
				},
				{
					"sampler":122,
					"target":{
						"node":33,
						"path":"scale"
					}
				},
				{
					"sampler":123,
					"target":{
						"node":32,
						"path":"translation"
					}
				},
				{
					"sampler":124,
					"target":{
						"node":32,
						"path":"rotation"
					}
				},
				{
					"sampler":125,
					"target":{
						"node":32,
						"path":"scale"
					}
				},
				{
					"sampler":126,
					"target":{
						"node":31,
						"path":"translation"
					}
				},
				{
					"sampler":127,
					"target":{
						"node":31,
						"path":"rotation"
					}
				},
				{
					"sampler":128,
					"target":{
						"node":31,
						"path":"scale"
					}
				},
				{
					"sampler":129,
					"target":{
						"node":38,
						"path":"translation"
					}
				},
				{
					"sampler":130,
					"target":{
						"node":38,
						"path":"rotation"
					}
				},
				{
					"sampler":131,
					"target":{
						"node":38,
						"path":"scale"
					}
				},
				{
					"sampler":132,
					"target":{
						"node":37,
						"path":"translation"
					}
				},
				{
					"sampler":133,
					"target":{
						"node":37,
						"path":"rotation"
					}
				},
				{
					"sampler":134,
					"target":{
						"node":37,
						"path":"scale"
					}
				},
				{
					"sampler":135,
					"target":{
						"node":36,
						"path":"translation"
					}
				},
				{
					"sampler":136,
					"target":{
						"node":36,
						"path":"rotation"
					}
				},
				{
					"sampler":137,
					"target":{
						"node":36,
						"path":"scale"
					}
				},
				{
					"sampler":138,
					"target":{
						"node":35,
						"path":"translation"
					}
				},
				{
					"sampler":139,
					"target":{
						"node":35,
						"path":"rotation"
					}
				},
				{
					"sampler":140,
					"target":{
						"node":35,
						"path":"scale"
					}
				},
				{
					"sampler":141,
					"target":{
						"node":42,
						"path":"translation"
					}
				},
				{
					"sampler":142,
					"target":{
						"node":42,
						"path":"rotation"
					}
				},
				{
					"sampler":143,
					"target":{
						"node":42,
						"path":"scale"
					}
				},
				{
					"sampler":144,
					"target":{
						"node":41,
						"path":"translation"
					}
				},
				{
					"sampler":145,
					"target":{
						"node":41,
						"path":"rotation"
					}
				},
				{
					"sampler":146,
					"target":{
						"node":41,
						"path":"scale"
					}
				},
				{
					"sampler":147,
					"target":{
						"node":40,
						"path":"translation"
					}
				},
				{
					"sampler":148,
					"target":{
						"node":40,
						"path":"rotation"
					}
				},
				{
					"sampler":149,
					"target":{
						"node":40,
						"path":"scale"
					}
				},
				{
					"sampler":150,
					"target":{
						"node":39,
						"path":"translation"
					}
				},
				{
					"sampler":151,
					"target":{
						"node":39,
						"path":"rotation"
					}
				},
				{
					"sampler":152,
					"target":{
						"node":39,
						"path":"scale"
					}
				},
				{
					"sampler":153,
					"target":{
						"node":46,
						"path":"translation"
					}
				},
				{
					"sampler":154,
					"target":{
						"node":46,
						"path":"rotation"
					}
				},
				{
					"sampler":155,
					"target":{
						"node":46,
						"path":"scale"
					}
				},
				{
					"sampler":156,
					"target":{
						"node":45,
						"path":"translation"
					}
				},
				{
					"sampler":157,
					"target":{
						"node":45,
						"path":"rotation"
					}
				},
				{
					"sampler":158,
					"target":{
						"node":45,
						"path":"scale"
					}
				},
				{
					"sampler":159,
					"target":{
						"node":44,
						"path":"translation"
					}
				},
				{
					"sampler":160,
					"target":{
						"node":44,
						"path":"rotation"
					}
				},
				{
					"sampler":161,
					"target":{
						"node":44,
						"path":"scale"
					}
				},
				{
					"sampler":162,
					"target":{
						"node":43,
						"path":"translation"
					}
				},
				{
					"sampler":163,
					"target":{
						"node":43,
						"path":"rotation"
					}
				},
				{
					"sampler":164,
					"target":{
						"node":43,
						"path":"scale"
					}
				},
				{
					"sampler":165,
					"target":{
						"node":58,
						"path":"translation"
					}
				},
				{
					"sampler":166,
					"target":{
						"node":58,
						"path":"rotation"
					}
				},
				{
					"sampler":167,
					"target":{
						"node":58,
						"path":"scale"
					}
				},
				{
					"sampler":168,
					"target":{
						"node":57,
						"path":"translation"
					}
				},
				{
					"sampler":169,
					"target":{
						"node":57,
						"path":"rotation"
					}
				},
				{
					"sampler":170,
					"target":{
						"node":57,
						"path":"scale"
					}
				},
				{
					"sampler":171,
					"target":{
						"node":56,
						"path":"translation"
					}
				},
				{
					"sampler":172,
					"target":{
						"node":56,
						"path":"rotation"
					}
				},
				{
					"sampler":173,
					"target":{
						"node":56,
						"path":"scale"
					}
				},
				{
					"sampler":174,
					"target":{
						"node":55,
						"path":"translation"
					}
				},
				{
					"sampler":175,
					"target":{
						"node":55,
						"path":"rotation"
					}
				},
				{
					"sampler":176,
					"target":{
						"node":55,
						"path":"scale"
					}
				},
				{
					"sampler":177,
					"target":{
						"node":54,
						"path":"translation"
					}
				},
				{
					"sampler":178,
					"target":{
						"node":54,
						"path":"rotation"
					}
				},
				{
					"sampler":179,
					"target":{
						"node":54,
						"path":"scale"
					}
				},
				{
					"sampler":180,
					"target":{
						"node":63,
						"path":"translation"
					}
				},
				{
					"sampler":181,
					"target":{
						"node":63,
						"path":"rotation"
					}
				},
				{
					"sampler":182,
					"target":{
						"node":63,
						"path":"scale"
					}
				},
				{
					"sampler":183,
					"target":{
						"node":62,
						"path":"translation"
					}
				},
				{
					"sampler":184,
					"target":{
						"node":62,
						"path":"rotation"
					}
				},
				{
					"sampler":185,
					"target":{
						"node":62,
						"path":"scale"
					}
				},
				{
					"sampler":186,
					"target":{
						"node":61,
						"path":"translation"
					}
				},
				{
					"sampler":187,
					"target":{
						"node":61,
						"path":"rotation"
					}
				},
				{
					"sampler":188,
					"target":{
						"node":61,
						"path":"scale"
					}
				},
				{
					"sampler":189,
					"target":{
						"node":60,
						"path":"translation"
					}
				},
				{
					"sampler":190,
					"target":{
						"node":60,
						"path":"rotation"
					}
				},
				{
					"sampler":191,
					"target":{
						"node":60,
						"path":"scale"
					}
				},
				{
					"sampler":192,
					"target":{
						"node":59,
						"path":"translation"
					}
				},
				{
					"sampler":193,
					"target":{
						"node":59,
						"path":"rotation"
					}
				},
				{
					"sampler":194,
					"target":{
						"node":59,
						"path":"scale"
					}
				}
			],
			"name":"mixamo.com",
			"samplers":[
				{
					"input":15,
					"interpolation":"STEP",
					"output":16
				},
				{
					"input":15,
					"interpolation":"STEP",
					"output":17
				},
				{
					"input":15,
					"interpolation":"STEP",
					"output":18
				},
				{
					"input":15,
					"interpolation":"STEP",
					"output":19
				},
				{
					"input":15,
					"interpolation":"STEP",
					"output":20
				},
				{
					"input":15,
					"interpolation":"STEP",
					"output":21
				},
				{
					"input":15,
					"interpolation":"STEP",
					"output":22
				},
				{
					"input":15,
					"interpolation":"STEP",
					"output":23
				},
				{
					"input":15,
					"interpolation":"STEP",
					"output":18
				},
				{
					"input":15,
					"interpolation":"STEP",
					"output":24
				},
				{
					"input":15,
					"interpolation":"STEP",
					"output":25
				},
				{
					"input":15,
					"interpolation":"STEP",
					"output":26
				},
				{
					"input":15,
					"interpolation":"STEP",
					"output":27
				},
				{
					"input":15,
					"interpolation":"STEP",
					"output":28
				},
				{
					"input":15,
					"interpolation":"STEP",
					"output":29
				},
				{
					"input":15,
					"interpolation":"STEP",
					"output":30
				},
				{
					"input":15,
					"interpolation":"STEP",
					"output":31
				},
				{
					"input":15,
					"interpolation":"STEP",
					"output":29
				},
				{
					"input":15,
					"interpolation":"STEP",
					"output":32
				},
				{
					"input":15,
					"interpolation":"STEP",
					"output":33
				},
				{
					"input":15,
					"interpolation":"STEP",
					"output":29
				},
				{
					"input":15,
					"interpolation":"STEP",
					"output":34
				},
				{
					"input":15,
					"interpolation":"STEP",
					"output":35
				},
				{
					"input":15,
					"interpolation":"STEP",
					"output":36
				},
				{
					"input":15,
					"interpolation":"STEP",
					"output":37
				},
				{
					"input":15,
					"interpolation":"STEP",
					"output":38
				},
				{
					"input":15,
					"interpolation":"STEP",
					"output":29
				},
				{
					"input":15,
					"interpolation":"STEP",
					"output":39
				},
				{
					"input":15,
					"interpolation":"STEP",
					"output":40
				},
				{
					"input":15,
					"interpolation":"STEP",
					"output":29
				},
				{
					"input":15,
					"interpolation":"STEP",
					"output":41
				},
				{
					"input":15,
					"interpolation":"STEP",
					"output":42
				},
				{
					"input":15,
					"interpolation":"STEP",
					"output":29
				},
				{
					"input":15,
					"interpolation":"STEP",
					"output":43
				},
				{
					"input":15,
					"interpolation":"STEP",
					"output":44
				},
				{
					"input":15,
					"interpolation":"STEP",
					"output":45
				},
				{
					"input":15,
					"interpolation":"STEP",
					"output":46
				},
				{
					"input":15,
					"interpolation":"STEP",
					"output":47
				},
				{
					"input":15,
					"interpolation":"STEP",
					"output":26
				},
				{
					"input":15,
					"interpolation":"STEP",
					"output":48
				},
				{
					"input":15,
					"interpolation":"STEP",
					"output":49
				},
				{
					"input":15,
					"interpolation":"STEP",
					"output":50
				},
				{
					"input":15,
					"interpolation":"STEP",
					"output":51
				},
				{
					"input":15,
					"interpolation":"STEP",
					"output":52
				},
				{
					"input":15,
					"interpolation":"STEP",
					"output":53
				},
				{
					"input":15,
					"interpolation":"STEP",
					"output":54
				},
				{
					"input":15,
					"interpolation":"STEP",
					"output":55
				},
				{
					"input":15,
					"interpolation":"STEP",
					"output":26
				},
				{
					"input":15,
					"interpolation":"STEP",
					"output":56
				},
				{
					"input":15,
					"interpolation":"STEP",
					"output":57
				},
				{
					"input":15,
					"interpolation":"STEP",
					"output":29
				},
				{
					"input":15,
					"interpolation":"STEP",
					"output":58
				},
				{
					"input":15,
					"interpolation":"STEP",
					"output":59
				},
				{
					"input":15,
					"interpolation":"STEP",
					"output":60
				},
				{
					"input":15,
					"interpolation":"STEP",
					"output":61
				},
				{
					"input":15,
					"interpolation":"STEP",
					"output":62
				},
				{
					"input":15,
					"interpolation":"STEP",
					"output":18
				},
				{
					"input":15,
					"interpolation":"STEP",
					"output":63
				},
				{
					"input":15,
					"interpolation":"STEP",
					"output":64
				},
				{
					"input":15,
					"interpolation":"STEP",
					"output":65
				},
				{
					"input":15,
					"interpolation":"STEP",
					"output":66
				},
				{
					"input":15,
					"interpolation":"STEP",
					"output":67
				},
				{
					"input":15,
					"interpolation":"STEP",
					"output":29
				},
				{
					"input":15,
					"interpolation":"STEP",
					"output":68
				},
				{
					"input":15,
					"interpolation":"STEP",
					"output":69
				},
				{
					"input":15,
					"interpolation":"STEP",
					"output":70
				},
				{
					"input":15,
					"interpolation":"STEP",
					"output":71
				},
				{
					"input":15,
					"interpolation":"STEP",
					"output":72
				},
				{
					"input":15,
					"interpolation":"STEP",
					"output":73
				},
				{
					"input":15,
					"interpolation":"STEP",
					"output":74
				},
				{
					"input":15,
					"interpolation":"STEP",
					"output":75
				},
				{
					"input":15,
					"interpolation":"STEP",
					"output":26
				},
				{
					"input":15,
					"interpolation":"STEP",
					"output":76
				},
				{
					"input":15,
					"interpolation":"STEP",
					"output":77
				},
				{
					"input":15,
					"interpolation":"STEP",
					"output":78
				},
				{
					"input":15,
					"interpolation":"STEP",
					"output":79
				},
				{
					"input":15,
					"interpolation":"STEP",
					"output":80
				},
				{
					"input":15,
					"interpolation":"STEP",
					"output":81
				},
				{
					"input":15,
					"interpolation":"STEP",
					"output":82
				},
				{
					"input":15,
					"interpolation":"STEP",
					"output":83
				},
				{
					"input":15,
					"interpolation":"STEP",
					"output":84
				},
				{
					"input":15,
					"interpolation":"STEP",
					"output":85
				},
				{
					"input":15,
					"interpolation":"STEP",
					"output":86
				},
				{
					"input":15,
					"interpolation":"STEP",
					"output":29
				},
				{
					"input":15,
					"interpolation":"STEP",
					"output":87
				},
				{
					"input":15,
					"interpolation":"STEP",
					"output":88
				},
				{
					"input":15,
					"interpolation":"STEP",
					"output":89
				},
				{
					"input":15,
					"interpolation":"STEP",
					"output":90
				},
				{
					"input":15,
					"interpolation":"STEP",
					"output":91
				},
				{
					"input":15,
					"interpolation":"STEP",
					"output":65
				},
				{
					"input":15,
					"interpolation":"STEP",
					"output":92
				},
				{
					"input":15,
					"interpolation":"STEP",
					"output":93
				},
				{
					"input":15,
					"interpolation":"STEP",
					"output":94
				},
				{
					"input":15,
					"interpolation":"STEP",
					"output":95
				},
				{
					"input":15,
					"interpolation":"STEP",
					"output":96
				},
				{
					"input":15,
					"interpolation":"STEP",
					"output":97
				},
				{
					"input":15,
					"interpolation":"STEP",
					"output":98
				},
				{
					"input":15,
					"interpolation":"STEP",
					"output":99
				},
				{
					"input":15,
					"interpolation":"STEP",
					"output":100
				},
				{
					"input":15,
					"interpolation":"STEP",
					"output":101
				},
				{
					"input":15,
					"interpolation":"STEP",
					"output":102
				},
				{
					"input":15,
					"interpolation":"STEP",
					"output":78
				},
				{
					"input":15,
					"interpolation":"STEP",
					"output":103
				},
				{
					"input":15,
					"interpolation":"STEP",
					"output":104
				},
				{
					"input":15,
					"interpolation":"STEP",
					"output":105
				},
				{
					"input":15,
					"interpolation":"STEP",
					"output":106
				},
				{
					"input":15,
					"interpolation":"STEP",
					"output":107
				},
				{
					"input":15,
					"interpolation":"STEP",
					"output":108
				},
				{
					"input":15,
					"interpolation":"STEP",
					"output":109
				},
				{
					"input":15,
					"interpolation":"STEP",
					"output":110
				},
				{
					"input":15,
					"interpolation":"STEP",
					"output":111
				},
				{
					"input":15,
					"interpolation":"STEP",
					"output":112
				},
				{
					"input":15,
					"interpolation":"STEP",
					"output":113
				},
				{
					"input":15,
					"interpolation":"STEP",
					"output":114
				},
				{
					"input":15,
					"interpolation":"STEP",
					"output":115
				},
				{
					"input":15,
					"interpolation":"STEP",
					"output":116
				},
				{
					"input":15,
					"interpolation":"STEP",
					"output":117
				},
				{
					"input":15,
					"interpolation":"STEP",
					"output":118
				},
				{
					"input":15,
					"interpolation":"STEP",
					"output":119
				},
				{
					"input":15,
					"interpolation":"STEP",
					"output":29
				},
				{
					"input":15,
					"interpolation":"STEP",
					"output":120
				},
				{
					"input":15,
					"interpolation":"STEP",
					"output":121
				},
				{
					"input":15,
					"interpolation":"STEP",
					"output":29
				},
				{
					"input":15,
					"interpolation":"STEP",
					"output":122
				},
				{
					"input":15,
					"interpolation":"STEP",
					"output":123
				},
				{
					"input":15,
					"interpolation":"STEP",
					"output":26
				},
				{
					"input":15,
					"interpolation":"STEP",
					"output":124
				},
				{
					"input":15,
					"interpolation":"STEP",
					"output":125
				},
				{
					"input":15,
					"interpolation":"STEP",
					"output":29
				},
				{
					"input":15,
					"interpolation":"STEP",
					"output":126
				},
				{
					"input":15,
					"interpolation":"STEP",
					"output":127
				},
				{
					"input":15,
					"interpolation":"STEP",
					"output":29
				},
				{
					"input":15,
					"interpolation":"STEP",
					"output":128
				},
				{
					"input":15,
					"interpolation":"STEP",
					"output":129
				},
				{
					"input":15,
					"interpolation":"STEP",
					"output":29
				},
				{
					"input":15,
					"interpolation":"STEP",
					"output":130
				},
				{
					"input":15,
					"interpolation":"STEP",
					"output":131
				},
				{
					"input":15,
					"interpolation":"STEP",
					"output":29
				},
				{
					"input":15,
					"interpolation":"STEP",
					"output":132
				},
				{
					"input":15,
					"interpolation":"STEP",
					"output":133
				},
				{
					"input":15,
					"interpolation":"STEP",
					"output":29
				},
				{
					"input":15,
					"interpolation":"STEP",
					"output":134
				},
				{
					"input":15,
					"interpolation":"STEP",
					"output":135
				},
				{
					"input":15,
					"interpolation":"STEP",
					"output":29
				},
				{
					"input":15,
					"interpolation":"STEP",
					"output":136
				},
				{
					"input":15,
					"interpolation":"STEP",
					"output":137
				},
				{
					"input":15,
					"interpolation":"STEP",
					"output":29
				},
				{
					"input":15,
					"interpolation":"STEP",
					"output":138
				},
				{
					"input":15,
					"interpolation":"STEP",
					"output":139
				},
				{
					"input":15,
					"interpolation":"STEP",
					"output":29
				},
				{
					"input":15,
					"interpolation":"STEP",
					"output":140
				},
				{
					"input":15,
					"interpolation":"STEP",
					"output":141
				},
				{
					"input":15,
					"interpolation":"STEP",
					"output":29
				},
				{
					"input":15,
					"interpolation":"STEP",
					"output":142
				},
				{
					"input":15,
					"interpolation":"STEP",
					"output":143
				},
				{
					"input":15,
					"interpolation":"STEP",
					"output":65
				},
				{
					"input":15,
					"interpolation":"STEP",
					"output":144
				},
				{
					"input":15,
					"interpolation":"STEP",
					"output":145
				},
				{
					"input":15,
					"interpolation":"STEP",
					"output":65
				},
				{
					"input":15,
					"interpolation":"STEP",
					"output":146
				},
				{
					"input":15,
					"interpolation":"STEP",
					"output":147
				},
				{
					"input":15,
					"interpolation":"STEP",
					"output":29
				},
				{
					"input":15,
					"interpolation":"STEP",
					"output":148
				},
				{
					"input":15,
					"interpolation":"STEP",
					"output":149
				},
				{
					"input":15,
					"interpolation":"STEP",
					"output":150
				},
				{
					"input":15,
					"interpolation":"STEP",
					"output":151
				},
				{
					"input":15,
					"interpolation":"STEP",
					"output":152
				},
				{
					"input":15,
					"interpolation":"STEP",
					"output":105
				},
				{
					"input":15,
					"interpolation":"STEP",
					"output":153
				},
				{
					"input":15,
					"interpolation":"STEP",
					"output":154
				},
				{
					"input":15,
					"interpolation":"STEP",
					"output":155
				},
				{
					"input":15,
					"interpolation":"STEP",
					"output":156
				},
				{
					"input":15,
					"interpolation":"STEP",
					"output":157
				},
				{
					"input":15,
					"interpolation":"STEP",
					"output":26
				},
				{
					"input":15,
					"interpolation":"STEP",
					"output":158
				},
				{
					"input":15,
					"interpolation":"STEP",
					"output":159
				},
				{
					"input":15,
					"interpolation":"STEP",
					"output":60
				},
				{
					"input":15,
					"interpolation":"STEP",
					"output":160
				},
				{
					"input":15,
					"interpolation":"STEP",
					"output":161
				},
				{
					"input":15,
					"interpolation":"STEP",
					"output":105
				},
				{
					"input":15,
					"interpolation":"STEP",
					"output":162
				},
				{
					"input":15,
					"interpolation":"STEP",
					"output":163
				},
				{
					"input":15,
					"interpolation":"STEP",
					"output":164
				},
				{
					"input":15,
					"interpolation":"STEP",
					"output":165
				},
				{
					"input":15,
					"interpolation":"STEP",
					"output":166
				},
				{
					"input":15,
					"interpolation":"STEP",
					"output":167
				},
				{
					"input":15,
					"interpolation":"STEP",
					"output":168
				},
				{
					"input":15,
					"interpolation":"STEP",
					"output":169
				},
				{
					"input":15,
					"interpolation":"STEP",
					"output":170
				},
				{
					"input":15,
					"interpolation":"STEP",
					"output":171
				},
				{
					"input":15,
					"interpolation":"STEP",
					"output":172
				},
				{
					"input":15,
					"interpolation":"STEP",
					"output":111
				},
				{
					"input":15,
					"interpolation":"STEP",
					"output":173
				},
				{
					"input":15,
					"interpolation":"STEP",
					"output":174
				},
				{
					"input":15,
					"interpolation":"STEP",
					"output":29
				}
			]
		}
	],
	"materials":[
		{
			"doubleSided":true,
			"extensions":{
				"KHR_materials_specular":{
					"specularColorFactor":[
						0.5982757210731506,
						0.5982757210731506,
						0.5982757210731506
					]
				}
			},
			"extras":{
				"Ambient":[
					0.0,
					0.0,
					0.0
				],
				"Diffuse":[
					0.26666667858759574,
					0.09962310343419167,
					0.08081178785580079
				],
				"Emissive":[
					0.0,
					0.0,
					0.0
				],
				"Opacity":1.0,
				"Reflectivity":0.0,
				"Shininess":2.0,
				"Specular":[
					0.2991378605365753,
					0.2991378605365753,
					0.2991378605365753
				]
			},
			"name":"Beta_Joints_MAT1",
			"pbrMetallicRoughness":{
				"baseColorFactor":[
					0.3333333432674408,
					0.12452887743711472,
					0.10101473331451416,
					1
				],
				"metallicFactor":0,
				"roughnessFactor":0.858578622341156
			}
		},
		{
			"doubleSided":true,
			"extensions":{
				"KHR_materials_specular":{
					"specularColorFactor":[
						0.9743495583534241,
						0.9743495583534241,
						0.9743495583534241
					]
				}
			},
			"extras":{
				"Ambient":[
					0.0,
					0.0,
					0.0
				],
				"Diffuse":[
					0.6696000198960306,
					0.24184642198452977,
					0.21092400865143546
				],
				"Emissive":[
					0.0,
					0.0,
					0.0
				],
				"Opacity":1.0,
				"Reflectivity":0.0,
				"Shininess":3.675213575363159,
				"Specular":[
					0.48717477917671204,
					0.48717477917671204,
					0.48717477917671204
				]
			},
			"name":"Beta_HighLimbsGeoSG3",
			"pbrMetallicRoughness":{
				"baseColorFactor":[
					0.8370000123977661,
					0.30230802297592163,
					0.26365500688552856,
					1
				],
				"metallicFactor":0,
				"roughnessFactor":0.8082915544509888
			}
		}
	],
	"meshes":[
		{
			"name":"Beta_Joints",
			"primitives":[
				{
					"attributes":{
						"POSITION":0,
						"NORMAL":1,
						"TEXCOORD_0":2,
						"TANGENT":3,
						"JOINTS_0":4,
						"WEIGHTS_0":5
					},
					"indices":6,
					"material":0
				}
			]
		},
		{
			"name":"Beta_Surface",
			"primitives":[
				{
					"attributes":{
						"POSITION":8,
						"NORMAL":9,
						"TEXCOORD_0":10,
						"TANGENT":11,
						"JOINTS_0":12,
						"WEIGHTS_0":13
					},
					"indices":14,
					"material":1
				}
			]
		}
	],
	"skins":[
		{
			"inverseBindMatrices":7,
			"joints":[
				64,
				53,
				52,
				51,
				2,
				1,
				0,
				26,
				25,
				24,
				23,
				6,
				5,
				4,
				3,
				10,
				9,
				8,
				7,
				14,
				13,
				12,
				11,
				18,
				17,
				16,
				15,
				22,
				21,
				20,
				19,
				50,
				49,
				48,
				47,
				30,
				29,
				28,
				27,
				34,
				33,
				32,
				31,
				38,
				37,
				36,
				35,
				42,
				41,
				40,
				39,
				46,
				45,
				44,
				43,
				58,
				57,
				56,
				55,
				54,
				63,
				62,
				61,
				60,
				59
			],
			"name":"Armature"
		}
	],
	"accessors":[
		{
			"bufferView":0,
			"componentType":5126,
			"count":12473,
			"max":[
				0.8834667205810547,
				1.5964422225952148,
				0.1250191628932953
			],
			"min":[
				-0.8834670782089233,
				-0.0003511548857204616,
				-0.12990522384643555
			],
			"type":"VEC3"
		},
		{
			"bufferView":1,
			"componentType":5126,
			"count":12473,
			"type":"VEC3"
		},
		{
			"bufferView":2,
			"componentType":5126,
			"count":12473,
			"type":"VEC2"
		},
		{
			"bufferView":3,
			"componentType":5126,
			"count":12473,
			"type":"VEC4"
		},
		{
			"bufferView":4,
			"componentType":5121,
			"count":12473,
			"type":"VEC4"
		},
		{
			"bufferView":5,
			"componentType":5126,
			"count":12473,
			"type":"VEC4"
		},
		{
			"bufferView":6,
			"componentType":5123,
			"count":62520,
			"type":"SCALAR"
		},
		{
			"bufferView":7,
			"componentType":5126,
			"count":65,
			"type":"MAT4"
		},
		{
			"bufferView":8,
			"componentType":5126,
			"count":15901,
			"max":[
				0.9025658369064331,
				1.8088831901550293,
				0.17174169421195984
			],
			"min":[
				-0.9025661945343018,
				-0.000321932282531634,
				-0.14895710349082947
			],
			"type":"VEC3"
		},
		{
			"bufferView":9,
			"componentType":5126,
			"count":15901,
			"type":"VEC3"
		},
		{
			"bufferView":10,
			"componentType":5126,
			"count":15901,
			"type":"VEC2"
		},
		{
			"bufferView":11,
			"componentType":5126,
			"count":15901,
			"type":"VEC4"
		},
		{
			"bufferView":12,
			"componentType":5121,
			"count":15901,
			"type":"VEC4"
		},
		{
			"bufferView":13,
			"componentType":5126,
			"count":15901,
			"type":"VEC4"
		},
		{
			"bufferView":14,
			"componentType":5123,
			"count":84816,
			"type":"SCALAR"
		},
		{
			"bufferView":15,
			"componentType":5126,
			"count":2,
			"max":[
				0.06666666666666667
			],
			"min":[
				0.03333333333333333
			],
			"type":"SCALAR"
		},
		{
			"bufferView":16,
			"componentType":5126,
			"count":2,
			"type":"VEC3"
		},
		{
			"bufferView":17,
			"componentType":5126,
			"count":2,
			"type":"VEC4"
		},
		{
			"bufferView":18,
			"componentType":5126,
			"count":2,
			"type":"VEC3"
		},
		{
			"bufferView":19,
			"componentType":5126,
			"count":2,
			"type":"VEC3"
		},
		{
			"bufferView":20,
			"componentType":5126,
			"count":2,
			"type":"VEC4"
		},
		{
			"bufferView":21,
			"componentType":5126,
			"count":2,
			"type":"VEC3"
		},
		{
			"bufferView":22,
			"componentType":5126,
			"count":2,
			"type":"VEC3"
		},
		{
			"bufferView":23,
			"componentType":5126,
			"count":2,
			"type":"VEC4"
		},
		{
			"bufferView":24,
			"componentType":5126,
			"count":2,
			"type":"VEC3"
		},
		{
			"bufferView":25,
			"componentType":5126,
			"count":2,
			"type":"VEC4"
		},
		{
			"bufferView":26,
			"componentType":5126,
			"count":2,
			"type":"VEC3"
		},
		{
			"bufferView":27,
			"componentType":5126,
			"count":2,
			"type":"VEC3"
		},
		{
			"bufferView":28,
			"componentType":5126,
			"count":2,
			"type":"VEC4"
		},
		{
			"bufferView":29,
			"componentType":5126,
			"count":2,
			"type":"VEC3"
		},
		{
			"bufferView":30,
			"componentType":5126,
			"count":2,
			"type":"VEC3"
		},
		{
			"bufferView":31,
			"componentType":5126,
			"count":2,
			"type":"VEC4"
		},
		{
			"bufferView":32,
			"componentType":5126,
			"count":2,
			"type":"VEC3"
		},
		{
			"bufferView":33,
			"componentType":5126,
			"count":2,
			"type":"VEC4"
		},
		{
			"bufferView":34,
			"componentType":5126,
			"count":2,
			"type":"VEC3"
		},
		{
			"bufferView":35,
			"componentType":5126,
			"count":2,
			"type":"VEC4"
		},
		{
			"bufferView":36,
			"componentType":5126,
			"count":2,
			"type":"VEC3"
		},
		{
			"bufferView":37,
			"componentType":5126,
			"count":2,
			"type":"VEC3"
		},
		{
			"bufferView":38,
			"componentType":5126,
			"count":2,
			"type":"VEC4"
		},
		{
			"bufferView":39,
			"componentType":5126,
			"count":2,
			"type":"VEC3"
		},
		{
			"bufferView":40,
			"componentType":5126,
			"count":2,
			"type":"VEC4"
		},
		{
			"bufferView":41,
			"componentType":5126,
			"count":2,
			"type":"VEC3"
		},
		{
			"bufferView":42,
			"componentType":5126,
			"count":2,
			"type":"VEC4"
		},
		{
			"bufferView":43,
			"componentType":5126,
			"count":2,
			"type":"VEC3"
		},
		{
			"bufferView":44,
			"componentType":5126,
			"count":2,
			"type":"VEC4"
		},
		{
			"bufferView":45,
			"componentType":5126,
			"count":2,
			"type":"VEC3"
		},
		{
			"bufferView":46,
			"componentType":5126,
			"count":2,
			"type":"VEC3"
		},
		{
			"bufferView":47,
			"componentType":5126,
			"count":2,
			"type":"VEC4"
		},
		{
			"bufferView":48,
			"componentType":5126,
			"count":2,
			"type":"VEC3"
		},
		{
			"bufferView":49,
			"componentType":5126,
			"count":2,
			"type":"VEC4"
		},
		{
			"bufferView":50,
			"componentType":5126,
			"count":2,
			"type":"VEC3"
		},
		{
			"bufferView":51,
			"componentType":5126,
			"count":2,
			"type":"VEC3"
		},
		{
			"bufferView":52,
			"componentType":5126,
			"count":2,
			"type":"VEC4"
		},
		{
			"bufferView":53,
			"componentType":5126,
			"count":2,
			"type":"VEC3"
		},
		{
			"bufferView":54,
			"componentType":5126,
			"count":2,
			"type":"VEC3"
		},
		{
			"bufferView":55,
			"componentType":5126,
			"count":2,
			"type":"VEC4"
		},
		{
			"bufferView":56,
			"componentType":5126,
			"count":2,
			"type":"VEC3"
		},
		{
			"bufferView":57,
			"componentType":5126,
			"count":2,
			"type":"VEC4"
		},
		{
			"bufferView":58,
			"componentType":5126,
			"count":2,
			"type":"VEC3"
		},
		{
			"bufferView":59,
			"componentType":5126,
			"count":2,
			"type":"VEC4"
		},
		{
			"bufferView":60,
			"componentType":5126,
			"count":2,
			"type":"VEC3"
		},
		{
			"bufferView":61,
			"componentType":5126,
			"count":2,
			"type":"VEC3"
		},
		{
			"bufferView":62,
			"componentType":5126,
			"count":2,
			"type":"VEC4"
		},
		{
			"bufferView":63,
			"componentType":5126,
			"count":2,
			"type":"VEC3"
		},
		{
			"bufferView":64,
			"componentType":5126,
			"count":2,
			"type":"VEC4"
		},
		{
			"bufferView":65,
			"componentType":5126,
			"count":2,
			"type":"VEC3"
		},
		{
			"bufferView":66,
			"componentType":5126,
			"count":2,
			"type":"VEC3"
		},
		{
			"bufferView":67,
			"componentType":5126,
			"count":2,
			"type":"VEC4"
		},
		{
			"bufferView":68,
			"componentType":5126,
			"count":2,
			"type":"VEC3"
		},
		{
			"bufferView":69,
			"componentType":5126,
			"count":2,
			"type":"VEC4"
		},
		{
			"bufferView":70,
			"componentType":5126,
			"count":2,
			"type":"VEC3"
		},
		{
			"bufferView":71,
			"componentType":5126,
			"count":2,
			"type":"VEC3"
		},
		{
			"bufferView":72,
			"componentType":5126,
			"count":2,
			"type":"VEC4"
		},
		{
			"bufferView":73,
			"componentType":5126,
			"count":2,
			"type":"VEC3"
		},
		{
			"bufferView":74,
			"componentType":5126,
			"count":2,
			"type":"VEC3"
		},
		{
			"bufferView":75,
			"componentType":5126,
			"count":2,
			"type":"VEC4"
		},
		{
			"bufferView":76,
			"componentType":5126,
			"count":2,
			"type":"VEC3"
		},
		{
			"bufferView":77,
			"componentType":5126,
			"count":2,
			"type":"VEC4"
		},
		{
			"bufferView":78,
			"componentType":5126,
			"count":2,
			"type":"VEC3"
		},
		{
			"bufferView":79,
			"componentType":5126,
			"count":2,
			"type":"VEC3"
		},
		{
			"bufferView":80,
			"componentType":5126,
			"count":2,
			"type":"VEC4"
		},
		{
			"bufferView":81,
			"componentType":5126,
			"count":2,
			"type":"VEC3"
		},
		{
			"bufferView":82,
			"componentType":5126,
			"count":2,
			"type":"VEC3"
		},
		{
			"bufferView":83,
			"componentType":5126,
			"count":2,
			"type":"VEC4"
		},
		{
			"bufferView":84,
			"componentType":5126,
			"count":2,
			"type":"VEC3"
		},
		{
			"bufferView":85,
			"componentType":5126,
			"count":2,
			"type":"VEC3"
		},
		{
			"bufferView":86,
			"componentType":5126,
			"count":2,
			"type":"VEC4"
		},
		{
			"bufferView":87,
			"componentType":5126,
			"count":2,
			"type":"VEC3"
		},
		{
			"bufferView":88,
			"componentType":5126,
			"count":2,
			"type":"VEC4"
		},
		{
			"bufferView":89,
			"componentType":5126,
			"count":2,
			"type":"VEC3"
		},
		{
			"bufferView":90,
			"componentType":5126,
			"count":2,
			"type":"VEC3"
		},
		{
			"bufferView":91,
			"componentType":5126,
			"count":2,
			"type":"VEC4"
		},
		{
			"bufferView":92,
			"componentType":5126,
			"count":2,
			"type":"VEC3"
		},
		{
			"bufferView":93,
			"componentType":5126,
			"count":2,
			"type":"VEC4"
		},
		{
			"bufferView":94,
			"componentType":5126,
			"count":2,
			"type":"VEC3"
		},
		{
			"bufferView":95,
			"componentType":5126,
			"count":2,
			"type":"VEC3"
		},
		{
			"bufferView":96,
			"componentType":5126,
			"count":2,
			"type":"VEC4"
		},
		{
			"bufferView":97,
			"componentType":5126,
			"count":2,
			"type":"VEC3"
		},
		{
			"bufferView":98,
			"componentType":5126,
			"count":2,
			"type":"VEC3"
		},
		{
			"bufferView":99,
			"componentType":5126,
			"count":2,
			"type":"VEC4"
		},
		{
			"bufferView":100,
			"componentType":5126,
			"count":2,
			"type":"VEC3"
		},
		{
			"bufferView":101,
			"componentType":5126,
			"count":2,
			"type":"VEC3"
		},
		{
			"bufferView":102,
			"componentType":5126,
			"count":2,
			"type":"VEC4"
		},
		{
			"bufferView":103,
			"componentType":5126,
			"count":2,
			"type":"VEC3"
		},
		{
			"bufferView":104,
			"componentType":5126,
			"count":2,
			"type":"VEC4"
		},
		{
			"bufferView":105,
			"componentType":5126,
			"count":2,
			"type":"VEC3"
		},
		{
			"bufferView":106,
			"componentType":5126,
			"count":2,
			"type":"VEC3"
		},
		{
			"bufferView":107,
			"componentType":5126,
			"count":2,
			"type":"VEC4"
		},
		{
			"bufferView":108,
			"componentType":5126,
			"count":2,
			"type":"VEC3"
		},
		{
			"bufferView":109,
			"componentType":5126,
			"count":2,
			"type":"VEC3"
		},
		{
			"bufferView":110,
			"componentType":5126,
			"count":2,
			"type":"VEC4"
		},
		{
			"bufferView":111,
			"componentType":5126,
			"count":2,
			"type":"VEC3"
		},
		{
			"bufferView":112,
			"componentType":5126,
			"count":2,
			"type":"VEC3"
		},
		{
			"bufferView":113,
			"componentType":5126,
			"count":2,
			"type":"VEC4"
		},
		{
			"bufferView":114,
			"componentType":5126,
			"count":2,
			"type":"VEC3"
		},
		{
			"bufferView":115,
			"componentType":5126,
			"count":2,
			"type":"VEC3"
		},
		{
			"bufferView":116,
			"componentType":5126,
			"count":2,
			"type":"VEC4"
		},
		{
			"bufferView":117,
			"componentType":5126,
			"count":2,
			"type":"VEC3"
		},
		{
			"bufferView":118,
			"componentType":5126,
			"count":2,
			"type":"VEC3"
		},
		{
			"bufferView":119,
			"componentType":5126,
			"count":2,
			"type":"VEC4"
		},
		{
			"bufferView":120,
			"componentType":5126,
			"count":2,
			"type":"VEC3"
		},
		{
			"bufferView":121,
			"componentType":5126,
			"count":2,
			"type":"VEC4"
		},
		{
			"bufferView":122,
			"componentType":5126,
			"count":2,
			"type":"VEC3"
		},
		{
			"bufferView":123,
			"componentType":5126,
			"count":2,
			"type":"VEC4"
		},
		{
			"bufferView":124,
			"componentType":5126,
			"count":2,
			"type":"VEC3"
		},
		{
			"bufferView":125,
			"componentType":5126,
			"count":2,
			"type":"VEC4"
		},
		{
			"bufferView":126,
			"componentType":5126,
			"count":2,
			"type":"VEC3"
		},
		{
			"bufferView":127,
			"componentType":5126,
			"count":2,
			"type":"VEC4"
		},
		{
			"bufferView":128,
			"componentType":5126,
			"count":2,
			"type":"VEC3"
		},
		{
			"bufferView":129,
			"componentType":5126,
			"count":2,
			"type":"VEC4"
		},
		{
			"bufferView":130,
			"componentType":5126,
			"count":2,
			"type":"VEC3"
		},
		{
			"bufferView":131,
			"componentType":5126,
			"count":2,
			"type":"VEC4"
		},
		{
			"bufferView":132,
			"componentType":5126,
			"count":2,
			"type":"VEC3"
		},
		{
			"bufferView":133,
			"componentType":5126,
			"count":2,
			"type":"VEC4"
		},
		{
			"bufferView":134,
			"componentType":5126,
			"count":2,
			"type":"VEC3"
		},
		{
			"bufferView":135,
			"componentType":5126,
			"count":2,
			"type":"VEC4"
		},
		{
			"bufferView":136,
			"componentType":5126,
			"count":2,
			"type":"VEC3"
		},
		{
			"bufferView":137,
			"componentType":5126,
			"count":2,
			"type":"VEC4"
		},
		{
			"bufferView":138,
			"componentType":5126,
			"count":2,
			"type":"VEC3"
		},
		{
			"bufferView":139,
			"componentType":5126,
			"count":2,
			"type":"VEC4"
		},
		{
			"bufferView":140,
			"componentType":5126,
			"count":2,
			"type":"VEC3"
		},
		{
			"bufferView":141,
			"componentType":5126,
			"count":2,
			"type":"VEC4"
		},
		{
			"bufferView":142,
			"componentType":5126,
			"count":2,
			"type":"VEC3"
		},
		{
			"bufferView":143,
			"componentType":5126,
			"count":2,
			"type":"VEC4"
		},
		{
			"bufferView":144,
			"componentType":5126,
			"count":2,
			"type":"VEC3"
		},
		{
			"bufferView":145,
			"componentType":5126,
			"count":2,
			"type":"VEC4"
		},
		{
			"bufferView":146,
			"componentType":5126,
			"count":2,
			"type":"VEC3"
		},
		{
			"bufferView":147,
			"componentType":5126,
			"count":2,
			"type":"VEC4"
		},
		{
			"bufferView":148,
			"componentType":5126,
			"count":2,
			"type":"VEC3"
		},
		{
			"bufferView":149,
			"componentType":5126,
			"count":2,
			"type":"VEC4"
		},
		{
			"bufferView":150,
			"componentType":5126,
			"count":2,
			"type":"VEC3"
		},
		{
			"bufferView":151,
			"componentType":5126,
			"count":2,
			"type":"VEC3"
		},
		{
			"bufferView":152,
			"componentType":5126,
			"count":2,
			"type":"VEC4"
		},
		{
			"bufferView":153,
			"componentType":5126,
			"count":2,
			"type":"VEC3"
		},
		{
			"bufferView":154,
			"componentType":5126,
			"count":2,
			"type":"VEC4"
		},
		{
			"bufferView":155,
			"componentType":5126,
			"count":2,
			"type":"VEC3"
		},
		{
			"bufferView":156,
			"componentType":5126,
			"count":2,
			"type":"VEC3"
		},
		{
			"bufferView":157,
			"componentType":5126,
			"count":2,
			"type":"VEC4"
		},
		{
			"bufferView":158,
			"componentType":5126,
			"count":2,
			"type":"VEC3"
		},
		{
			"bufferView":159,
			"componentType":5126,
			"count":2,
			"type":"VEC4"
		},
		{
			"bufferView":160,
			"componentType":5126,
			"count":2,
			"type":"VEC3"
		},
		{
			"bufferView":161,
			"componentType":5126,
			"count":2,
			"type":"VEC4"
		},
		{
			"bufferView":162,
			"componentType":5126,
			"count":2,
			"type":"VEC3"
		},
		{
			"bufferView":163,
			"componentType":5126,
			"count":2,
			"type":"VEC4"
		},
		{
			"bufferView":164,
			"componentType":5126,
			"count":2,
			"type":"VEC3"
		},
		{
			"bufferView":165,
			"componentType":5126,
			"count":2,
			"type":"VEC3"
		},
		{
			"bufferView":166,
			"componentType":5126,
			"count":2,
			"type":"VEC4"
		},
		{
			"bufferView":167,
			"componentType":5126,
			"count":2,
			"type":"VEC3"
		},
		{
			"bufferView":168,
			"componentType":5126,
			"count":2,
			"type":"VEC3"
		},
		{
			"bufferView":169,
			"componentType":5126,
			"count":2,
			"type":"VEC4"
		},
		{
			"bufferView":170,
			"componentType":5126,
			"count":2,
			"type":"VEC3"
		},
		{
			"bufferView":171,
			"componentType":5126,
			"count":2,
			"type":"VEC3"
		},
		{
			"bufferView":172,
			"componentType":5126,
			"count":2,
			"type":"VEC4"
		},
		{
			"bufferView":173,
			"componentType":5126,
			"count":2,
			"type":"VEC3"
		},
		{
			"bufferView":174,
			"componentType":5126,
			"count":2,
			"type":"VEC4"
		}
	],
	"bufferViews":[
		{
			"buffer":0,
			"byteLength":149676,
			"byteOffset":0,
			"target":34962
		},
		{
			"buffer":0,
			"byteLength":149676,
			"byteOffset":149676,
			"target":34962
		},
		{
			"buffer":0,
			"byteLength":99784,
			"byteOffset":299352,
			"target":34962
		},
		{
			"buffer":0,
			"byteLength":199568,
			"byteOffset":399136,
			"target":34962
		},
		{
			"buffer":0,
			"byteLength":49892,
			"byteOffset":598704,
			"target":34962
		},
		{
			"buffer":0,
			"byteLength":199568,
			"byteOffset":648596,
			"target":34962
		},
		{
			"buffer":0,
			"byteLength":125040,
			"byteOffset":848164,
			"target":34963
		},
		{
			"buffer":0,
			"byteLength":4160,
			"byteOffset":973204
		},
		{
			"buffer":0,
			"byteLength":190812,
			"byteOffset":977364,
			"target":34962
		},
		{
			"buffer":0,
			"byteLength":190812,
			"byteOffset":1168176,
			"target":34962
		},
		{
			"buffer":0,
			"byteLength":127208,
			"byteOffset":1358988,
			"target":34962
		},
		{
			"buffer":0,
			"byteLength":254416,
			"byteOffset":1486196,
			"target":34962
		},
		{
			"buffer":0,
			"byteLength":63604,
			"byteOffset":1740612,
			"target":34962
		},
		{
			"buffer":0,
			"byteLength":254416,
			"byteOffset":1804216,
			"target":34962
		},
		{
			"buffer":0,
			"byteLength":169632,
			"byteOffset":2058632,
			"target":34963
		},
		{
			"buffer":0,
			"byteLength":8,
			"byteOffset":2228264
		},
		{
			"buffer":0,
			"byteLength":24,
			"byteOffset":2228272
		},
		{
			"buffer":0,
			"byteLength":32,
			"byteOffset":2228296
		},
		{
			"buffer":0,
			"byteLength":24,
			"byteOffset":2228328
		},
		{
			"buffer":0,
			"byteLength":24,
			"byteOffset":2228352
		},
		{
			"buffer":0,
			"byteLength":32,
			"byteOffset":2228376
		},
		{
			"buffer":0,
			"byteLength":24,
			"byteOffset":2228408
		},
		{
			"buffer":0,
			"byteLength":24,
			"byteOffset":2228432
		},
		{
			"buffer":0,
			"byteLength":32,
			"byteOffset":2228456
		},
		{
			"buffer":0,
			"byteLength":24,
			"byteOffset":2228488
		},
		{
			"buffer":0,
			"byteLength":32,
			"byteOffset":2228512
		},
		{
			"buffer":0,
			"byteLength":24,
			"byteOffset":2228544
		},
		{
			"buffer":0,
			"byteLength":24,
			"byteOffset":2228568
		},
		{
			"buffer":0,
			"byteLength":32,
			"byteOffset":2228592
		},
		{
			"buffer":0,
			"byteLength":24,
			"byteOffset":2228624
		},
		{
			"buffer":0,
			"byteLength":24,
			"byteOffset":2228648
		},
		{
			"buffer":0,
			"byteLength":32,
			"byteOffset":2228672
		},
		{
			"buffer":0,
			"byteLength":24,
			"byteOffset":2228704
		},
		{
			"buffer":0,
			"byteLength":32,
			"byteOffset":2228728
		},
		{
			"buffer":0,
			"byteLength":24,
			"byteOffset":2228760
		},
		{
			"buffer":0,
			"byteLength":32,
			"byteOffset":2228784
		},
		{
			"buffer":0,
			"byteLength":24,
			"byteOffset":2228816
		},
		{
			"buffer":0,
			"byteLength":24,
			"byteOffset":2228840
		},
		{
			"buffer":0,
			"byteLength":32,
			"byteOffset":2228864
		},
		{
			"buffer":0,
			"byteLength":24,
			"byteOffset":2228896
		},
		{
			"buffer":0,
			"byteLength":32,
			"byteOffset":2228920
		},
		{
			"buffer":0,
			"byteLength":24,
			"byteOffset":2228952
		},
		{
			"buffer":0,
			"byteLength":32,
			"byteOffset":2228976
		},
		{
			"buffer":0,
			"byteLength":24,
			"byteOffset":2229008
		},
		{
			"buffer":0,
			"byteLength":32,
			"byteOffset":2229032
		},
		{
			"buffer":0,
			"byteLength":24,
			"byteOffset":2229064
		},
		{
			"buffer":0,
			"byteLength":24,
			"byteOffset":2229088
		},
		{
			"buffer":0,
			"byteLength":32,
			"byteOffset":2229112
		},
		{
			"buffer":0,
			"byteLength":24,
			"byteOffset":2229144
		},
		{
			"buffer":0,
			"byteLength":32,
			"byteOffset":2229168
		},
		{
			"buffer":0,
			"byteLength":24,
			"byteOffset":2229200
		},
		{
			"buffer":0,
			"byteLength":24,
			"byteOffset":2229224
		},
		{
			"buffer":0,
			"byteLength":32,
			"byteOffset":2229248
		},
		{
			"buffer":0,
			"byteLength":24,
			"byteOffset":2229280
		},
		{
			"buffer":0,
			"byteLength":24,
			"byteOffset":2229304
		},
		{
			"buffer":0,
			"byteLength":32,
			"byteOffset":2229328
		},
		{
			"buffer":0,
			"byteLength":24,
			"byteOffset":2229360
		},
		{
			"buffer":0,
			"byteLength":32,
			"byteOffset":2229384
		},
		{
			"buffer":0,
			"byteLength":24,
			"byteOffset":2229416
		},
		{
			"buffer":0,
			"byteLength":32,
			"byteOffset":2229440
		},
		{
			"buffer":0,
			"byteLength":24,
			"byteOffset":2229472
		},
		{
			"buffer":0,
			"byteLength":24,
			"byteOffset":2229496
		},
		{
			"buffer":0,
			"byteLength":32,
			"byteOffset":2229520
		},
		{
			"buffer":0,
			"byteLength":24,
			"byteOffset":2229552
		},
		{
			"buffer":0,
			"byteLength":32,
			"byteOffset":2229576
		},
		{
			"buffer":0,
			"byteLength":24,
			"byteOffset":2229608
		},
		{
			"buffer":0,
			"byteLength":24,
			"byteOffset":2229632
		},
		{
			"buffer":0,
			"byteLength":32,
			"byteOffset":2229656
		},
		{
			"buffer":0,
			"byteLength":24,
			"byteOffset":2229688
		},
		{
			"buffer":0,
			"byteLength":32,
			"byteOffset":2229712
		},
		{
			"buffer":0,
			"byteLength":24,
			"byteOffset":2229744
		},
		{
			"buffer":0,
			"byteLength":24,
			"byteOffset":2229768
		},
		{
			"buffer":0,
			"byteLength":32,
			"byteOffset":2229792
		},
		{
			"buffer":0,
			"byteLength":24,
			"byteOffset":2229824
		},
		{
			"buffer":0,
			"byteLength":24,
			"byteOffset":2229848
		},
		{
			"buffer":0,
			"byteLength":32,
			"byteOffset":2229872
		},
		{
			"buffer":0,
			"byteLength":24,
			"byteOffset":2229904
		},
		{
			"buffer":0,
			"byteLength":32,
			"byteOffset":2229928
		},
		{
			"buffer":0,
			"byteLength":24,
			"byteOffset":2229960
		},
		{
			"buffer":0,
			"byteLength":24,
			"byteOffset":2229984
		},
		{
			"buffer":0,
			"byteLength":32,
			"byteOffset":2230008
		},
		{
			"buffer":0,
			"byteLength":24,
			"byteOffset":2230040
		},
		{
			"buffer":0,
			"byteLength":24,
			"byteOffset":2230064
		},
		{
			"buffer":0,
			"byteLength":32,
			"byteOffset":2230088
		},
		{
			"buffer":0,
			"byteLength":24,
			"byteOffset":2230120
		},
		{
			"buffer":0,
			"byteLength":24,
			"byteOffset":2230144
		},
		{
			"buffer":0,
			"byteLength":32,
			"byteOffset":2230168
		},
		{
			"buffer":0,
			"byteLength":24,
			"byteOffset":2230200
		},
		{
			"buffer":0,
			"byteLength":32,
			"byteOffset":2230224
		},
		{
			"buffer":0,
			"byteLength":24,
			"byteOffset":2230256
		},
		{
			"buffer":0,
			"byteLength":24,
			"byteOffset":2230280
		},
		{
			"buffer":0,
			"byteLength":32,
			"byteOffset":2230304
		},
		{
			"buffer":0,
			"byteLength":24,
			"byteOffset":2230336
		},
		{
			"buffer":0,
			"byteLength":32,
			"byteOffset":2230360
		},
		{
			"buffer":0,
			"byteLength":24,
			"byteOffset":2230392
		},
		{
			"buffer":0,
			"byteLength":24,
			"byteOffset":2230416
		},
		{
			"buffer":0,
			"byteLength":32,
			"byteOffset":2230440
		},
		{
			"buffer":0,
			"byteLength":24,
			"byteOffset":2230472
		},
		{
			"buffer":0,
			"byteLength":24,
			"byteOffset":2230496
		},
		{
			"buffer":0,
			"byteLength":32,
			"byteOffset":2230520
		},
		{
			"buffer":0,
			"byteLength":24,
			"byteOffset":2230552
		},
		{
			"buffer":0,
			"byteLength":24,
			"byteOffset":2230576
		},
		{
			"buffer":0,
			"byteLength":32,
			"byteOffset":2230600
		},
		{
			"buffer":0,
			"byteLength":24,
			"byteOffset":2230632
		},
		{
			"buffer":0,
			"byteLength":32,
			"byteOffset":2230656
		},
		{
			"buffer":0,
			"byteLength":24,
			"byteOffset":2230688
		},
		{
			"buffer":0,
			"byteLength":24,
			"byteOffset":2230712
		},
		{
			"buffer":0,
			"byteLength":32,
			"byteOffset":2230736
		},
		{
			"buffer":0,
			"byteLength":24,
			"byteOffset":2230768
		},
		{
			"buffer":0,
			"byteLength":24,
			"byteOffset":2230792
		},
		{
			"buffer":0,
			"byteLength":32,
			"byteOffset":2230816
		},
		{
			"buffer":0,
			"byteLength":24,
			"byteOffset":2230848
		},
		{
			"buffer":0,
			"byteLength":24,
			"byteOffset":2230872
		},
		{
			"buffer":0,
			"byteLength":32,
			"byteOffset":2230896
		},
		{
			"buffer":0,
			"byteLength":24,
			"byteOffset":2230928
		},
		{
			"buffer":0,
			"byteLength":24,
			"byteOffset":2230952
		},
		{
			"buffer":0,
			"byteLength":32,
			"byteOffset":2230976
		},
		{
			"buffer":0,
			"byteLength":24,
			"byteOffset":2231008
		},
		{
			"buffer":0,
			"byteLength":24,
			"byteOffset":2231032
		},
		{
			"buffer":0,
			"byteLength":32,
			"byteOffset":2231056
		},
		{
			"buffer":0,
			"byteLength":24,
			"byteOffset":2231088
		},
		{
			"buffer":0,
			"byteLength":32,
			"byteOffset":2231112
		},
		{
			"buffer":0,
			"byteLength":24,
			"byteOffset":2231144
		},
		{
			"buffer":0,
			"byteLength":32,
			"byteOffset":2231168
		},
		{
			"buffer":0,
			"byteLength":24,
			"byteOffset":2231200
		},
		{
			"buffer":0,
			"byteLength":32,
			"byteOffset":2231224
		},
		{
			"buffer":0,
			"byteLength":24,
			"byteOffset":2231256
		},
		{
			"buffer":0,
			"byteLength":32,
			"byteOffset":2231280
		},
		{
			"buffer":0,
			"byteLength":24,
			"byteOffset":2231312
		},
		{
			"buffer":0,
			"byteLength":32,
			"byteOffset":2231336
		},
		{
			"buffer":0,
			"byteLength":24,
			"byteOffset":2231368
		},
		{
			"buffer":0,
			"byteLength":32,
			"byteOffset":2231392
		},
		{
			"buffer":0,
			"byteLength":24,
			"byteOffset":2231424
		},
		{
			"buffer":0,
			"byteLength":32,
			"byteOffset":2231448
		},
		{
			"buffer":0,
			"byteLength":24,
			"byteOffset":2231480
		},
		{
			"buffer":0,
			"byteLength":32,
			"byteOffset":2231504
		},
		{
			"buffer":0,
			"byteLength":24,
			"byteOffset":2231536
		},
		{
			"buffer":0,
			"byteLength":32,
			"byteOffset":2231560
		},
		{
			"buffer":0,
			"byteLength":24,
			"byteOffset":2231592
		},
		{
			"buffer":0,
			"byteLength":32,
			"byteOffset":2231616
		},
		{
			"buffer":0,
			"byteLength":24,
			"byteOffset":2231648
		},
		{
			"buffer":0,
			"byteLength":32,
			"byteOffset":2231672
		},
		{
			"buffer":0,
			"byteLength":24,
			"byteOffset":2231704
		},
		{
			"buffer":0,
			"byteLength":32,
			"byteOffset":2231728
		},
		{
			"buffer":0,
			"byteLength":24,
			"byteOffset":2231760
		},
		{
			"buffer":0,
			"byteLength":32,
			"byteOffset":2231784
		},
		{
			"buffer":0,
			"byteLength":24,
			"byteOffset":2231816
		},
		{
			"buffer":0,
			"byteLength":32,
			"byteOffset":2231840
		},
		{
			"buffer":0,
			"byteLength":24,
			"byteOffset":2231872
		},
		{
			"buffer":0,
			"byteLength":32,
			"byteOffset":2231896
		},
		{
			"buffer":0,
			"byteLength":24,
			"byteOffset":2231928
		},
		{
			"buffer":0,
			"byteLength":24,
			"byteOffset":2231952
		},
		{
			"buffer":0,
			"byteLength":32,
			"byteOffset":2231976
		},
		{
			"buffer":0,
			"byteLength":24,
			"byteOffset":2232008
		},
		{
			"buffer":0,
			"byteLength":32,
			"byteOffset":2232032
		},
		{
			"buffer":0,
			"byteLength":24,
			"byteOffset":2232064
		},
		{
			"buffer":0,
			"byteLength":24,
			"byteOffset":2232088
		},
		{
			"buffer":0,
			"byteLength":32,
			"byteOffset":2232112
		},
		{
			"buffer":0,
			"byteLength":24,
			"byteOffset":2232144
		},
		{
			"buffer":0,
			"byteLength":32,
			"byteOffset":2232168
		},
		{
			"buffer":0,
			"byteLength":24,
			"byteOffset":2232200
		},
		{
			"buffer":0,
			"byteLength":32,
			"byteOffset":2232224
		},
		{
			"buffer":0,
			"byteLength":24,
			"byteOffset":2232256
		},
		{
			"buffer":0,
			"byteLength":32,
			"byteOffset":2232280
		},
		{
			"buffer":0,
			"byteLength":24,
			"byteOffset":2232312
		},
		{
			"buffer":0,
			"byteLength":24,
			"byteOffset":2232336
		},
		{
			"buffer":0,
			"byteLength":32,
			"byteOffset":2232360
		},
		{
			"buffer":0,
			"byteLength":24,
			"byteOffset":2232392
		},
		{
			"buffer":0,
			"byteLength":24,
			"byteOffset":2232416
		},
		{
			"buffer":0,
			"byteLength":32,
			"byteOffset":2232440
		},
		{
			"buffer":0,
			"byteLength":24,
			"byteOffset":2232472
		},
		{
			"buffer":0,
			"byteLength":24,
			"byteOffset":2232496
		},
		{
			"buffer":0,
			"byteLength":32,
			"byteOffset":2232520
		},
		{
			"buffer":0,
			"byteLength":24,
			"byteOffset":2232552
		},
		{
			"buffer":0,
			"byteLength":32,
			"byteOffset":2232576
		}
	],
	"buffers":[
		{
			"byteLength":2232608,
			"uri":"XBot.bin"
		}
	]
}
