{
	"asset":{
		"generator":"Khronos glTF Blender I/O v5.0.21",
		"version":"2.0"
	},
	"extensionsUsed":[
		"KHR_materials_specular"
	],
	"scene":0,
	"scenes":[
		{
			"name":"Scene",
			"nodes":[
				69
			]
		}
	],
	"nodes":[
		{
			"name":"mixamorig:HeadTop_End",
			"rotation":[
				1.7763566276420137e-15,
				-1.2009963268158413e-19,
				1.3732988238924612e-19,
				1
			],
			"scale":[
				1,
				1.0000001192092896,
				1
			],
			"translation":[
				-2.0489096641540527e-08,
				17.783035278320312,
				3.8035595417022705
			]
		},
		{
			"name":"mixamorig:RightEye",
			"rotation":[
				0.7071067690849304,
				-5.985191337923875e-20,
				5.008724399591545e-19,
				0.7071067690849304
			],
			"scale":[
				1,
				1,
				1.0000001192092896
			],
			"translation":[
				-3.2933454513549805,
				4.765883922576904,
				6.339263916015625
			]
		},
		{
			"children":[
				0,
				1
			],
			"name":"mixamorig:Head",
			"rotation":[
				1.7763566276420137e-15,
				2.051610190640672e-19,
				1.5907680988441752e-12,
				1
			],
			"scale":[
				1,
				1.0000001192092896,
				1
			],
			"translation":[
				-5.916980794218318e-10,
				10.037078857421875,
				3.529531240463257
			]
		},
		{
			"children":[
				2
			],
			"name":"mixamorig:Neck",
			"rotation":[
				-1.7763570511584873e-15,
				3.637978373410844e-12,
				-1.5902118176389195e-19,
				1
			],
			"scale":[
				1,
				0.9999998807907104,
				1
			],
			"translation":[
				-0.005980505142360926,
				23.723556518554688,
				-1.446179986000061
			]
		},
		{
			"name":"mixamorig:LeftHandThumb4",
			"rotation":[
				-9.313225746154785e-09,
				2.9802322387695312e-08,
				9.709038550909099e-08,
				1
			],
			"scale":[
				1,
				0.9999999403953552,
				1
			],
			"translation":[
				1.1920928955078125e-06,
				3.9072985649108887,
				9.059906005859375e-06
			]
		},
		{
			"children":[
				4
			],
			"name":"mixamorig:LeftHandThumb3",
			"rotation":[
				-5.999580025672913e-06,
				1.4901162970204496e-08,
				2.3168977349996567e-06,
				1
			],
			"scale":[
				0.9999999403953552,
				1.0000001192092896,
				0.9999999403953552
			],
			"translation":[
				-4.291534423828125e-06,
				3.636415958404541,
				-2.5138258934020996e-05
			]
		},
		{
			"children":[
				5
			],
			"name":"mixamorig:LeftHandThumb2",
			"rotation":[
				3.5520636174624087e-06,
				-7.175839300543885e-07,
				-2.74134754363331e-06,
				1
			],
			"scale":[
				1.0000001192092896,
				1.000000238418579,
				1.0000001192092896
			],
			"translation":[
				3.3974647521972656e-06,
				4.523168087005615,
				-1.4737248420715332e-05
			]
		},
		{
			"children":[
				6
			],
			"name":"mixamorig:LeftHandThumb1",
			"rotation":[
				0.21862885355949402,
				0.07168255746364594,
				0.25475746393203735,
				0.9392346143722534
			],
			"scale":[
				1,
				0.9999998807907104,
				1
			],
			"translation":[
				-2.604358673095703,
				4.344876289367676,
				2.566840887069702
			]
		},
		{
			"name":"mixamorig:LeftHandIndex4",
			"rotation":[
				1.3418570421475096e-10,
				-3.7410221587208525e-09,
				-5.121257196094575e-09,
				1
			],
			"scale":[
				0.9999999403953552,
				0.9999999403953552,
				0.9999998807907104
			],
			"translation":[
				2.4910696083679795e-07,
				2.9816877841949463,
				-3.371977527422132e-06
			]
		},
		{
			"children":[
				8
			],
			"name":"mixamorig:LeftHandIndex3",
			"rotation":[
				6.557490905834129e-07,
				-3.657704539250517e-08,
				6.165355898701819e-06,
				1
			],
			"translation":[
				-2.2750464268028736e-07,
				2.907188653945923,
				5.26112944498891e-06
			]
		},
		{
			"children":[
				9
			],
			"name":"mixamorig:LeftHandIndex2",
			"rotation":[
				8.297861882056168e-07,
				-3.776512613740124e-08,
				2.4023470359679777e-06,
				1
			],
			"scale":[
				1,
				0.9999999403953552,
				1
			],
			"translation":[
				-1.2667442206293344e-07,
				4.50912618637085,
				-2.078836587315891e-06
			]
		},
		{
			"children":[
				10
			],
			"name":"mixamorig:LeftHandIndex1",
			"rotation":[
				-4.692627953772899e-06,
				6.138849073522579e-08,
				6.612395964111784e-07,
				1
			],
			"translation":[
				-3.4024198055267334,
				12.111589431762695,
				0.3158907890319824
			]
		},
		{
			"name":"mixamorig:LeftHandMiddle4",
			"rotation":[
				7.125469658753047e-11,
				-2.7951676528914504e-08,
				-2.7008027814190427e-08,
				1
			],
			"scale":[
				1.0000001192092896,
				1,
				1
			],
			"translation":[
				-6.365735316649079e-08,
				4.715563774108887,
				2.4063159798970446e-05
			]
		},
		{
			"children":[
				12
			],
			"name":"mixamorig:LeftHandMiddle3",
			"rotation":[
				5.901963959331624e-06,
				-1.262910132027173e-07,
				1.1615919902396854e-05,
				1
			],
			"scale":[
				1.0000001192092896,
				1,
				1
			],
			"translation":[
				-1.9164872355759144e-07,
				2.832521677017212,
				-2.0613379092537798e-05
			]
		},
		{
			"children":[
				13
			],
			"name":"mixamorig:LeftHandMiddle2",
			"rotation":[
				-1.0075483260152396e-05,
				4.908429218630772e-08,
				-2.4866534431566834e-07,
				1
			],
			"scale":[
				1.0000001192092896,
				1,
				1
			],
			"translation":[
				-7.838389137759805e-07,
				3.620236396789551,
				-1.5742181858513504e-05
			]
		},
		{
			"children":[
				14
			],
			"name":"mixamorig:LeftHandMiddle1",
			"rotation":[
				5.5209407037182245e-06,
				-1.3386198816078831e-09,
				-6.199345989443827e-06,
				1
			],
			"translation":[
				-1.4443343388848007e-05,
				13.093844413757324,
				-1.0858940186153632e-05
			]
		},
		{
			"name":"mixamorig:LeftHandRing4",
			"rotation":[
				6.092626837067572e-12,
				-4.796163466380676e-14,
				4.665123287672657e-10,
				1
			],
			"scale":[
				1,
				0.9999999403953552,
				1
			],
			"translation":[
				-7.07579602021724e-07,
				3.1206536293029785,
				-2.9830932817276334e-06
			]
		},
		{
			"children":[
				16
			],
			"name":"mixamorig:LeftHandRing3",
			"rotation":[
				7.090056897141039e-06,
				4.800757569256575e-09,
				1.1330474080750719e-05,
				1
			],
			"scale":[
				0.9999999403953552,
				0.9999999403953552,
				0.9999998807907104
			],
			"translation":[
				-9.547511581331491e-08,
				3.435553789138794,
				-1.513393272034591e-05
			]
		},
		{
			"children":[
				17
			],
			"name":"mixamorig:LeftHandRing2",
			"rotation":[
				-8.458669981337152e-06,
				-1.5691929888816958e-07,
				-1.538731885375455e-05,
				1
			],
			"scale":[
				0.9999998807907104,
				0.9999998807907104,
				0.9999998807907104
			],
			"translation":[
				8.511415217071772e-07,
				2.9360382556915283,
				-1.4907497643434908e-05
			]
		},
		{
			"children":[
				18
			],
			"name":"mixamorig:LeftHandRing1",
			"rotation":[
				4.190585968899541e-06,
				3.9511789395874075e-08,
				7.999133231351152e-06,
				1
			],
			"scale":[
				1,
				0.9999999403953552,
				1
			],
			"translation":[
				3.5231075286865234,
				12.918795585632324,
				-0.01586960442364216
			]
		},
		{
			"name":"mixamorig:LeftHandPinky4",
			"rotation":[
				1.450839665420589e-12,
				4.97379948913388e-14,
				4.669940545376505e-10,
				1
			],
			"scale":[
				0.9999999403953552,
				0.9999998211860657,
				1
			],
			"translation":[
				-1.9888830138370395e-07,
				2.9789037704467773,
				-1.1255271601839922e-05
			]
		},
		{
			"children":[
				20
			],
			"name":"mixamorig:LeftHandPinky3",
			"rotation":[
				-8.65992478793487e-06,
				-4.710809520247494e-08,
				1.3131302978308668e-07,
				1
			],
			"scale":[
				0.9999999403953552,
				0.9999998211860657,
				1
			],
			"translation":[
				2.806482370942831e-06,
				2.073793411254883,
				2.168900755350478e-05
			]
		},
		{
			"children":[
				21
			],
			"name":"mixamorig:LeftHandPinky2",
			"rotation":[
				-4.94127220918017e-07,
				1.036172250223899e-07,
				-5.5410666277566634e-08,
				1
			],
			"scale":[
				0.9999999403953552,
				0.9999999403953552,
				1
			],
			"translation":[
				-2.157998096663505e-06,
				2.474736452102661,
				2.3948668967932463e-06
			]
		},
		{
			"children":[
				22
			],
			"name":"mixamorig:LeftHandPinky1",
			"rotation":[
				8.008320833141624e-07,
				-9.034058479073792e-08,
				5.97303642280167e-06,
				1
			],
			"translation":[
				6.518365859985352,
				11.479272842407227,
				0.31614550948143005
			]
		},
		{
			"children":[
				7,
				11,
				15,
				19,
				23
			],
			"name":"mixamorig:LeftHand",
			"rotation":[
				1.8233546938972722e-07,
				-6.926808460150369e-09,
				-8.38100433497857e-09,
				1
			],
			"translation":[
				2.034357748925686e-08,
				26.71312713623047,
				1.2112840522604529e-05
			]
		},
		{
			"children":[
				24
			],
			"name":"mixamorig:LeftForeArm",
			"rotation":[
				-4.687035470851697e-07,
				4.1222154578690606e-08,
				0.008725903928279877,
				0.9999619722366333
			],
			"scale":[
				0.9999999403953552,
				0.9999998211860657,
				1
			],
			"translation":[
				4.638422979041934e-11,
				30.736644744873047,
				-2.314674566150643e-05
			]
		},
		{
			"children":[
				25
			],
			"name":"mixamorig:LeftArm",
			"rotation":[
				-0.2329927682876587,
				-0.0024818885140120983,
				0.01036013476550579,
				0.9724200963973999
			],
			"scale":[
				1,
				1,
				1.0000001192092896
			],
			"translation":[
				2.980232238769531e-07,
				12.686777114868164,
				-7.60265220378642e-06
			]
		},
		{
			"children":[
				26
			],
			"name":"mixamorig:LeftShoulder",
			"rotation":[
				0.5987594723701477,
				0.37614768743515015,
				-0.6066370606422424,
				0.36330634355545044
			],
			"translation":[
				11.304902076721191,
				19.886032104492188,
				-3.9660067558288574
			]
		},
		{
			"name":"mixamorig:RightHandThumb4",
			"rotation":[
				2.0489098417897367e-08,
				1.3504177331924438e-08,
				6.984923750508187e-10,
				1
			],
			"scale":[
				1,
				0.9999999403953552,
				1
			],
			"translation":[
				-1.1920928955078125e-06,
				3.907282829284668,
				-1.633167266845703e-05
			]
		},
		{
			"children":[
				28
			],
			"name":"mixamorig:RightHandThumb3",
			"rotation":[
				-6.008893251419067e-06,
				-1.6111880540847778e-07,
				3.534602001309395e-06,
				1
			],
			"translation":[
				4.231929779052734e-06,
				3.636425495147705,
				-8.225440979003906e-06
			]
		},
		{
			"children":[
				29
			],
			"name":"mixamorig:RightHandThumb2",
			"rotation":[
				-1.4901162970204496e-08,
				1.4249236812702293e-07,
				-1.7462300547776977e-06,
				1
			],
			"scale":[
				0.9999999403953552,
				0.9999998807907104,
				0.9999998807907104
			],
			"translation":[
				4.172325134277344e-06,
				4.523153781890869,
				2.6226043701171875e-06
			]
		},
		{
			"children":[
				30
			],
			"name":"mixamorig:RightHandThumb1",
			"rotation":[
				0.21939334273338318,
				-0.06885448843240738,
				-0.2540983557701111,
				0.9394464492797852
			],
			"scale":[
				1,
				1,
				0.9999999403953552
			],
			"translation":[
				2.7122387886047363,
				6.799993991851807,
				2.789794921875
			]
		},
		{
			"name":"mixamorig:RightHandIndex4",
			"rotation":[
				1.8041130926422372e-14,
				1.021405182655144e-14,
				-9.316065696651776e-10,
				1
			],
			"scale":[
				1,
				0.9999999403953552,
				1
			],
			"translation":[
				1.2625150702660903e-07,
				2.981689929962158,
				-2.04958032554714e-05
			]
		},
		{
			"children":[
				32
			],
			"name":"mixamorig:RightHandIndex3",
			"rotation":[
				5.117476121085929e-06,
				1.113438052868787e-08,
				-7.558614925073925e-06,
				1
			],
			"scale":[
				0.9999999403953552,
				0.9999999403953552,
				1
			],
			"translation":[
				4.89942522108322e-07,
				2.907177448272705,
				1.4906475371390115e-05
			]
		},
		{
			"children":[
				33
			],
			"name":"mixamorig:RightHandIndex2",
			"rotation":[
				-1.6919896097533638e-06,
				6.738816438200956e-08,
				-4.652421921491623e-06,
				1
			],
			"scale":[
				1.0000001192092896,
				1.0000001192092896,
				1
			],
			"translation":[
				-3.0744922696612775e-07,
				4.509127140045166,
				1.6249308828264475e-05
			]
		},
		{
			"children":[
				34
			],
			"name":"mixamorig:RightHandIndex1",
			"rotation":[
				1.6919900645007147e-06,
				-5.8834479510494475e-09,
				3.463122993707657e-06,
				1
			],
			"scale":[
				1.0000001192092896,
				0.9999999403953552,
				1
			],
			"translation":[
				3.526427984237671,
				14.49747371673584,
				1.2489930391311646
			]
		},
		{
			"name":"mixamorig:RightHandMiddle4",
			"rotation":[
				9.270363610872773e-14,
				-1.7763568394002505e-15,
				2.7133739591116146e-13,
				1
			],
			"scale":[
				0.9999999403953552,
				0.9999999403953552,
				1
			],
			"translation":[
				-3.253412614867557e-07,
				4.715567588806152,
				7.869028195273131e-06
			]
		},
		{
			"children":[
				36
			],
			"name":"mixamorig:RightHandMiddle3",
			"rotation":[
				-4.85375358039164e-06,
				-3.066188725142638e-08,
				-8.707885967851325e-08,
				1
			],
			"scale":[
				0.9999999403953552,
				0.9999999403953552,
				1
			],
			"translation":[
				2.2041695046937093e-07,
				2.8325185775756836,
				-1.6444440916529857e-05
			]
		},
		{
			"children":[
				37
			],
			"name":"mixamorig:RightHandMiddle2",
			"rotation":[
				-6.322306944639422e-06,
				-1.258908532975056e-08,
				-2.3962936666066526e-06,
				1
			],
			"scale":[
				1,
				0.9999999403953552,
				1
			],
			"translation":[
				9.468712960369885e-07,
				3.620218515396118,
				2.411767127341591e-06
			]
		},
		{
			"children":[
				38
			],
			"name":"mixamorig:RightHandMiddle1",
			"rotation":[
				6.322307399386773e-06,
				9.824659485957454e-08,
				6.328334620775422e-07,
				1
			],
			"scale":[
				1,
				0.9999998807907104,
				1
			],
			"translation":[
				2.3215863620862365e-05,
				15.099681854248047,
				-1.5255000107572414e-05
			]
		},
		{
			"name":"mixamorig:RightHandRing4",
			"rotation":[
				1.19338167819949e-11,
				4.0057031469586946e-08,
				4.284107646412849e-08,
				1
			],
			"scale":[
				0.9999999403953552,
				0.9999999403953552,
				0.9999998807907104
			],
			"translation":[
				7.29031853552442e-07,
				3.1206469535827637,
				-5.414120096247643e-06
			]
		},
		{
			"children":[
				40
			],
			"name":"mixamorig:RightHandRing3",
			"rotation":[
				-2.2410327460420376e-07,
				2.305181112660648e-08,
				-4.986301064491272e-06,
				1
			],
			"scale":[
				0.9999998807907104,
				0.9999998807907104,
				0.9999998807907104
			],
			"translation":[
				-5.790952855022624e-07,
				3.4355335235595703,
				-2.0100889742025174e-05
			]
		},
		{
			"children":[
				41
			],
			"name":"mixamorig:RightHandRing2",
			"rotation":[
				-4.8192532631219365e-06,
				-1.0921450410705802e-07,
				-9.370502084493637e-06,
				1
			],
			"translation":[
				8.980332495411858e-07,
				2.936038017272949,
				4.847361196880229e-06
			]
		},
		{
			"children":[
				42
			],
			"name":"mixamorig:RightHandRing1",
			"rotation":[
				2.598539140308276e-06,
				9.655369126448932e-08,
				7.511116564273834e-06,
				1
			],
			"scale":[
				1.0000001192092896,
				0.9999999403953552,
				1
			],
			"translation":[
				-3.5120632648468018,
				15.621641159057617,
				0.7730101943016052
			]
		},
		{
			"name":"mixamorig:RightHandPinky4",
			"rotation":[
				3.8047343053904115e-13,
				-4.263256075747422e-14,
				-4.2857630964086846e-13,
				1
			],
			"scale":[
				1.0000001192092896,
				1,
				1
			],
			"translation":[
				-3.8344296626746655e-08,
				2.9789066314697266,
				-2.9231800908746663e-06
			]
		},
		{
			"children":[
				44
			],
			"name":"mixamorig:RightHandPinky3",
			"rotation":[
				1.5041370716062374e-05,
				-2.0106256215512985e-07,
				-9.318813681602478e-06,
				1
			],
			"translation":[
				-1.8528735381551087e-06,
				2.0737881660461426,
				1.2050919394823723e-05
			]
		},
		{
			"children":[
				45
			],
			"name":"mixamorig:RightHandPinky2",
			"rotation":[
				-1.3523749657906592e-05,
				4.9767304943770796e-08,
				2.533183760533575e-07,
				1
			],
			"scale":[
				0.9999998807907104,
				0.9999998807907104,
				0.9999998807907104
			],
			"translation":[
				1.71565443451982e-06,
				2.474729299545288,
				-2.6669031285564415e-06
			]
		},
		{
			"children":[
				46
			],
			"name":"mixamorig:RightHandPinky1",
			"rotation":[
				6.165788363432512e-06,
				1.0302892405888997e-07,
				-1.8300490864930907e-06,
				1
			],
			"scale":[
				1.0000001192092896,
				1,
				1
			],
			"translation":[
				-6.4332075119018555,
				14.089666366577148,
				1.001174807548523
			]
		},
		{
			"children":[
				31,
				35,
				39,
				43,
				47
			],
			"name":"mixamorig:RightHand",
			"rotation":[
				2.5951463200613034e-15,
				-5.936657415661628e-15,
				4.65661453841193e-10,
				1
			],
			"translation":[
				-2.683627826627344e-07,
				26.713130950927734,
				1.5242678273352794e-05
			]
		},
		{
			"children":[
				48
			],
			"name":"mixamorig:RightForeArm",
			"rotation":[
				-2.9707951654245335e-08,
				-6.905610661078754e-08,
				-0.008727929554879665,
				0.9999619126319885
			],
			"scale":[
				1,
				0.9999999403953552,
				1
			],
			"translation":[
				-2.4913015295169316e-07,
				30.73665428161621,
				-4.11850032833172e-06
			]
		},
		{
			"children":[
				49
			],
			"name":"mixamorig:RightArm",
			"rotation":[
				-0.2329936921596527,
				0.002482054987922311,
				-0.010359951294958591,
				0.9724199175834656
			],
			"scale":[
				0.9999999403953552,
				1.0000001192092896,
				1.0000001192092896
			],
			"translation":[
				9.238719940185547e-07,
				12.686756134033203,
				1.2067789612046909e-05
			]
		},
		{
			"children":[
				50
			],
			"name":"mixamorig:RightShoulder",
			"rotation":[
				0.5987682938575745,
				-0.3761339485645294,
				0.6066453456878662,
				0.3632924258708954
			],
			"scale":[
				0.9999998211860657,
				0.9999998211860657,
				0.9999998807907104
			],
			"translation":[
				-11.278643608093262,
				19.886032104492188,
				-3.9660067558288574
			]
		},
		{
			"children":[
				3,
				27,
				51
			],
			"name":"mixamorig:Spine2",
			"rotation":[
				1.8220990938289106e-08,
				-3.0989212973508984e-05,
				-0.0002402608224656433,
				1
			],
			"scale":[
				0.9999999403953552,
				0.9999999403953552,
				1
			],
			"translation":[
				-1.2369127944111824e-09,
				11.062994956970215,
				1.4886040844430681e-08
			]
		},
		{
			"children":[
				52
			],
			"name":"mixamorig:Spine1",
			"rotation":[
				1.7836782717495225e-08,
				-2.3635831894353032e-05,
				-0.00018324976554140449,
				1
			],
			"translation":[
				-1.210719347000122e-08,
				9.224234580993652,
				-1.888599854282802e-07
			]
		},
		{
			"children":[
				53
			],
			"name":"mixamorig:Spine",
			"rotation":[
				-3.598683662175972e-08,
				5.468684685183689e-05,
				0.00042269009281881154,
				0.9999999403953552
			],
			"scale":[
				0.9999999403953552,
				1,
				1
			],
			"translation":[
				2.282959940203e-05,
				13.21478271484375,
				-5.310376849365639e-08
			]
		},
		{
			"name":"mixamorig:LeftToe_End",
			"rotation":[
				-4.0867803363653366e-08,
				-1.039416108739033e-08,
				9.306626580496413e-09,
				1
			],
			"scale":[
				0.9999999403953552,
				1,
				0.9999999403953552
			],
			"translation":[
				3.166321249636894e-08,
				12.6508150100708,
				2.153683453798294e-09
			]
		},
		{
			"children":[
				55
			],
			"name":"mixamorig:LeftToeBase",
			"rotation":[
				0.35310253500938416,
				-0.01874021627008915,
				-0.008418011479079723,
				0.9353590607643127
			],
			"scale":[
				1,
				1.0000001192092896,
				0.9999999403953552
			],
			"translation":[
				3.5218545235693455e-07,
				21.399980545043945,
				5.681067705154419e-07
			]
		},
		{
			"children":[
				56
			],
			"name":"mixamorig:LeftFoot",
			"rotation":[
				0.4592282474040985,
				-0.025754310190677643,
				0.031953364610672,
				0.8873698115348816
			],
			"scale":[
				0.9999998211860657,
				0.9999999403953552,
				0.9999999403953552
			],
			"translation":[
				-2.7093642529507633e-07,
				51.58797836303711,
				8.269233831015299e-07
			]
		},
		{
			"children":[
				57
			],
			"name":"mixamorig:LeftLeg",
			"rotation":[
				-0.07946757972240448,
				-7.1627130893148205e-09,
				1.3691030531504111e-08,
				0.9968374371528625
			],
			"scale":[
				1,
				0.9999999403953552,
				1
			],
			"translation":[
				-1.3478421578838606e-06,
				48.47810363769531,
				-4.090359198016813e-07
			]
		},
		{
			"children":[
				58
			],
			"name":"mixamorig:LeftUpLeg",
			"rotation":[
				4.809288256524269e-08,
				0.025164861232042313,
				0.9996833205223083,
				8.178668622349505e-07
			],
			"scale":[
				1,
				1.000000238418579,
				1.0000015497207642
			],
			"translation":[
				9.418067932128906,
				-4.875091552734375,
				1.8976740837097168
			]
		},
		{
			"name":"mixamorig:RightToe_End",
			"rotation":[
				-5.552977100364842e-08,
				1.1927966170333093e-08,
				-7.440426941229816e-09,
				1
			],
			"scale":[
				1,
				0.9999998807907104,
				1
			],
			"translation":[
				-3.2434886065857427e-07,
				12.651127815246582,
				-2.6193447411060333e-09
			]
		},
		{
			"children":[
				60
			],
			"name":"mixamorig:RightToeBase",
			"rotation":[
				0.3531019985675812,
				0.018740084022283554,
				0.008420633152127266,
				0.9353592395782471
			],
			"scale":[
				1,
				1.000000238418579,
				0.9999999403953552
			],
			"translation":[
				-1.6392732504755259e-07,
				21.399982452392578,
				8.433125913143158e-07
			]
		},
		{
			"children":[
				61
			],
			"name":"mixamorig:RightFoot",
			"rotation":[
				0.45922818779945374,
				0.025755923241376877,
				-0.03195304051041603,
				0.8873697519302368
			],
			"scale":[
				0.9999999403953552,
				1,
				1
			],
			"translation":[
				9.444871125197096e-07,
				51.58795166015625,
				-2.342029858937167e-08
			]
		},
		{
			"children":[
				62
			],
			"name":"mixamorig:RightLeg",
			"rotation":[
				-0.07946772873401642,
				-1.4720295382630866e-07,
				-8.658329875288473e-08,
				0.9968374371528625
			],
			"scale":[
				1,
				0.9999999403953552,
				0.9999999403953552
			],
			"translation":[
				8.751129598749685e-07,
				48.47808837890625,
				-4.5700630835199263e-07
			]
		},
		{
			"children":[
				63
			],
			"name":"mixamorig:RightUpLeg",
			"rotation":[
				-5.679589065721302e-08,
				0.025164926424622536,
				0.9996833205223083,
				7.758702622595592e-07
			],
			"scale":[
				1,
				1.000000238418579,
				1.0000014305114746
			],
			"translation":[
				-9.418088912963867,
				-4.875083923339844,
				1.8976764678955078
			]
		},
		{
			"children":[
				54,
				59,
				64
			],
			"name":"mixamorig:Hips",
			"rotation":[
				-0.7071067690849304,
				5.364932462725847e-07,
				6.238935839064652e-07,
				0.7071067690849304
			],
			"translation":[
				4.1665467165330483e-07,
				-1.825693964958191,
				-118.71609497070312
			]
		},
		{
			"extras":{
				"currentUVSet":"map1"
			},
			"mesh":0,
			"name":"Body",
			"skin":0
		},
		{
			"extras":{
				"currentUVSet":"map1"
			},
			"mesh":1,
			"name":"Head_Hands",
			"skin":0
		},
		{
			"extras":{
				"currentUVSet":"map1"
			},
			"mesh":2,
			"name":"Lower_Armor",
			"skin":0
		},
		{
			"children":[
				66,
				67,
				68,
				65
			],
			"name":"Armature",
			"rotation":[
				0.7071068286895752,
				0,
				0,
				0.7071068286895752
			],
			"scale":[
				0.009999999776482582,
				0.009999999776482582,
				0.009999999776482582
			]
		}
	],
	"animations":[
		{
			"channels":[
				{
					"sampler":0,
					"target":{
						"node":65,
						"path":"translation"
					}
				},
				{
					"sampler":1,
					"target":{
						"node":65,
						"path":"rotation"
					}
				},
				{
					"sampler":2,
					"target":{
						"node":65,
						"path":"scale"
					}
				},
				{
					"sampler":3,
					"target":{
						"node":54,
						"path":"translation"
					}
				},
				{
					"sampler":4,
					"target":{
						"node":54,
						"path":"rotation"
					}
				},
				{
					"sampler":5,
					"target":{
						"node":54,
						"path":"scale"
					}
				},
				{
					"sampler":6,
					"target":{
						"node":53,
						"path":"translation"
					}
				},
				{
					"sampler":7,
					"target":{
						"node":53,
						"path":"rotation"
					}
				},
				{
					"sampler":8,
					"target":{
						"node":53,
						"path":"scale"
					}
				},
				{
					"sampler":9,
					"target":{
						"node":52,
						"path":"translation"
					}
				},
				{
					"sampler":10,
					"target":{
						"node":52,
						"path":"rotation"
					}
				},
				{
					"sampler":11,
					"target":{
						"node":52,
						"path":"scale"
					}
				},
				{
					"sampler":12,
					"target":{
						"node":3,
						"path":"translation"
					}
				},
				{
					"sampler":13,
					"target":{
						"node":3,
						"path":"rotation"
					}
				},
				{
					"sampler":14,
					"target":{
						"node":3,
						"path":"scale"
					}
				},
				{
					"sampler":15,
					"target":{
						"node":2,
						"path":"translation"
					}
				},
				{
					"sampler":16,
					"target":{
						"node":2,
						"path":"rotation"
					}
				},
				{
					"sampler":17,
					"target":{
						"node":2,
						"path":"scale"
					}
				},
				{
					"sampler":18,
					"target":{
						"node":0,
						"path":"translation"
					}
				},
				{
					"sampler":19,
					"target":{
						"node":0,
						"path":"rotation"
					}
				},
				{
					"sampler":20,
					"target":{
						"node":0,
						"path":"scale"
					}
				},
				{
					"sampler":21,
					"target":{
						"node":1,
						"path":"translation"
					}
				},
				{
					"sampler":22,
					"target":{
						"node":1,
						"path":"rotation"
					}
				},
				{
					"sampler":23,
					"target":{
						"node":1,
						"path":"scale"
					}
				},
				{
					"sampler":24,
					"target":{
						"node":27,
						"path":"translation"
					}
				},
				{
					"sampler":25,
					"target":{
						"node":27,
						"path":"rotation"
					}
				},
				{
					"sampler":26,
					"target":{
						"node":27,
						"path":"scale"
					}
				},
				{
					"sampler":27,
					"target":{
						"node":26,
						"path":"translation"
					}
				},
				{
					"sampler":28,
					"target":{
						"node":26,
						"path":"rotation"
					}
				},
				{
					"sampler":29,
					"target":{
						"node":26,
						"path":"scale"
					}
				},
				{
					"sampler":30,
					"target":{
						"node":25,
						"path":"translation"
					}
				},
				{
					"sampler":31,
					"target":{
						"node":25,
						"path":"rotation"
					}
				},
				{
					"sampler":32,
					"target":{
						"node":25,
						"path":"scale"
					}
				},
				{
					"sampler":33,
					"target":{
						"node":24,
						"path":"translation"
					}
				},
				{
					"sampler":34,
					"target":{
						"node":24,
						"path":"rotation"
					}
				},
				{
					"sampler":35,
					"target":{
						"node":24,
						"path":"scale"
					}
				},
				{
					"sampler":36,
					"target":{
						"node":7,
						"path":"translation"
					}
				},
				{
					"sampler":37,
					"target":{
						"node":7,
						"path":"rotation"
					}
				},
				{
					"sampler":38,
					"target":{
						"node":7,
						"path":"scale"
					}
				},
				{
					"sampler":39,
					"target":{
						"node":6,
						"path":"translation"
					}
				},
				{
					"sampler":40,
					"target":{
						"node":6,
						"path":"rotation"
					}
				},
				{
					"sampler":41,
					"target":{
						"node":6,
						"path":"scale"
					}
				},
				{
					"sampler":42,
					"target":{
						"node":5,
						"path":"translation"
					}
				},
				{
					"sampler":43,
					"target":{
						"node":5,
						"path":"rotation"
					}
				},
				{
					"sampler":44,
					"target":{
						"node":5,
						"path":"scale"
					}
				},
				{
					"sampler":45,
					"target":{
						"node":4,
						"path":"translation"
					}
				},
				{
					"sampler":46,
					"target":{
						"node":4,
						"path":"rotation"
					}
				},
				{
					"sampler":47,
					"target":{
						"node":4,
						"path":"scale"
					}
				},
				{
					"sampler":48,
					"target":{
						"node":11,
						"path":"translation"
					}
				},
				{
					"sampler":49,
					"target":{
						"node":11,
						"path":"rotation"
					}
				},
				{
					"sampler":50,
					"target":{
						"node":11,
						"path":"scale"
					}
				},
				{
					"sampler":51,
					"target":{
						"node":10,
						"path":"translation"
					}
				},
				{
					"sampler":52,
					"target":{
						"node":10,
						"path":"rotation"
					}
				},
				{
					"sampler":53,
					"target":{
						"node":10,
						"path":"scale"
					}
				},
				{
					"sampler":54,
					"target":{
						"node":9,
						"path":"translation"
					}
				},
				{
					"sampler":55,
					"target":{
						"node":9,
						"path":"rotation"
					}
				},
				{
					"sampler":56,
					"target":{
						"node":9,
						"path":"scale"
					}
				},
				{
					"sampler":57,
					"target":{
						"node":8,
						"path":"translation"
					}
				},
				{
					"sampler":58,
					"target":{
						"node":8,
						"path":"rotation"
					}
				},
				{
					"sampler":59,
					"target":{
						"node":8,
						"path":"scale"
					}
				},
				{
					"sampler":60,
					"target":{
						"node":15,
						"path":"translation"
					}
				},
				{
					"sampler":61,
					"target":{
						"node":15,
						"path":"rotation"
					}
				},
				{
					"sampler":62,
					"target":{
						"node":15,
						"path":"scale"
					}
				},
				{
					"sampler":63,
					"target":{
						"node":14,
						"path":"translation"
					}
				},
				{
					"sampler":64,
					"target":{
						"node":14,
						"path":"rotation"
					}
				},
				{
					"sampler":65,
					"target":{
						"node":14,
						"path":"scale"
					}
				},
				{
					"sampler":66,
					"target":{
						"node":13,
						"path":"translation"
					}
				},
				{
					"sampler":67,
					"target":{
						"node":13,
						"path":"rotation"
					}
				},
				{
					"sampler":68,
					"target":{
						"node":13,
						"path":"scale"
					}
				},
				{
					"sampler":69,
					"target":{
						"node":12,
						"path":"translation"
					}
				},
				{
					"sampler":70,
					"target":{
						"node":12,
						"path":"rotation"
					}
				},
				{
					"sampler":71,
					"target":{
						"node":12,
						"path":"scale"
					}
				},
				{
					"sampler":72,
					"target":{
						"node":19,
						"path":"translation"
					}
				},
				{
					"sampler":73,
					"target":{
						"node":19,
						"path":"rotation"
					}
				},
				{
					"sampler":74,
					"target":{
						"node":19,
						"path":"scale"
					}
				},
				{
					"sampler":75,
					"target":{
						"node":18,
						"path":"translation"
					}
				},
				{
					"sampler":76,
					"target":{
						"node":18,
						"path":"rotation"
					}
				},
				{
					"sampler":77,
					"target":{
						"node":18,
						"path":"scale"
					}
				},
				{
					"sampler":78,
					"target":{
						"node":17,
						"path":"translation"
					}
				},
				{
					"sampler":79,
					"target":{
						"node":17,
						"path":"rotation"
					}
				},
				{
					"sampler":80,
					"target":{
						"node":17,
						"path":"scale"
					}
				},
				{
					"sampler":81,
					"target":{
						"node":16,
						"path":"translation"
					}
				},
				{
					"sampler":82,
					"target":{
						"node":16,
						"path":"rotation"
					}
				},
				{
					"sampler":83,
					"target":{
						"node":16,
						"path":"scale"
					}
				},
				{
					"sampler":84,
					"target":{
						"node":23,
						"path":"translation"
					}
				},
				{
					"sampler":85,
					"target":{
						"node":23,
						"path":"rotation"
					}
				},
				{
					"sampler":86,
					"target":{
						"node":23,
						"path":"scale"
					}
				},
				{
					"sampler":87,
					"target":{
						"node":22,
						"path":"translation"
					}
				},
				{
					"sampler":88,
					"target":{
						"node":22,
						"path":"rotation"
					}
				},
				{
					"sampler":89,
					"target":{
						"node":22,
						"path":"scale"
					}
				},
				{
					"sampler":90,
					"target":{
						"node":21,
						"path":"translation"
					}
				},
				{
					"sampler":91,
					"target":{
						"node":21,
						"path":"rotation"
					}
				},
				{
					"sampler":92,
					"target":{
						"node":21,
						"path":"scale"
					}
				},
				{
					"sampler":93,
					"target":{
						"node":20,
						"path":"translation"
					}
				},
				{
					"sampler":94,
					"target":{
						"node":20,
						"path":"rotation"
					}
				},
				{
					"sampler":95,
					"target":{
						"node":20,
						"path":"scale"
					}
				},
				{
					"sampler":96,
					"target":{
						"node":51,
						"path":"translation"
					}
				},
				{
					"sampler":97,
					"target":{
						"node":51,
						"path":"rotation"
					}
				},
				{
					"sampler":98,
					"target":{
						"node":51,
						"path":"scale"
					}
				},
				{
					"sampler":99,
					"target":{
						"node":50,
						"path":"translation"
					}
				},
				{
					"sampler":100,
					"target":{
						"node":50,
						"path":"rotation"
					}
				},
				{
					"sampler":101,
					"target":{
						"node":50,
						"path":"scale"
					}
				},
				{
					"sampler":102,
					"target":{
						"node":49,
						"path":"translation"
					}
				},
				{
					"sampler":103,
					"target":{
						"node":49,
						"path":"rotation"
					}
				},
				{
					"sampler":104,
					"target":{
						"node":49,
						"path":"scale"
					}
				},
				{
					"sampler":105,
					"target":{
						"node":48,
						"path":"translation"
					}
				},
				{
					"sampler":106,
					"target":{
						"node":48,
						"path":"rotation"
					}
				},
				{
					"sampler":107,
					"target":{
						"node":48,
						"path":"scale"
					}
				},
				{
					"sampler":108,
					"target":{
						"node":31,
						"path":"translation"
					}
				},
				{
					"sampler":109,
					"target":{
						"node":31,
						"path":"rotation"
					}
				},
				{
					"sampler":110,
					"target":{
						"node":31,
						"path":"scale"
					}
				},
				{
					"sampler":111,
					"target":{
						"node":30,
						"path":"translation"
					}
				},
				{
					"sampler":112,
					"target":{
						"node":30,
						"path":"rotation"
					}
				},
				{
					"sampler":113,
					"target":{
						"node":30,
						"path":"scale"
					}
				},
				{
					"sampler":114,
					"target":{
						"node":29,
						"path":"translation"
					}
				},
				{
					"sampler":115,
					"target":{
						"node":29,
						"path":"rotation"
					}
				},
				{
					"sampler":116,
					"target":{
						"node":29,
						"path":"scale"
					}
				},
				{
					"sampler":117,
					"target":{
						"node":28,
						"path":"translation"
					}
				},
				{
					"sampler":118,
					"target":{
						"node":28,
						"path":"rotation"
					}
				},
				{
					"sampler":119,
					"target":{
						"node":28,
						"path":"scale"
					}
				},
				{
					"sampler":120,
					"target":{
						"node":35,
						"path":"translation"
					}
				},
				{
					"sampler":121,
					"target":{
						"node":35,
						"path":"rotation"
					}
				},
				{
					"sampler":122,
					"target":{
						"node":35,
						"path":"scale"
					}
				},
				{
					"sampler":123,
					"target":{
						"node":34,
						"path":"translation"
					}
				},
				{
					"sampler":124,
					"target":{
						"node":34,
						"path":"rotation"
					}
				},
				{
					"sampler":125,
					"target":{
						"node":34,
						"path":"scale"
					}
				},
				{
					"sampler":126,
					"target":{
						"node":33,
						"path":"translation"
					}
				},
				{
					"sampler":127,
					"target":{
						"node":33,
						"path":"rotation"
					}
				},
				{
					"sampler":128,
					"target":{
						"node":33,
						"path":"scale"
					}
				},
				{
					"sampler":129,
					"target":{
						"node":32,
						"path":"translation"
					}
				},
				{
					"sampler":130,
					"target":{
						"node":32,
						"path":"rotation"
					}
				},
				{
					"sampler":131,
					"target":{
						"node":32,
						"path":"scale"
					}
				},
				{
					"sampler":132,
					"target":{
						"node":39,
						"path":"translation"
					}
				},
				{
					"sampler":133,
					"target":{
						"node":39,
						"path":"rotation"
					}
				},
				{
					"sampler":134,
					"target":{
						"node":39,
						"path":"scale"
					}
				},
				{
					"sampler":135,
					"target":{
						"node":38,
						"path":"translation"
					}
				},
				{
					"sampler":136,
					"target":{
						"node":38,
						"path":"rotation"
					}
				},
				{
					"sampler":137,
					"target":{
						"node":38,
						"path":"scale"
					}
				},
				{
					"sampler":138,
					"target":{
						"node":37,
						"path":"translation"
					}
				},
				{
					"sampler":139,
					"target":{
						"node":37,
						"path":"rotation"
					}
				},
				{
					"sampler":140,
					"target":{
						"node":37,
						"path":"scale"
					}
				},
				{
					"sampler":141,
					"target":{
						"node":36,
						"path":"translation"
					}
				},
				{
					"sampler":142,
					"target":{
						"node":36,
						"path":"rotation"
					}
				},
				{
					"sampler":143,
					"target":{
						"node":36,
						"path":"scale"
					}
				},
				{
					"sampler":144,
					"target":{
						"node":43,
						"path":"translation"
					}
				},
				{
					"sampler":145,
					"target":{
						"node":43,
						"path":"rotation"
					}
				},
				{
					"sampler":146,
					"target":{
						"node":43,
						"path":"scale"
					}
				},
				{
					"sampler":147,
					"target":{
						"node":42,
						"path":"translation"
					}
				},
				{
					"sampler":148,
					"target":{
						"node":42,
						"path":"rotation"
					}
				},
				{
					"sampler":149,
					"target":{
						"node":42,
						"path":"scale"
					}
				},
				{
					"sampler":150,
					"target":{
						"node":41,
						"path":"translation"
					}
				},
				{
					"sampler":151,
					"target":{
						"node":41,
						"path":"rotation"
					}
				},
				{
					"sampler":152,
					"target":{
						"node":41,
						"path":"scale"
					}
				},
				{
					"sampler":153,
					"target":{
						"node":40,
						"path":"translation"
					}
				},
				{
					"sampler":154,
					"target":{
						"node":40,
						"path":"rotation"
					}
				},
				{
					"sampler":155,
					"target":{
						"node":40,
						"path":"scale"
					}
				},
				{
					"sampler":156,
					"target":{
						"node":47,
						"path":"translation"
					}
				},
				{
					"sampler":157,
					"target":{
						"node":47,
						"path":"rotation"
					}
				},
				{
					"sampler":158,
					"target":{
						"node":47,
						"path":"scale"
					}
				},
				{
					"sampler":159,
					"target":{
						"node":46,
						"path":"translation"
					}
				},
				{
					"sampler":160,
					"target":{
						"node":46,
						"path":"rotation"
					}
				},
				{
					"sampler":161,
					"target":{
						"node":46,
						"path":"scale"
					}
				},
				{
					"sampler":162,
					"target":{
						"node":45,
						"path":"translation"
					}
				},
				{
					"sampler":163,
					"target":{
						"node":45,
						"path":"rotation"
					}
				},
				{
					"sampler":164,
					"target":{
						"node":45,
						"path":"scale"
					}
				},
				{
					"sampler":165,
					"target":{
						"node":44,
						"path":"translation"
					}
				},
				{
					"sampler":166,
					"target":{
						"node":44,
						"path":"rotation"
					}
				},
				{
					"sampler":167,
					"target":{
						"node":44,
						"path":"scale"
					}
				},
				{
					"sampler":168,
					"target":{
						"node":59,
						"path":"translation"
					}
				},
				{
					"sampler":169,
					"target":{
						"node":59,
						"path":"rotation"
					}
				},
				{
					"sampler":170,
					"target":{
						"node":59,
						"path":"scale"
					}
				},
				{
					"sampler":171,
					"target":{
						"node":58,
						"path":"translation"
					}
				},
				{
					"sampler":172,
					"target":{
						"node":58,
						"path":"rotation"
					}
				},
				{
					"sampler":173,
					"target":{
						"node":58,
						"path":"scale"
					}
				},
				{
					"sampler":174,
					"target":{
						"node":57,
						"path":"translation"
					}
				},
				{
					"sampler":175,
					"target":{
						"node":57,
						"path":"rotation"
					}
				},
				{
					"sampler":176,
					"target":{
						"node":57,
						"path":"scale"
					}
				},
				{
					"sampler":177,
					"target":{
						"node":56,
						"path":"translation"
					}
				},
				{
					"sampler":178,
					"target":{
						"node":56,
						"path":"rotation"
					}
				},
				{
					"sampler":179,
					"target":{
						"node":56,
						"path":"scale"
					}
				},
				{
					"sampler":180,
					"target":{
						"node":55,
						"path":"translation"
					}
				},
				{
					"sampler":181,
					"target":{
						"node":55,
						"path":"rotation"
					}
				},
				{
					"sampler":182,
					"target":{
						"node":55,
						"path":"scale"
					}
				},
				{
					"sampler":183,
					"target":{
						"node":64,
						"path":"translation"
					}
				},
				{
					"sampler":184,
					"target":{
						"node":64,
						"path":"rotation"
					}
				},
				{
					"sampler":185,
					"target":{
						"node":64,
						"path":"scale"
					}
				},
				{
					"sampler":186,
					"target":{
						"node":63,
						"path":"translation"
					}
				},
				{
					"sampler":187,
					"target":{
						"node":63,
						"path":"rotation"
					}
				},
				{
					"sampler":188,
					"target":{
						"node":63,
						"path":"scale"
					}
				},
				{
					"sampler":189,
					"target":{
						"node":62,
						"path":"translation"
					}
				},
				{
					"sampler":190,
					"target":{
						"node":62,
						"path":"rotation"
					}
				},
				{
					"sampler":191,
					"target":{
						"node":62,
						"path":"scale"
					}
				},
				{
					"sampler":192,
					"target":{
						"node":61,
						"path":"translation"
					}
				},
				{
					"sampler":193,
					"target":{
						"node":61,
						"path":"rotation"
					}
				},
				{
					"sampler":194,
					"target":{
						"node":61,
						"path":"scale"
					}
				},
				{
					"sampler":195,
					"target":{
						"node":60,
						"path":"translation"
					}
				},
				{
					"sampler":196,
					"target":{
						"node":60,
						"path":"rotation"
					}
				},
				{
					"sampler":197,
					"target":{
						"node":60,
						"path":"scale"
					}
				}
			],
			"name":"mixamo.com",
			"samplers":[
				{
					"input":22,
					"interpolation":"LINEAR",
					"output":23
				},
				{
					"input":22,
					"interpolation":"LINEAR",
					"output":24
				},
				{
					"input":25,
					"interpolation":"STEP",
					"output":26
				},
				{
					"input":25,
					"interpolation":"STEP",
					"output":27
				},
				{
					"input":22,
					"interpolation":"LINEAR",
					"output":28
				},
				{
					"input":25,
					"interpolation":"STEP",
					"output":29
				},
				{
					"input":25,
					"interpolation":"STEP",
					"output":30
				},
				{
					"input":22,
					"interpolation":"LINEAR",
					"output":31
				},
				{
					"input":25,
					"interpolation":"STEP",
					"output":32
				},
				{
					"input":25,
					"interpolation":"STEP",
					"output":33
				},
				{
					"input":22,
					"interpolation":"LINEAR",
					"output":34
				},
				{
					"input":25,
					"interpolation":"STEP",
					"output":35
				},
				{
					"input":25,
					"interpolation":"STEP",
					"output":36
				},
				{
					"input":22,
					"interpolation":"LINEAR",
					"output":37
				},
				{
					"input":25,
					"interpolation":"STEP",
					"output":38
				},
				{
					"input":25,
					"interpolation":"STEP",
					"output":39
				},
				{
					"input":22,
					"interpolation":"LINEAR",
					"output":40
				},
				{
					"input":25,
					"interpolation":"STEP",
					"output":41
				},
				{
					"input":25,
					"interpolation":"STEP",
					"output":42
				},
				{
					"input":25,
					"interpolation":"STEP",
					"output":43
				},
				{
					"input":25,
					"interpolation":"STEP",
					"output":44
				},
				{
					"input":25,
					"interpolation":"STEP",
					"output":45
				},
				{
					"input":25,
					"interpolation":"STEP",
					"output":46
				},
				{
					"input":25,
					"interpolation":"STEP",
					"output":47
				},
				{
					"input":25,
					"interpolation":"STEP",
					"output":48
				},
				{
					"input":22,
					"interpolation":"LINEAR",
					"output":49
				},
				{
					"input":25,
					"interpolation":"STEP",
					"output":50
				},
				{
					"input":25,
					"interpolation":"STEP",
					"output":51
				},
				{
					"input":22,
					"interpolation":"LINEAR",
					"output":52
				},
				{
					"input":25,
					"interpolation":"STEP",
					"output":53
				},
				{
					"input":25,
					"interpolation":"STEP",
					"output":54
				},
				{
					"input":22,
					"interpolation":"LINEAR",
					"output":55
				},
				{
					"input":25,
					"interpolation":"STEP",
					"output":56
				},
				{
					"input":25,
					"interpolation":"LINEAR",
					"output":57
				},
				{
					"input":22,
					"interpolation":"LINEAR",
					"output":58
				},
				{
					"input":25,
					"interpolation":"LINEAR",
					"output":59
				},
				{
					"input":25,
					"interpolation":"LINEAR",
					"output":60
				},
				{
					"input":22,
					"interpolation":"LINEAR",
					"output":61
				},
				{
					"input":25,
					"interpolation":"LINEAR",
					"output":62
				},
				{
					"input":25,
					"interpolation":"LINEAR",
					"output":63
				},
				{
					"input":22,
					"interpolation":"LINEAR",
					"output":64
				},
				{
					"input":25,
					"interpolation":"LINEAR",
					"output":65
				},
				{
					"input":25,
					"interpolation":"LINEAR",
					"output":66
				},
				{
					"input":25,
					"interpolation":"LINEAR",
					"output":67
				},
				{
					"input":25,
					"interpolation":"LINEAR",
					"output":68
				},
				{
					"input":25,
					"interpolation":"STEP",
					"output":69
				},
				{
					"input":25,
					"interpolation":"STEP",
					"output":70
				},
				{
					"input":25,
					"interpolation":"STEP",
					"output":71
				},
				{
					"input":25,
					"interpolation":"LINEAR",
					"output":72
				},
				{
					"input":22,
					"interpolation":"LINEAR",
					"output":73
				},
				{
					"input":25,
					"interpolation":"LINEAR",
					"output":74
				},
				{
					"input":25,
					"interpolation":"LINEAR",
					"output":75
				},
				{
					"input":22,
					"interpolation":"LINEAR",
					"output":76
				},
				{
					"input":25,
					"interpolation":"LINEAR",
					"output":77
				},
				{
					"input":25,
					"interpolation":"LINEAR",
					"output":78
				},
				{
					"input":25,
					"interpolation":"LINEAR",
					"output":79
				},
				{
					"input":25,
					"interpolation":"STEP",
					"output":80
				},
				{
					"input":25,
					"interpolation":"STEP",
					"output":81
				},
				{
					"input":25,
					"interpolation":"STEP",
					"output":82
				},
				{
					"input":25,
					"interpolation":"STEP",
					"output":83
				},
				{
					"input":25,
					"interpolation":"LINEAR",
					"output":84
				},
				{
					"input":22,
					"interpolation":"LINEAR",
					"output":85
				},
				{
					"input":25,
					"interpolation":"LINEAR",
					"output":86
				},
				{
					"input":25,
					"interpolation":"LINEAR",
					"output":87
				},
				{
					"input":22,
					"interpolation":"LINEAR",
					"output":88
				},
				{
					"input":25,
					"interpolation":"STEP",
					"output":89
				},
				{
					"input":25,
					"interpolation":"LINEAR",
					"output":90
				},
				{
					"input":25,
					"interpolation":"LINEAR",
					"output":91
				},
				{
					"input":25,
					"interpolation":"STEP",
					"output":92
				},
				{
					"input":25,
					"interpolation":"STEP",
					"output":93
				},
				{
					"input":25,
					"interpolation":"STEP",
					"output":94
				},
				{
					"input":25,
					"interpolation":"STEP",
					"output":95
				},
				{
					"input":25,
					"interpolation":"LINEAR",
					"output":96
				},
				{
					"input":22,
					"interpolation":"LINEAR",
					"output":97
				},
				{
					"input":25,
					"interpolation":"LINEAR",
					"output":98
				},
				{
					"input":25,
					"interpolation":"LINEAR",
					"output":99
				},
				{
					"input":22,
					"interpolation":"LINEAR",
					"output":100
				},
				{
					"input":25,
					"interpolation":"LINEAR",
					"output":101
				},
				{
					"input":25,
					"interpolation":"LINEAR",
					"output":102
				},
				{
					"input":25,
					"interpolation":"LINEAR",
					"output":103
				},
				{
					"input":25,
					"interpolation":"STEP",
					"output":104
				},
				{
					"input":25,
					"interpolation":"STEP",
					"output":105
				},
				{
					"input":25,
					"interpolation":"STEP",
					"output":106
				},
				{
					"input":25,
					"interpolation":"STEP",
					"output":107
				},
				{
					"input":25,
					"interpolation":"LINEAR",
					"output":108
				},
				{
					"input":22,
					"interpolation":"LINEAR",
					"output":109
				},
				{
					"input":25,
					"interpolation":"LINEAR",
					"output":110
				},
				{
					"input":25,
					"interpolation":"LINEAR",
					"output":111
				},
				{
					"input":22,
					"interpolation":"LINEAR",
					"output":112
				},
				{
					"input":25,
					"interpolation":"LINEAR",
					"output":113
				},
				{
					"input":25,
					"interpolation":"LINEAR",
					"output":114
				},
				{
					"input":25,
					"interpolation":"LINEAR",
					"output":115
				},
				{
					"input":25,
					"interpolation":"LINEAR",
					"output":116
				},
				{
					"input":25,
					"interpolation":"STEP",
					"output":117
				},
				{
					"input":25,
					"interpolation":"STEP",
					"output":118
				},
				{
					"input":25,
					"interpolation":"STEP",
					"output":119
				},
				{
					"input":25,
					"interpolation":"STEP",
					"output":120
				},
				{
					"input":22,
					"interpolation":"LINEAR",
					"output":121
				},
				{
					"input":25,
					"interpolation":"STEP",
					"output":122
				},
				{
					"input":25,
					"interpolation":"STEP",
					"output":123
				},
				{
					"input":22,
					"interpolation":"LINEAR",
					"output":124
				},
				{
					"input":25,
					"interpolation":"STEP",
					"output":125
				},
				{
					"input":25,
					"interpolation":"STEP",
					"output":126
				},
				{
					"input":22,
					"interpolation":"LINEAR",
					"output":127
				},
				{
					"input":25,
					"interpolation":"STEP",
					"output":128
				},
				{
					"input":25,
					"interpolation":"LINEAR",
					"output":129
				},
				{
					"input":22,
					"interpolation":"LINEAR",
					"output":130
				},
				{
					"input":25,
					"interpolation":"LINEAR",
					"output":131
				},
				{
					"input":25,
					"interpolation":"LINEAR",
					"output":132
				},
				{
					"input":22,
					"interpolation":"LINEAR",
					"output":133
				},
				{
					"input":25,
					"interpolation":"LINEAR",
					"output":134
				},
				{
					"input":25,
					"interpolation":"LINEAR",
					"output":135
				},
				{
					"input":22,
					"interpolation":"LINEAR",
					"output":136
				},
				{
					"input":25,
					"interpolation":"STEP",
					"output":137
				},
				{
					"input":25,
					"interpolation":"LINEAR",
					"output":138
				},
				{
					"input":25,
					"interpolation":"LINEAR",
					"output":139
				},
				{
					"input":25,
					"interpolation":"STEP",
					"output":140
				},
				{
					"input":25,
					"interpolation":"STEP",
					"output":141
				},
				{
					"input":25,
					"interpolation":"STEP",
					"output":142
				},
				{
					"input":25,
					"interpolation":"STEP",
					"output":143
				},
				{
					"input":25,
					"interpolation":"LINEAR",
					"output":144
				},
				{
					"input":22,
					"interpolation":"LINEAR",
					"output":145
				},
				{
					"input":25,
					"interpolation":"STEP",
					"output":89
				},
				{
					"input":25,
					"interpolation":"LINEAR",
					"output":146
				},
				{
					"input":22,
					"interpolation":"LINEAR",
					"output":147
				},
				{
					"input":25,
					"interpolation":"LINEAR",
					"output":148
				},
				{
					"input":25,
					"interpolation":"LINEAR",
					"output":149
				},
				{
					"input":25,
					"interpolation":"LINEAR",
					"output":150
				},
				{
					"input":25,
					"interpolation":"STEP",
					"output":151
				},
				{
					"input":25,
					"interpolation":"STEP",
					"output":152
				},
				{
					"input":25,
					"interpolation":"STEP",
					"output":153
				},
				{
					"input":25,
					"interpolation":"STEP",
					"output":154
				},
				{
					"input":25,
					"interpolation":"LINEAR",
					"output":155
				},
				{
					"input":22,
					"interpolation":"LINEAR",
					"output":156
				},
				{
					"input":25,
					"interpolation":"STEP",
					"output":157
				},
				{
					"input":25,
					"interpolation":"LINEAR",
					"output":158
				},
				{
					"input":22,
					"interpolation":"LINEAR",
					"output":159
				},
				{
					"input":25,
					"interpolation":"LINEAR",
					"output":160
				},
				{
					"input":25,
					"interpolation":"LINEAR",
					"output":161
				},
				{
					"input":25,
					"interpolation":"LINEAR",
					"output":162
				},
				{
					"input":25,
					"interpolation":"LINEAR",
					"output":163
				},
				{
					"input":25,
					"interpolation":"STEP",
					"output":164
				},
				{
					"input":25,
					"interpolation":"STEP",
					"output":165
				},
				{
					"input":25,
					"interpolation":"STEP",
					"output":166
				},
				{
					"input":25,
					"interpolation":"LINEAR",
					"output":167
				},
				{
					"input":22,
					"interpolation":"LINEAR",
					"output":168
				},
				{
					"input":25,
					"interpolation":"STEP",
					"output":169
				},
				{
					"input":25,
					"interpolation":"LINEAR",
					"output":170
				},
				{
					"input":22,
					"interpolation":"LINEAR",
					"output":171
				},
				{
					"input":25,
					"interpolation":"STEP",
					"output":172
				},
				{
					"input":25,
					"interpolation":"LINEAR",
					"output":173
				},
				{
					"input":25,
					"interpolation":"LINEAR",
					"output":174
				},
				{
					"input":25,
					"interpolation":"LINEAR",
					"output":175
				},
				{
					"input":25,
					"interpolation":"STEP",
					"output":176
				},
				{
					"input":25,
					"interpolation":"STEP",
					"output":177
				},
				{
					"input":25,
					"interpolation":"STEP",
					"output":178
				},
				{
					"input":25,
					"interpolation":"LINEAR",
					"output":179
				},
				{
					"input":22,
					"interpolation":"LINEAR",
					"output":180
				},
				{
					"input":25,
					"interpolation":"STEP",
					"output":181
				},
				{
					"input":25,
					"interpolation":"LINEAR",
					"output":182
				},
				{
					"input":22,
					"interpolation":"LINEAR",
					"output":183
				},
				{
					"input":25,
					"interpolation":"STEP",
					"output":184
				},
				{
					"input":25,
					"interpolation":"LINEAR",
					"output":185
				},
				{
					"input":25,
					"interpolation":"LINEAR",
					"output":186
				},
				{
					"input":25,
					"interpolation":"LINEAR",
					"output":187
				},
				{
					"input":25,
					"interpolation":"STEP",
					"output":188
				},
				{
					"input":25,
					"interpolation":"STEP",
					"output":189
				},
				{
					"input":25,
					"interpolation":"STEP",
					"output":190
				},
				{
					"input":25,
					"interpolation":"STEP",
					"output":191
				},
				{
					"input":22,
					"interpolation":"LINEAR",
					"output":192
				},
				{
					"input":25,
					"interpolation":"STEP",
					"output":193
				},
				{
					"input":25,
					"interpolation":"STEP",
					"output":194
				},
				{
					"input":22,
					"interpolation":"LINEAR",
					"output":195
				},
				{
					"input":25,
					"interpolation":"STEP",
					"output":196
				},
				{
					"input":25,
					"interpolation":"STEP",
					"output":197
				},
				{
					"input":22,
					"interpolation":"LINEAR",
					"output":198
				},
				{
					"input":25,
					"interpolation":"STEP",
					"output":199
				},
				{
					"input":25,
					"interpolation":"STEP",
					"output":200
				},
				{
					"input":22,
					"interpolation":"LINEAR",
					"output":201
				},
				{
					"input":25,
					"interpolation":"STEP",
					"output":202
				},
				{
					"input":25,
					"interpolation":"STEP",
					"output":203
				},
				{
					"input":25,
					"interpolation":"STEP",
					"output":204
				},
				{
					"input":25,
					"interpolation":"STEP",
					"output":205
				},
				{
					"input":25,
					"interpolation":"STEP",
					"output":206
				},
				{
					"input":22,
					"interpolation":"LINEAR",
					"output":207
				},
				{
					"input":25,
					"interpolation":"STEP",
					"output":208
				},
				{
					"input":25,
					"interpolation":"STEP",
					"output":209
				},
				{
					"input":22,
					"interpolation":"LINEAR",
					"output":210
				},
				{
					"input":25,
					"interpolation":"STEP",
					"output":211
				},
				{
					"input":25,
					"interpolation":"STEP",
					"output":212
				},
				{
					"input":22,
					"interpolation":"LINEAR",
					"output":213
				},
				{
					"input":25,
					"interpolation":"STEP",
					"output":214
				},
				{
					"input":25,
					"interpolation":"STEP",
					"output":215
				},
				{
					"input":22,
					"interpolation":"LINEAR",
					"output":216
				},
				{
					"input":25,
					"interpolation":"STEP",
					"output":217
				},
				{
					"input":25,
					"interpolation":"STEP",
					"output":218
				},
				{
					"input":25,
					"interpolation":"STEP",
					"output":219
				},
				{
					"input":25,
					"interpolation":"STEP",
					"output":220
				}
			]
		}
	],
	"materials":[
		{
			"doubleSided":true,
			"extensions":{
				"KHR_materials_specular":{
					"specularColorFactor":[
						2.0,
						2.0,
						2.0
					],
					"specularColorTexture":{
						"index":0
					}
				}
			},
			"name":"Knight_MAT2",
			"normalTexture":{
				"index":1
			},
			"pbrMetallicRoughness":{
				"baseColorTexture":{
					"index":2
				},
				"metallicFactor":0,
				"roughnessFactor":0.5527864098548889
			}
		}
	],
	"meshes":[
		{
			"name":"Body",
			"primitives":[
				{
					"attributes":{
						"POSITION":0,
						"NORMAL":1,
						"TEXCOORD_0":2,
						"TANGENT":3,
						"JOINTS_0":4,
						"WEIGHTS_0":5
					},
					"indices":6,
					"material":0
				}
			]
		},
		{
			"name":"Head_Hands",
			"primitives":[
				{
					"attributes":{
						"POSITION":8,
						"NORMAL":9,
						"TEXCOORD_0":10,
						"TANGENT":11,
						"JOINTS_0":12,
						"WEIGHTS_0":13
					},
					"indices":14,
					"material":0
				}
			]
		},
		{
			"name":"Lower_Armor",
			"primitives":[
				{
					"attributes":{
						"POSITION":15,
						"NORMAL":16,
						"TEXCOORD_0":17,
						"TANGENT":18,
						"JOINTS_0":19,
						"WEIGHTS_0":20
					},
					"indices":21,
					"material":0
				}
			]
		}
	],
	"textures":[
		{
			"sampler":0,
			"source":0
		},
		{
			"sampler":0,
			"source":1
		},
		{
			"sampler":0,
			"source":2
		}
	],
	"images":[
		{
			"mimeType":"image/png",
			"name":"Knight_specular",
			"uri":"Knight_specular.png"
		},
		{
			"mimeType":"image/png",
			"name":"Knight_normal",
			"uri":"Knight_normal.png"
		},
		{
			"mimeType":"image/png",
			"name":"Knight_diffuse",
			"uri":"Knight_diffuse.png"
		}
	],
	"skins":[
		{
			"inverseBindMatrices":7,
			"joints":[
				65,
				54,
				53,
				52,
				3,
				2,
				0,
				1,
				27,
				26,
				25,
				24,
				7,
				6,
				5,
				4,
				11,
				10,
				9,
				8,
				15,
				14,
				13,
				12,
				19,
				18,
				17,
				16,
				23,
				22,
				21,
				20,
				51,
				50,
				49,
				48,
				31,
				30,
				29,
				28,
				35,
				34,
				33,
				32,
				39,
				38,
				37,
				36,
				43,
				42,
				41,
				40,
				47,
				46,
				45,
				44,
				59,
				58,
				57,
				56,
				55,
				64,
				63,
				62,
				61,
				60
			],
			"name":"Armature"
		}
	],
	"accessors":[
		{
			"bufferView":0,
			"componentType":5126,
			"count":2360,
			"max":[
				0.21903067827224731,
				0.6983397006988525,
				0.2549138069152832
			],
			"min":[
				-0.21879470348358154,
				-0.022281602025032043,
				-0.14395283162593842
			],
			"type":"VEC3"
		},
		{
			"bufferView":1,
			"componentType":5126,
			"count":2360,
			"type":"VEC3"
		},
		{
			"bufferView":2,
			"componentType":5126,
			"count":2360,
			"type":"VEC2"
		},
		{
			"bufferView":3,
			"componentType":5126,
			"count":2360,
			"type":"VEC4"
		},
		{
			"bufferView":4,
			"componentType":5121,
			"count":2360,
			"type":"VEC4"
		},
		{
			"bufferView":5,
			"componentType":5126,
			"count":2360,
			"type":"VEC4"
		},
		{
			"bufferView":6,
			"componentType":5123,
			"count":9756,
			"type":"SCALAR"
		},
		{
			"bufferView":7,
			"componentType":5126,
			"count":66,
			"type":"MAT4"
		},
		{
			"bufferView":8,
			"componentType":5126,
			"count":3171,
			"max":[
				1.0453070402145386,
				1.953061580657959,
				0.1456214338541031
			],
			"min":[
				-1.0782743692398071,
				1.5653176307678223,
				-0.13216902315616608
			],
			"type":"VEC3"
		},
		{
			"bufferView":9,
			"componentType":5126,
			"count":3171,
			"type":"VEC3"
		},
		{
			"bufferView":10,
			"componentType":5126,
			"count":3171,
			"type":"VEC2"
		},
		{
			"bufferView":11,
			"componentType":5126,
			"count":3171,
			"type":"VEC4"
		},
		{
			"bufferView":12,
			"componentType":5121,
			"count":3171,
			"type":"VEC4"
		},
		{
			"bufferView":13,
			"componentType":5126,
			"count":3171,
			"type":"VEC4"
		},
		{
			"bufferView":14,
			"componentType":5123,
			"count":15990,
			"type":"SCALAR"
		},
		{
			"bufferView":15,
			"componentType":5126,
			"count":3385,
			"max":[
				0.8266796469688416,
				2.043543577194214,
				0.1938656121492386
			],
			"min":[
				-0.8522617220878601,
				0.42724257707595825,
				-0.23392091691493988
			],
			"type":"VEC3"
		},
		{
			"bufferView":16,
			"componentType":5126,
			"count":3385,
			"type":"VEC3"
		},
		{
			"bufferView":17,
			"componentType":5126,
			"count":3385,
			"type":"VEC2"
		},
		{
			"bufferView":18,
			"componentType":5126,
			"count":3385,
			"type":"VEC4"
		},
		{
			"bufferView":19,
			"componentType":5121,
			"count":3385,
			"type":"VEC4"
		},
		{
			"bufferView":20,
			"componentType":5126,
			"count":3385,
			"type":"VEC4"
		},
		{
			"bufferView":21,
			"componentType":5123,
			"count":13626,
			"type":"SCALAR"
		},
		{
			"bufferView":22,
			"componentType":5126,
			"count":301,
			"max":[
				10.033333333333333
			],
			"min":[
				0.03333333333333333
			],
			"type":"SCALAR"
		},
		{
			"bufferView":23,
			"componentType":5126,
			"count":301,
			"type":"VEC3"
		},
		{
			"bufferView":24,
			"componentType":5126,
			"count":301,
			"type":"VEC4"
		},
		{
			"bufferView":25,
			"componentType":5126,
			"count":2,
			"max":[
				10.033333333333333
			],
			"min":[
				0.03333333333333333
			],
			"type":"SCALAR"
		},
		{
			"bufferView":26,
			"componentType":5126,
			"count":2,
			"type":"VEC3"
		},
		{
			"bufferView":27,
			"componentType":5126,
			"count":2,
			"type":"VEC3"
		},
		{
			"bufferView":28,
			"componentType":5126,
			"count":301,
			"type":"VEC4"
		},
		{
			"bufferView":29,
			"componentType":5126,
			"count":2,
			"type":"VEC3"
		},
		{
			"bufferView":30,
			"componentType":5126,
			"count":2,
			"type":"VEC3"
		},
		{
			"bufferView":31,
			"componentType":5126,
			"count":301,
			"type":"VEC4"
		},
		{
			"bufferView":32,
			"componentType":5126,
			"count":2,
			"type":"VEC3"
		},
		{
			"bufferView":33,
			"componentType":5126,
			"count":2,
			"type":"VEC3"
		},
		{
			"bufferView":34,
			"componentType":5126,
			"count":301,
			"type":"VEC4"
		},
		{
			"bufferView":35,
			"componentType":5126,
			"count":2,
			"type":"VEC3"
		},
		{
			"bufferView":36,
			"componentType":5126,
			"count":2,
			"type":"VEC3"
		},
		{
			"bufferView":37,
			"componentType":5126,
			"count":301,
			"type":"VEC4"
		},
		{
			"bufferView":38,
			"componentType":5126,
			"count":2,
			"type":"VEC3"
		},
		{
			"bufferView":39,
			"componentType":5126,
			"count":2,
			"type":"VEC3"
		},
		{
			"bufferView":40,
			"componentType":5126,
			"count":301,
			"type":"VEC4"
		},
		{
			"bufferView":41,
			"componentType":5126,
			"count":2,
			"type":"VEC3"
		},
		{
			"bufferView":42,
			"componentType":5126,
			"count":2,
			"type":"VEC3"
		},
		{
			"bufferView":43,
			"componentType":5126,
			"count":2,
			"type":"VEC4"
		},
		{
			"bufferView":44,
			"componentType":5126,
			"count":2,
			"type":"VEC3"
		},
		{
			"bufferView":45,
			"componentType":5126,
			"count":2,
			"type":"VEC3"
		},
		{
			"bufferView":46,
			"componentType":5126,
			"count":2,
			"type":"VEC4"
		},
		{
			"bufferView":47,
			"componentType":5126,
			"count":2,
			"type":"VEC3"
		},
		{
			"bufferView":48,
			"componentType":5126,
			"count":2,
			"type":"VEC3"
		},
		{
			"bufferView":49,
			"componentType":5126,
			"count":301,
			"type":"VEC4"
		},
		{
			"bufferView":50,
			"componentType":5126,
			"count":2,
			"type":"VEC3"
		},
		{
			"bufferView":51,
			"componentType":5126,
			"count":2,
			"type":"VEC3"
		},
		{
			"bufferView":52,
			"componentType":5126,
			"count":301,
			"type":"VEC4"
		},
		{
			"bufferView":53,
			"componentType":5126,
			"count":2,
			"type":"VEC3"
		},
		{
			"bufferView":54,
			"componentType":5126,
			"count":2,
			"type":"VEC3"
		},
		{
			"bufferView":55,
			"componentType":5126,
			"count":301,
			"type":"VEC4"
		},
		{
			"bufferView":56,
			"componentType":5126,
			"count":2,
			"type":"VEC3"
		},
		{
			"bufferView":57,
			"componentType":5126,
			"count":2,
			"type":"VEC3"
		},
		{
			"bufferView":58,
			"componentType":5126,
			"count":301,
			"type":"VEC4"
		},
		{
			"bufferView":59,
			"componentType":5126,
			"count":2,
			"type":"VEC3"
		},
		{
			"bufferView":60,
			"componentType":5126,
			"count":2,
			"type":"VEC3"
		},
		{
			"bufferView":61,
			"componentType":5126,
			"count":301,
			"type":"VEC4"
		},
		{
			"bufferView":62,
			"componentType":5126,
			"count":2,
			"type":"VEC3"
		},
		{
			"bufferView":63,
			"componentType":5126,
			"count":2,
			"type":"VEC3"
		},
		{
			"bufferView":64,
			"componentType":5126,
			"count":301,
			"type":"VEC4"
		},
		{
			"bufferView":65,
			"componentType":5126,
			"count":2,
			"type":"VEC3"
		},
		{
			"bufferView":66,
			"componentType":5126,
			"count":2,
			"type":"VEC3"
		},
		{
			"bufferView":67,
			"componentType":5126,
			"count":2,
			"type":"VEC4"
		},
		{
			"bufferView":68,
			"componentType":5126,
			"count":2,
			"type":"VEC3"
		},
		{
			"bufferView":69,
			"componentType":5126,
			"count":2,
			"type":"VEC3"
		},
		{
			"bufferView":70,
			"componentType":5126,
			"count":2,
			"type":"VEC4"
		},
		{
			"bufferView":71,
			"componentType":5126,
			"count":2,
			"type":"VEC3"
		},
		{
			"bufferView":72,
			"componentType":5126,
			"count":2,
			"type":"VEC3"
		},
		{
			"bufferView":73,
			"componentType":5126,
			"count":301,
			"type":"VEC4"
		},
		{
			"bufferView":74,
			"componentType":5126,
			"count":2,
			"type":"VEC3"
		},
		{
			"bufferView":75,
			"componentType":5126,
			"count":2,
			"type":"VEC3"
		},
		{
			"bufferView":76,
			"componentType":5126,
			"count":301,
			"type":"VEC4"
		},
		{
			"bufferView":77,
			"componentType":5126,
			"count":2,
			"type":"VEC3"
		},
		{
			"bufferView":78,
			"componentType":5126,
			"count":2,
			"type":"VEC3"
		},
		{
			"bufferView":79,
			"componentType":5126,
			"count":2,
			"type":"VEC4"
		},
		{
			"bufferView":80,
			"componentType":5126,
			"count":2,
			"type":"VEC3"
		},
		{
			"bufferView":81,
			"componentType":5126,
			"count":2,
			"type":"VEC3"
		},
		{
			"bufferView":82,
			"componentType":5126,
			"count":2,
			"type":"VEC4"
		},
		{
			"bufferView":83,
			"componentType":5126,
			"count":2,
			"type":"VEC3"
		},
		{
			"bufferView":84,
			"componentType":5126,
			"count":2,
			"type":"VEC3"
		},
		{
			"bufferView":85,
			"componentType":5126,
			"count":301,
			"type":"VEC4"
		},
		{
			"bufferView":86,
			"componentType":5126,
			"count":2,
			"type":"VEC3"
		},
		{
			"bufferView":87,
			"componentType":5126,
			"count":2,
			"type":"VEC3"
		},
		{
			"bufferView":88,
			"componentType":5126,
			"count":301,
			"type":"VEC4"
		},
		{
			"bufferView":89,
			"componentType":5126,
			"count":2,
			"type":"VEC3"
		},
		{
			"bufferView":90,
			"componentType":5126,
			"count":2,
			"type":"VEC3"
		},
		{
			"bufferView":91,
			"componentType":5126,
			"count":2,
			"type":"VEC4"
		},
		{
			"bufferView":92,
			"componentType":5126,
			"count":2,
			"type":"VEC3"
		},
		{
			"bufferView":93,
			"componentType":5126,
			"count":2,
			"type":"VEC3"
		},
		{
			"bufferView":94,
			"componentType":5126,
			"count":2,
			"type":"VEC4"
		},
		{
			"bufferView":95,
			"componentType":5126,
			"count":2,
			"type":"VEC3"
		},
		{
			"bufferView":96,
			"componentType":5126,
			"count":2,
			"type":"VEC3"
		},
		{
			"bufferView":97,
			"componentType":5126,
			"count":301,
			"type":"VEC4"
		},
		{
			"bufferView":98,
			"componentType":5126,
			"count":2,
			"type":"VEC3"
		},
		{
			"bufferView":99,
			"componentType":5126,
			"count":2,
			"type":"VEC3"
		},
		{
			"bufferView":100,
			"componentType":5126,
			"count":301,
			"type":"VEC4"
		},
		{
			"bufferView":101,
			"componentType":5126,
			"count":2,
			"type":"VEC3"
		},
		{
			"bufferView":102,
			"componentType":5126,
			"count":2,
			"type":"VEC3"
		},
		{
			"bufferView":103,
			"componentType":5126,
			"count":2,
			"type":"VEC4"
		},
		{
			"bufferView":104,
			"componentType":5126,
			"count":2,
			"type":"VEC3"
		},
		{
			"bufferView":105,
			"componentType":5126,
			"count":2,
			"type":"VEC3"
		},
		{
			"bufferView":106,
			"componentType":5126,
			"count":2,
			"type":"VEC4"
		},
		{
			"bufferView":107,
			"componentType":5126,
			"count":2,
			"type":"VEC3"
		},
		{
			"bufferView":108,
			"componentType":5126,
			"count":2,
			"type":"VEC3"
		},
		{
			"bufferView":109,
			"componentType":5126,
			"count":301,
			"type":"VEC4"
		},
		{
			"bufferView":110,
			"componentType":5126,
			"count":2,
			"type":"VEC3"
		},
		{
			"bufferView":111,
			"componentType":5126,
			"count":2,
			"type":"VEC3"
		},
		{
			"bufferView":112,
			"componentType":5126,
			"count":301,
			"type":"VEC4"
		},
		{
			"bufferView":113,
			"componentType":5126,
			"count":2,
			"type":"VEC3"
		},
		{
			"bufferView":114,
			"componentType":5126,
			"count":2,
			"type":"VEC3"
		},
		{
			"bufferView":115,
			"componentType":5126,
			"count":2,
			"type":"VEC4"
		},
		{
			"bufferView":116,
			"componentType":5126,
			"count":2,
			"type":"VEC3"
		},
		{
			"bufferView":117,
			"componentType":5126,
			"count":2,
			"type":"VEC3"
		},
		{
			"bufferView":118,
			"componentType":5126,
			"count":2,
			"type":"VEC4"
		},
		{
			"bufferView":119,
			"componentType":5126,
			"count":2,
			"type":"VEC3"
		},
		{
			"bufferView":120,
			"componentType":5126,
			"count":2,
			"type":"VEC3"
		},
		{
			"bufferView":121,
			"componentType":5126,
			"count":301,
			"type":"VEC4"
		},
		{
			"bufferView":122,
			"componentType":5126,
			"count":2,
			"type":"VEC3"
		},
		{
			"bufferView":123,
			"componentType":5126,
			"count":2,
			"type":"VEC3"
		},
		{
			"bufferView":124,
			"componentType":5126,
			"count":301,
			"type":"VEC4"
		},
		{
			"bufferView":125,
			"componentType":5126,
			"count":2,
			"type":"VEC3"
		},
		{
			"bufferView":126,
			"componentType":5126,
			"count":2,
			"type":"VEC3"
		},
		{
			"bufferView":127,
			"componentType":5126,
			"count":301,
			"type":"VEC4"
		},
		{
			"bufferView":128,
			"componentType":5126,
			"count":2,
			"type":"VEC3"
		},
		{
			"bufferView":129,
			"componentType":5126,
			"count":2,
			"type":"VEC3"
		},
		{
			"bufferView":130,
			"componentType":5126,
			"count":301,
			"type":"VEC4"
		},
		{
			"bufferView":131,
			"componentType":5126,
			"count":2,
			"type":"VEC3"
		},
		{
			"bufferView":132,
			"componentType":5126,
			"count":2,
			"type":"VEC3"
		},
		{
			"bufferView":133,
			"componentType":5126,
			"count":301,
			"type":"VEC4"
		},
		{
			"bufferView":134,
			"componentType":5126,
			"count":2,
			"type":"VEC3"
		},
		{
			"bufferView":135,
			"componentType":5126,
			"count":2,
			"type":"VEC3"
		},
		{
			"bufferView":136,
			"componentType":5126,
			"count":301,
			"type":"VEC4"
		},
		{
			"bufferView":137,
			"componentType":5126,
			"count":2,
			"type":"VEC3"
		},
		{
			"bufferView":138,
			"componentType":5126,
			"count":2,
			"type":"VEC3"
		},
		{
			"bufferView":139,
			"componentType":5126,
			"count":2,
			"type":"VEC4"
		},
		{
			"bufferView":140,
			"componentType":5126,
			"count":2,
			"type":"VEC3"
		},
		{
			"bufferView":141,
			"componentType":5126,
			"count":2,
			"type":"VEC3"
		},
		{
			"bufferView":142,
			"componentType":5126,
			"count":2,
			"type":"VEC4"
		},
		{
			"bufferView":143,
			"componentType":5126,
			"count":2,
			"type":"VEC3"
		},
		{
			"bufferView":144,
			"componentType":5126,
			"count":2,
			"type":"VEC3"
		},
		{
			"bufferView":145,
			"componentType":5126,
			"count":301,
			"type":"VEC4"
		},
		{
			"bufferView":146,
			"componentType":5126,
			"count":2,
			"type":"VEC3"
		},
		{
			"bufferView":147,
			"componentType":5126,
			"count":301,
			"type":"VEC4"
		},
		{
			"bufferView":148,
			"componentType":5126,
			"count":2,
			"type":"VEC3"
		},
		{
			"bufferView":149,
			"componentType":5126,
			"count":2,
			"type":"VEC3"
		},
		{
			"bufferView":150,
			"componentType":5126,
			"count":2,
			"type":"VEC4"
		},
		{
			"bufferView":151,
			"componentType":5126,
			"count":2,
			"type":"VEC3"
		},
		{
			"bufferView":152,
			"componentType":5126,
			"count":2,
			"type":"VEC3"
		},
		{
			"bufferView":153,
			"componentType":5126,
			"count":2,
			"type":"VEC4"
		},
		{
			"bufferView":154,
			"componentType":5126,
			"count":2,
			"type":"VEC3"
		},
		{
			"bufferView":155,
			"componentType":5126,
			"count":2,
			"type":"VEC3"
		},
		{
			"bufferView":156,
			"componentType":5126,
			"count":301,
			"type":"VEC4"
		},
		{
			"bufferView":157,
			"componentType":5126,
			"count":2,
			"type":"VEC3"
		},
		{
			"bufferView":158,
			"componentType":5126,
			"count":2,
			"type":"VEC3"
		},
		{
			"bufferView":159,
			"componentType":5126,
			"count":301,
			"type":"VEC4"
		},
		{
			"bufferView":160,
			"componentType":5126,
			"count":2,
			"type":"VEC3"
		},
		{
			"bufferView":161,
			"componentType":5126,
			"count":2,
			"type":"VEC3"
		},
		{
			"bufferView":162,
			"componentType":5126,
			"count":2,
			"type":"VEC4"
		},
		{
			"bufferView":163,
			"componentType":5126,
			"count":2,
			"type":"VEC3"
		},
		{
			"bufferView":164,
			"componentType":5126,
			"count":2,
			"type":"VEC3"
		},
		{
			"bufferView":165,
			"componentType":5126,
			"count":2,
			"type":"VEC4"
		},
		{
			"bufferView":166,
			"componentType":5126,
			"count":2,
			"type":"VEC3"
		},
		{
			"bufferView":167,
			"componentType":5126,
			"count":2,
			"type":"VEC3"
		},
		{
			"bufferView":168,
			"componentType":5126,
			"count":301,
			"type":"VEC4"
		},
		{
			"bufferView":169,
			"componentType":5126,
			"count":2,
			"type":"VEC3"
		},
		{
			"bufferView":170,
			"componentType":5126,
			"count":2,
			"type":"VEC3"
		},
		{
			"bufferView":171,
			"componentType":5126,
			"count":301,
			"type":"VEC4"
		},
		{
			"bufferView":172,
			"componentType":5126,
			"count":2,
			"type":"VEC3"
		},
		{
			"bufferView":173,
			"componentType":5126,
			"count":2,
			"type":"VEC3"
		},
		{
			"bufferView":174,
			"componentType":5126,
			"count":2,
			"type":"VEC4"
		},
		{
			"bufferView":175,
			"componentType":5126,
			"count":2,
			"type":"VEC3"
		},
		{
			"bufferView":176,
			"componentType":5126,
			"count":2,
			"type":"VEC3"
		},
		{
			"bufferView":177,
			"componentType":5126,
			"count":2,
			"type":"VEC4"
		},
		{
			"bufferView":178,
			"componentType":5126,
			"count":2,
			"type":"VEC3"
		},
		{
			"bufferView":179,
			"componentType":5126,
			"count":2,
			"type":"VEC3"
		},
		{
			"bufferView":180,
			"componentType":5126,
			"count":301,
			"type":"VEC4"
		},
		{
			"bufferView":181,
			"componentType":5126,
			"count":2,
			"type":"VEC3"
		},
		{
			"bufferView":182,
			"componentType":5126,
			"count":2,
			"type":"VEC3"
		},
		{
			"bufferView":183,
			"componentType":5126,
			"count":301,
			"type":"VEC4"
		},
		{
			"bufferView":184,
			"componentType":5126,
			"count":2,
			"type":"VEC3"
		},
		{
			"bufferView":185,
			"componentType":5126,
			"count":2,
			"type":"VEC3"
		},
		{
			"bufferView":186,
			"componentType":5126,
			"count":2,
			"type":"VEC4"
		},
		{
			"bufferView":187,
			"componentType":5126,
			"count":2,
			"type":"VEC3"
		},
		{
			"bufferView":188,
			"componentType":5126,
			"count":2,
			"type":"VEC3"
		},
		{
			"bufferView":189,
			"componentType":5126,
			"count":2,
			"type":"VEC4"
		},
		{
			"bufferView":190,
			"componentType":5126,
			"count":2,
			"type":"VEC3"
		},
		{
			"bufferView":191,
			"componentType":5126,
			"count":2,
			"type":"VEC3"
		},
		{
			"bufferView":192,
			"componentType":5126,
			"count":301,
			"type":"VEC4"
		},
		{
			"bufferView":193,
			"componentType":5126,
			"count":2,
			"type":"VEC3"
		},
		{
			"bufferView":194,
			"componentType":5126,
			"count":2,
			"type":"VEC3"
		},
		{
			"bufferView":195,
			"componentType":5126,
			"count":301,
			"type":"VEC4"
		},
		{
			"bufferView":196,
			"componentType":5126,
			"count":2,
			"type":"VEC3"
		},
		{
			"bufferView":197,
			"componentType":5126,
			"count":2,
			"type":"VEC3"
		},
		{
			"bufferView":198,
			"componentType":5126,
			"count":301,
			"type":"VEC4"
		},
		{
			"bufferView":199,
			"componentType":5126,
			"count":2,
			"type":"VEC3"
		},
		{
			"bufferView":200,
			"componentType":5126,
			"count":2,
			"type":"VEC3"
		},
		{
			"bufferView":201,
			"componentType":5126,
			"count":301,
			"type":"VEC4"
		},
		{
			"bufferView":202,
			"componentType":5126,
			"count":2,
			"type":"VEC3"
		},
		{
			"bufferView":203,
			"componentType":5126,
			"count":2,
			"type":"VEC3"
		},
		{
			"bufferView":204,
			"componentType":5126,
			"count":2,
			"type":"VEC4"
		},
		{
			"bufferView":205,
			"componentType":5126,
			"count":2,
			"type":"VEC3"
		},
		{
			"bufferView":206,
			"componentType":5126,
			"count":2,
			"type":"VEC3"
		},
		{
			"bufferView":207,
			"componentType":5126,
			"count":301,
			"type":"VEC4"
		},
		{
			"bufferView":208,
			"componentType":5126,
			"count":2,
			"type":"VEC3"
		},
		{
			"bufferView":209,
			"componentType":5126,
			"count":2,
			"type":"VEC3"
		},
		{
			"bufferView":210,
			"componentType":5126,
			"count":301,
			"type":"VEC4"
		},
		{
			"bufferView":211,
			"componentType":5126,
			"count":2,
			"type":"VEC3"
		},
		{
			"bufferView":212,
			"componentType":5126,
			"count":2,
			"type":"VEC3"
		},
		{
			"bufferView":213,
			"componentType":5126,
			"count":301,
			"type":"VEC4"
		},
		{
			"bufferView":214,
			"componentType":5126,
			"count":2,
			"type":"VEC3"
		},
		{
			"bufferView":215,
			"componentType":5126,
			"count":2,
			"type":"VEC3"
		},
		{
			"bufferView":216,
			"componentType":5126,
			"count":301,
			"type":"VEC4"
		},
		{
			"bufferView":217,
			"componentType":5126,
			"count":2,
			"type":"VEC3"
		},
		{
			"bufferView":218,
			"componentType":5126,
			"count":2,
			"type":"VEC3"
		},
		{
			"bufferView":219,
			"componentType":5126,
			"count":2,
			"type":"VEC4"
		},
		{
			"bufferView":220,
			"componentType":5126,
			"count":2,
			"type":"VEC3"
		}
	],
	"bufferViews":[
		{
			"buffer":0,
			"byteLength":28320,
			"byteOffset":0,
			"target":34962
		},
		{
			"buffer":0,
			"byteLength":28320,
			"byteOffset":28320,
			"target":34962
		},
		{
			"buffer":0,
			"byteLength":18880,
			"byteOffset":56640,
			"target":34962
		},
		{
			"buffer":0,
			"byteLength":37760,
			"byteOffset":75520,
			"target":34962
		},
		{
			"buffer":0,
			"byteLength":9440,
			"byteOffset":113280,
			"target":34962
		},
		{
			"buffer":0,
			"byteLength":37760,
			"byteOffset":122720,
			"target":34962
		},
		{
			"buffer":0,
			"byteLength":19512,
			"byteOffset":160480,
			"target":34963
		},
		{
			"buffer":0,
			"byteLength":4224,
			"byteOffset":179992
		},
		{
			"buffer":0,
			"byteLength":38052,
			"byteOffset":184216,
			"target":34962
		},
		{
			"buffer":0,
			"byteLength":38052,
			"byteOffset":222268,
			"target":34962
		},
		{
			"buffer":0,
			"byteLength":25368,
			"byteOffset":260320,
			"target":34962
		},
		{
			"buffer":0,
			"byteLength":50736,
			"byteOffset":285688,
			"target":34962
		},
		{
			"buffer":0,
			"byteLength":12684,
			"byteOffset":336424,
			"target":34962
		},
		{
			"buffer":0,
			"byteLength":50736,
			"byteOffset":349108,
			"target":34962
		},
		{
			"buffer":0,
			"byteLength":31980,
			"byteOffset":399844,
			"target":34963
		},
		{
			"buffer":0,
			"byteLength":40620,
			"byteOffset":431824,
			"target":34962
		},
		{
			"buffer":0,
			"byteLength":40620,
			"byteOffset":472444,
			"target":34962
		},
		{
			"buffer":0,
			"byteLength":27080,
			"byteOffset":513064,
			"target":34962
		},
		{
			"buffer":0,
			"byteLength":54160,
			"byteOffset":540144,
			"target":34962
		},
		{
			"buffer":0,
			"byteLength":13540,
			"byteOffset":594304,
			"target":34962
		},
		{
			"buffer":0,
			"byteLength":54160,
			"byteOffset":607844,
			"target":34962
		},
		{
			"buffer":0,
			"byteLength":27252,
			"byteOffset":662004,
			"target":34963
		},
		{
			"buffer":0,
			"byteLength":1204,
			"byteOffset":689256
		},
		{
			"buffer":0,
			"byteLength":3612,
			"byteOffset":690460
		},
		{
			"buffer":0,
			"byteLength":4816,
			"byteOffset":694072
		},
		{
			"buffer":0,
			"byteLength":8,
			"byteOffset":698888
		},
		{
			"buffer":0,
			"byteLength":24,
			"byteOffset":698896
		},
		{
			"buffer":0,
			"byteLength":24,
			"byteOffset":698920
		},
		{
			"buffer":0,
			"byteLength":4816,
			"byteOffset":698944
		},
		{
			"buffer":0,
			"byteLength":24,
			"byteOffset":703760
		},
		{
			"buffer":0,
			"byteLength":24,
			"byteOffset":703784
		},
		{
			"buffer":0,
			"byteLength":4816,
			"byteOffset":703808
		},
		{
			"buffer":0,
			"byteLength":24,
			"byteOffset":708624
		},
		{
			"buffer":0,
			"byteLength":24,
			"byteOffset":708648
		},
		{
			"buffer":0,
			"byteLength":4816,
			"byteOffset":708672
		},
		{
			"buffer":0,
			"byteLength":24,
			"byteOffset":713488
		},
		{
			"buffer":0,
			"byteLength":24,
			"byteOffset":713512
		},
		{
			"buffer":0,
			"byteLength":4816,
			"byteOffset":713536
		},
		{
			"buffer":0,
			"byteLength":24,
			"byteOffset":718352
		},
		{
			"buffer":0,
			"byteLength":24,
			"byteOffset":718376
		},
		{
			"buffer":0,
			"byteLength":4816,
			"byteOffset":718400
		},
		{
			"buffer":0,
			"byteLength":24,
			"byteOffset":723216
		},
		{
			"buffer":0,
			"byteLength":24,
			"byteOffset":723240
		},
		{
			"buffer":0,
			"byteLength":32,
			"byteOffset":723264
		},
		{
			"buffer":0,
			"byteLength":24,
			"byteOffset":723296
		},
		{
			"buffer":0,
			"byteLength":24,
			"byteOffset":723320
		},
		{
			"buffer":0,
			"byteLength":32,
			"byteOffset":723344
		},
		{
			"buffer":0,
			"byteLength":24,
			"byteOffset":723376
		},
		{
			"buffer":0,
			"byteLength":24,
			"byteOffset":723400
		},
		{
			"buffer":0,
			"byteLength":4816,
			"byteOffset":723424
		},
		{
			"buffer":0,
			"byteLength":24,
			"byteOffset":728240
		},
		{
			"buffer":0,
			"byteLength":24,
			"byteOffset":728264
		},
		{
			"buffer":0,
			"byteLength":4816,
			"byteOffset":728288
		},
		{
			"buffer":0,
			"byteLength":24,
			"byteOffset":733104
		},
		{
			"buffer":0,
			"byteLength":24,
			"byteOffset":733128
		},
		{
			"buffer":0,
			"byteLength":4816,
			"byteOffset":733152
		},
		{
			"buffer":0,
			"byteLength":24,
			"byteOffset":737968
		},
		{
			"buffer":0,
			"byteLength":24,
			"byteOffset":737992
		},
		{
			"buffer":0,
			"byteLength":4816,
			"byteOffset":738016
		},
		{
			"buffer":0,
			"byteLength":24,
			"byteOffset":742832
		},
		{
			"buffer":0,
			"byteLength":24,
			"byteOffset":742856
		},
		{
			"buffer":0,
			"byteLength":4816,
			"byteOffset":742880
		},
		{
			"buffer":0,
			"byteLength":24,
			"byteOffset":747696
		},
		{
			"buffer":0,
			"byteLength":24,
			"byteOffset":747720
		},
		{
			"buffer":0,
			"byteLength":4816,
			"byteOffset":747744
		},
		{
			"buffer":0,
			"byteLength":24,
			"byteOffset":752560
		},
		{
			"buffer":0,
			"byteLength":24,
			"byteOffset":752584
		},
		{
			"buffer":0,
			"byteLength":32,
			"byteOffset":752608
		},
		{
			"buffer":0,
			"byteLength":24,
			"byteOffset":752640
		},
		{
			"buffer":0,
			"byteLength":24,
			"byteOffset":752664
		},
		{
			"buffer":0,
			"byteLength":32,
			"byteOffset":752688
		},
		{
			"buffer":0,
			"byteLength":24,
			"byteOffset":752720
		},
		{
			"buffer":0,
			"byteLength":24,
			"byteOffset":752744
		},
		{
			"buffer":0,
			"byteLength":4816,
			"byteOffset":752768
		},
		{
			"buffer":0,
			"byteLength":24,
			"byteOffset":757584
		},
		{
			"buffer":0,
			"byteLength":24,
			"byteOffset":757608
		},
		{
			"buffer":0,
			"byteLength":4816,
			"byteOffset":757632
		},
		{
			"buffer":0,
			"byteLength":24,
			"byteOffset":762448
		},
		{
			"buffer":0,
			"byteLength":24,
			"byteOffset":762472
		},
		{
			"buffer":0,
			"byteLength":32,
			"byteOffset":762496
		},
		{
			"buffer":0,
			"byteLength":24,
			"byteOffset":762528
		},
		{
			"buffer":0,
			"byteLength":24,
			"byteOffset":762552
		},
		{
			"buffer":0,
			"byteLength":32,
			"byteOffset":762576
		},
		{
			"buffer":0,
			"byteLength":24,
			"byteOffset":762608
		},
		{
			"buffer":0,
			"byteLength":24,
			"byteOffset":762632
		},
		{
			"buffer":0,
			"byteLength":4816,
			"byteOffset":762656
		},
		{
			"buffer":0,
			"byteLength":24,
			"byteOffset":767472
		},
		{
			"buffer":0,
			"byteLength":24,
			"byteOffset":767496
		},
		{
			"buffer":0,
			"byteLength":4816,
			"byteOffset":767520
		},
		{
			"buffer":0,
			"byteLength":24,
			"byteOffset":772336
		},
		{
			"buffer":0,
			"byteLength":24,
			"byteOffset":772360
		},
		{
			"buffer":0,
			"byteLength":32,
			"byteOffset":772384
		},
		{
			"buffer":0,
			"byteLength":24,
			"byteOffset":772416
		},
		{
			"buffer":0,
			"byteLength":24,
			"byteOffset":772440
		},
		{
			"buffer":0,
			"byteLength":32,
			"byteOffset":772464
		},
		{
			"buffer":0,
			"byteLength":24,
			"byteOffset":772496
		},
		{
			"buffer":0,
			"byteLength":24,
			"byteOffset":772520
		},
		{
			"buffer":0,
			"byteLength":4816,
			"byteOffset":772544
		},
		{
			"buffer":0,
			"byteLength":24,
			"byteOffset":777360
		},
		{
			"buffer":0,
			"byteLength":24,
			"byteOffset":777384
		},
		{
			"buffer":0,
			"byteLength":4816,
			"byteOffset":777408
		},
		{
			"buffer":0,
			"byteLength":24,
			"byteOffset":782224
		},
		{
			"buffer":0,
			"byteLength":24,
			"byteOffset":782248
		},
		{
			"buffer":0,
			"byteLength":32,
			"byteOffset":782272
		},
		{
			"buffer":0,
			"byteLength":24,
			"byteOffset":782304
		},
		{
			"buffer":0,
			"byteLength":24,
			"byteOffset":782328
		},
		{
			"buffer":0,
			"byteLength":32,
			"byteOffset":782352
		},
		{
			"buffer":0,
			"byteLength":24,
			"byteOffset":782384
		},
		{
			"buffer":0,
			"byteLength":24,
			"byteOffset":782408
		},
		{
			"buffer":0,
			"byteLength":4816,
			"byteOffset":782432
		},
		{
			"buffer":0,
			"byteLength":24,
			"byteOffset":787248
		},
		{
			"buffer":0,
			"byteLength":24,
			"byteOffset":787272
		},
		{
			"buffer":0,
			"byteLength":4816,
			"byteOffset":787296
		},
		{
			"buffer":0,
			"byteLength":24,
			"byteOffset":792112
		},
		{
			"buffer":0,
			"byteLength":24,
			"byteOffset":792136
		},
		{
			"buffer":0,
			"byteLength":32,
			"byteOffset":792160
		},
		{
			"buffer":0,
			"byteLength":24,
			"byteOffset":792192
		},
		{
			"buffer":0,
			"byteLength":24,
			"byteOffset":792216
		},
		{
			"buffer":0,
			"byteLength":32,
			"byteOffset":792240
		},
		{
			"buffer":0,
			"byteLength":24,
			"byteOffset":792272
		},
		{
			"buffer":0,
			"byteLength":24,
			"byteOffset":792296
		},
		{
			"buffer":0,
			"byteLength":4816,
			"byteOffset":792320
		},
		{
			"buffer":0,
			"byteLength":24,
			"byteOffset":797136
		},
		{
			"buffer":0,
			"byteLength":24,
			"byteOffset":797160
		},
		{
			"buffer":0,
			"byteLength":4816,
			"byteOffset":797184
		},
		{
			"buffer":0,
			"byteLength":24,
			"byteOffset":802000
		},
		{
			"buffer":0,
			"byteLength":24,
			"byteOffset":802024
		},
		{
			"buffer":0,
			"byteLength":4816,
			"byteOffset":802048
		},
		{
			"buffer":0,
			"byteLength":24,
			"byteOffset":806864
		},
		{
			"buffer":0,
			"byteLength":24,
			"byteOffset":806888
		},
		{
			"buffer":0,
			"byteLength":4816,
			"byteOffset":806912
		},
		{
			"buffer":0,
			"byteLength":24,
			"byteOffset":811728
		},
		{
			"buffer":0,
			"byteLength":24,
			"byteOffset":811752
		},
		{
			"buffer":0,
			"byteLength":4816,
			"byteOffset":811776
		},
		{
			"buffer":0,
			"byteLength":24,
			"byteOffset":816592
		},
		{
			"buffer":0,
			"byteLength":24,
			"byteOffset":816616
		},
		{
			"buffer":0,
			"byteLength":4816,
			"byteOffset":816640
		},
		{
			"buffer":0,
			"byteLength":24,
			"byteOffset":821456
		},
		{
			"buffer":0,
			"byteLength":24,
			"byteOffset":821480
		},
		{
			"buffer":0,
			"byteLength":32,
			"byteOffset":821504
		},
		{
			"buffer":0,
			"byteLength":24,
			"byteOffset":821536
		},
		{
			"buffer":0,
			"byteLength":24,
			"byteOffset":821560
		},
		{
			"buffer":0,
			"byteLength":32,
			"byteOffset":821584
		},
		{
			"buffer":0,
			"byteLength":24,
			"byteOffset":821616
		},
		{
			"buffer":0,
			"byteLength":24,
			"byteOffset":821640
		},
		{
			"buffer":0,
			"byteLength":4816,
			"byteOffset":821664
		},
		{
			"buffer":0,
			"byteLength":24,
			"byteOffset":826480
		},
		{
			"buffer":0,
			"byteLength":4816,
			"byteOffset":826504
		},
		{
			"buffer":0,
			"byteLength":24,
			"byteOffset":831320
		},
		{
			"buffer":0,
			"byteLength":24,
			"byteOffset":831344
		},
		{
			"buffer":0,
			"byteLength":32,
			"byteOffset":831368
		},
		{
			"buffer":0,
			"byteLength":24,
			"byteOffset":831400
		},
		{
			"buffer":0,
			"byteLength":24,
			"byteOffset":831424
		},
		{
			"buffer":0,
			"byteLength":32,
			"byteOffset":831448
		},
		{
			"buffer":0,
			"byteLength":24,
			"byteOffset":831480
		},
		{
			"buffer":0,
			"byteLength":24,
			"byteOffset":831504
		},
		{
			"buffer":0,
			"byteLength":4816,
			"byteOffset":831528
		},
		{
			"buffer":0,
			"byteLength":24,
			"byteOffset":836344
		},
		{
			"buffer":0,
			"byteLength":24,
			"byteOffset":836368
		},
		{
			"buffer":0,
			"byteLength":4816,
			"byteOffset":836392
		},
		{
			"buffer":0,
			"byteLength":24,
			"byteOffset":841208
		},
		{
			"buffer":0,
			"byteLength":24,
			"byteOffset":841232
		},
		{
			"buffer":0,
			"byteLength":32,
			"byteOffset":841256
		},
		{
			"buffer":0,
			"byteLength":24,
			"byteOffset":841288
		},
		{
			"buffer":0,
			"byteLength":24,
			"byteOffset":841312
		},
		{
			"buffer":0,
			"byteLength":32,
			"byteOffset":841336
		},
		{
			"buffer":0,
			"byteLength":24,
			"byteOffset":841368
		},
		{
			"buffer":0,
			"byteLength":24,
			"byteOffset":841392
		},
		{
			"buffer":0,
			"byteLength":4816,
			"byteOffset":841416
		},
		{
			"buffer":0,
			"byteLength":24,
			"byteOffset":846232
		},
		{
			"buffer":0,
			"byteLength":24,
			"byteOffset":846256
		},
		{
			"buffer":0,
			"byteLength":4816,
			"byteOffset":846280
		},
		{
			"buffer":0,
			"byteLength":24,
			"byteOffset":851096
		},
		{
			"buffer":0,
			"byteLength":24,
			"byteOffset":851120
		},
		{
			"buffer":0,
			"byteLength":32,
			"byteOffset":851144
		},
		{
			"buffer":0,
			"byteLength":24,
			"byteOffset":851176
		},
		{
			"buffer":0,
			"byteLength":24,
			"byteOffset":851200
		},
		{
			"buffer":0,
			"byteLength":32,
			"byteOffset":851224
		},
		{
			"buffer":0,
			"byteLength":24,
			"byteOffset":851256
		},
		{
			"buffer":0,
			"byteLength":24,
			"byteOffset":851280
		},
		{
			"buffer":0,
			"byteLength":4816,
			"byteOffset":851304
		},
		{
			"buffer":0,
			"byteLength":24,
			"byteOffset":856120
		},
		{
			"buffer":0,
			"byteLength":24,
			"byteOffset":856144
		},
		{
			"buffer":0,
			"byteLength":4816,
			"byteOffset":856168
		},
		{
			"buffer":0,
			"byteLength":24,
			"byteOffset":860984
		},
		{
			"buffer":0,
			"byteLength":24,
			"byteOffset":861008
		},
		{
			"buffer":0,
			"byteLength":32,
			"byteOffset":861032
		},
		{
			"buffer":0,
			"byteLength":24,
			"byteOffset":861064
		},
		{
			"buffer":0,
			"byteLength":24,
			"byteOffset":861088
		},
		{
			"buffer":0,
			"byteLength":32,
			"byteOffset":861112
		},
		{
			"buffer":0,
			"byteLength":24,
			"byteOffset":861144
		},
		{
			"buffer":0,
			"byteLength":24,
			"byteOffset":861168
		},
		{
			"buffer":0,
			"byteLength":4816,
			"byteOffset":861192
		},
		{
			"buffer":0,
			"byteLength":24,
			"byteOffset":866008
		},
		{
			"buffer":0,
			"byteLength":24,
			"byteOffset":866032
		},
		{
			"buffer":0,
			"byteLength":4816,
			"byteOffset":866056
		},
		{
			"buffer":0,
			"byteLength":24,
			"byteOffset":870872
		},
		{
			"buffer":0,
			"byteLength":24,
			"byteOffset":870896
		},
		{
			"buffer":0,
			"byteLength":4816,
			"byteOffset":870920
		},
		{
			"buffer":0,
			"byteLength":24,
			"byteOffset":875736
		},
		{
			"buffer":0,
			"byteLength":24,
			"byteOffset":875760
		},
		{
			"buffer":0,
			"byteLength":4816,
			"byteOffset":875784
		},
		{
			"buffer":0,
			"byteLength":24,
			"byteOffset":880600
		},
		{
			"buffer":0,
			"byteLength":24,
			"byteOffset":880624
		},
		{
			"buffer":0,
			"byteLength":32,
			"byteOffset":880648
		},
		{
			"buffer":0,
			"byteLength":24,
			"byteOffset":880680
		},
		{
			"buffer":0,
			"byteLength":24,
			"byteOffset":880704
		},
		{
			"buffer":0,
			"byteLength":4816,
			"byteOffset":880728
		},
		{
			"buffer":0,
			"byteLength":24,
			"byteOffset":885544
		},
		{
			"buffer":0,
			"byteLength":24,
			"byteOffset":885568
		},
		{
			"buffer":0,
			"byteLength":4816,
			"byteOffset":885592
		},
		{
			"buffer":0,
			"byteLength":24,
			"byteOffset":890408
		},
		{
			"buffer":0,
			"byteLength":24,
			"byteOffset":890432
		},
		{
			"buffer":0,
			"byteLength":4816,
			"byteOffset":890456
		},
		{
			"buffer":0,
			"byteLength":24,
			"byteOffset":895272
		},
		{
			"buffer":0,
			"byteLength":24,
			"byteOffset":895296
		},
		{
			"buffer":0,
			"byteLength":4816,
			"byteOffset":895320
		},
		{
			"buffer":0,
			"byteLength":24,
			"byteOffset":900136
		},
		{
			"buffer":0,
			"byteLength":24,
			"byteOffset":900160
		},
		{
			"buffer":0,
			"byteLength":32,
			"byteOffset":900184
		},
		{
			"buffer":0,
			"byteLength":24,
			"byteOffset":900216
		}
	],
	"samplers":[
		{
			"magFilter":9729,
			"minFilter":9987
		}
	],
	"buffers":[
		{
			"byteLength":900240,
			"uri":"idle.bin"
		}
	]
}
