{
	"asset":{
		"generator":"Khronos glTF Blender I/O v5.0.21",
		"version":"2.0"
	},
	"scene":0,
	"scenes":[
		{
			"name":"Scene",
			"nodes":[
				66
			]
		}
	],
	"nodes":[
		{
			"name":"mixamorig:HeadTop_End",
			"rotation":[
				-7.1054265105680546e-15,
				-1.3124388810769015e-18,
				7.545250483530676e-19,
				1
			],
			"translation":[
				-1.6626918730722196e-09,
				17.782989501953125,
				3.8036000728607178
			]
		},
		{
			"name":"mixamorig:RightEye",
			"rotation":[
				0.7071067690849304,
				-1.0890384080641802e-11,
				-1.0890388417450492e-11,
				0.7071067690849304
			],
			"translation":[
				-3.293299913406372,
				4.765913486480713,
				6.339300155639648
			]
		},
		{
			"children":[
				0,
				1
			],
			"name":"mixamorig:Head",
			"rotation":[
				-7.1054265105680546e-15,
				-9.801159680564256e-19,
				7.331510398778107e-12,
				1
			],
			"translation":[
				-2.656249664667598e-09,
				10.037124633789062,
				3.5294997692108154
			]
		},
		{
			"children":[
				2
			],
			"name":"mixamorig:Neck",
			"rotation":[
				-7.105426934084528e-15,
				1.2070183177601002e-12,
				-2.1883432566038863e-11,
				1
			],
			"translation":[
				-0.006000002380460501,
				23.7235107421875,
				-1.4462001323699951
			]
		},
		{
			"name":"mixamorig:LeftHandThumb4",
			"rotation":[
				-2.2351741790771484e-08,
				-4.889444227273998e-08,
				-6.426125764846802e-08,
				1
			],
			"scale":[
				0.9999999403953552,
				1,
				0.9999998807907104
			],
			"translation":[
				-5.0067901611328125e-06,
				3.9073007106781006,
				-1.341104507446289e-05
			]
		},
		{
			"children":[
				4
			],
			"name":"mixamorig:LeftHandThumb3",
			"rotation":[
				4.2468306560294877e-07,
				2.817250503994728e-07,
				2.2700986335166817e-07,
				1
			],
			"scale":[
				1.0000001192092896,
				1,
				1.0000001192092896
			],
			"translation":[
				3.6954879760742188e-06,
				3.6363978385925293,
				-7.718801498413086e-06
			]
		},
		{
			"children":[
				5
			],
			"name":"mixamorig:LeftHandThumb2",
			"rotation":[
				1.3411046211331268e-06,
				3.497116551898216e-07,
				2.2887255113346328e-07,
				1
			],
			"scale":[
				0.9999999403953552,
				0.9999999403953552,
				0.9999998807907104
			],
			"translation":[
				1.6689300537109375e-06,
				4.523191452026367,
				3.159046173095703e-06
			]
		},
		{
			"children":[
				6
			],
			"name":"mixamorig:LeftHandThumb1",
			"rotation":[
				0.2186320573091507,
				0.07168272137641907,
				0.254757285118103,
				0.9392339587211609
			],
			"scale":[
				0.9999999403953552,
				1,
				1
			],
			"translation":[
				-2.604400396347046,
				4.344904899597168,
				2.566801071166992
			]
		},
		{
			"name":"mixamorig:LeftHandIndex4",
			"rotation":[
				-1.8348495466058434e-15,
				-4.547473508864641e-13,
				-1.1497964039208775e-16,
				1
			],
			"translation":[
				-9.313225746154785e-08,
				2.9817075729370117,
				-8.744598744669929e-06
			]
		},
		{
			"children":[
				8
			],
			"name":"mixamorig:LeftHandIndex3",
			"rotation":[
				-1.8348495466058434e-15,
				-4.547473508864641e-13,
				-1.1497964039208775e-16,
				1
			],
			"translation":[
				-9.313225746154785e-08,
				2.907191276550293,
				-8.744598744669929e-06
			]
		},
		{
			"children":[
				9
			],
			"name":"mixamorig:LeftHandIndex2",
			"rotation":[
				-1.8348495466058434e-15,
				-4.547473508864641e-13,
				-1.1497964039208775e-16,
				1
			],
			"translation":[
				-9.313225746154785e-08,
				4.5091047286987305,
				-8.744598744669929e-06
			]
		},
		{
			"children":[
				10
			],
			"name":"mixamorig:LeftHandIndex1",
			"rotation":[
				-1.8348495466058434e-15,
				-1.5916157281026244e-12,
				-1.1497964039208775e-16,
				1
			],
			"translation":[
				-3.4024007320404053,
				12.111605644226074,
				0.3158939778804779
			]
		},
		{
			"name":"mixamorig:LeftHandMiddle4",
			"rotation":[
				-5.854691731421724e-17,
				0,
				-1.149525353377756e-16,
				1
			],
			"scale":[
				1,
				0.9999999403953552,
				1
			],
			"translation":[
				-1.605367287993431e-07,
				4.715601444244385,
				1.3521930668503046e-06
			]
		},
		{
			"children":[
				12
			],
			"name":"mixamorig:LeftHandMiddle3",
			"rotation":[
				-1.8348495466058434e-15,
				-4.547473508864641e-13,
				-1.1497964039208775e-16,
				1
			],
			"scale":[
				1,
				0.9999999403953552,
				1
			],
			"translation":[
				3.163004294037819e-07,
				2.832498788833618,
				-1.3906592357670888e-05
			]
		},
		{
			"children":[
				13
			],
			"name":"mixamorig:LeftHandMiddle2",
			"rotation":[
				-1.8348495466058434e-15,
				-4.547473508864641e-13,
				-1.1497964039208775e-16,
				1
			],
			"translation":[
				3.163004294037819e-07,
				3.6202032566070557,
				-1.3906592357670888e-05
			]
		},
		{
			"children":[
				14
			],
			"name":"mixamorig:LeftHandMiddle1",
			"rotation":[
				-1.8348495466058434e-15,
				-1.5916157281026244e-12,
				-1.1497964039208775e-16,
				1
			],
			"translation":[
				3.1688250601291656e-07,
				13.093812942504883,
				-1.3906585081713274e-05
			]
		},
		{
			"name":"mixamorig:LeftHandRing4",
			"rotation":[
				-5.854691731421724e-17,
				0,
				-1.149525485726654e-16,
				1
			],
			"scale":[
				0.9999999403953552,
				0.9999999403953552,
				1
			],
			"translation":[
				1.5157274901866913e-07,
				3.120591640472412,
				1.0183292033616453e-05
			]
		},
		{
			"children":[
				16
			],
			"name":"mixamorig:LeftHandRing3",
			"rotation":[
				-5.854691731421724e-17,
				0,
				-1.149525353377756e-16,
				1
			],
			"scale":[
				1,
				0.9999999403953552,
				1
			],
			"translation":[
				-3.2549723982810974e-07,
				3.435586452484131,
				2.5442081096116453e-05
			]
		},
		{
			"children":[
				17
			],
			"name":"mixamorig:LeftHandRing2",
			"rotation":[
				-5.854691731421724e-17,
				0,
				-1.149525353377756e-16,
				1
			],
			"translation":[
				-3.2549723982810974e-07,
				2.9359984397888184,
				2.5442081096116453e-05
			]
		},
		{
			"children":[
				18
			],
			"name":"mixamorig:LeftHandRing1",
			"rotation":[
				-1.8348495466058434e-15,
				-1.5916157281026244e-12,
				-1.1497964039208775e-16,
				1
			],
			"scale":[
				1,
				0.9999999403953552,
				1
			],
			"translation":[
				3.523101568222046,
				12.918802261352539,
				-0.015904733911156654
			]
		},
		{
			"name":"mixamorig:LeftHandPinky4",
			"rotation":[
				-5.860112742284151e-17,
				2.2737367544323206e-13,
				-1.1492543028346347e-16,
				1
			],
			"scale":[
				1,
				0.9999999403953552,
				1
			],
			"translation":[
				-2.0943116396665573e-07,
				2.978898048400879,
				9.290451998822391e-06
			]
		},
		{
			"children":[
				20
			],
			"name":"mixamorig:LeftHandPinky3",
			"rotation":[
				-1.8349037567144677e-15,
				-4.547473508864641e-13,
				-1.149525353377756e-16,
				1
			],
			"scale":[
				1,
				0.9999999403953552,
				1
			],
			"translation":[
				-1.1629890650510788e-06,
				2.0737924575805664,
				-5.968322511762381e-06
			]
		},
		{
			"children":[
				21
			],
			"name":"mixamorig:LeftHandPinky2",
			"rotation":[
				-1.8348495466058434e-15,
				-4.547473508864641e-13,
				-1.1497964039208775e-16,
				1
			],
			"translation":[
				-1.1629890650510788e-06,
				2.4747018814086914,
				-5.968322511762381e-06
			]
		},
		{
			"children":[
				22
			],
			"name":"mixamorig:LeftHandPinky1",
			"rotation":[
				-1.8348495466058434e-15,
				-1.5916157281026244e-12,
				-1.1497964039208775e-16,
				1
			],
			"translation":[
				6.518402576446533,
				11.479310035705566,
				0.31609511375427246
			]
		},
		{
			"children":[
				7,
				11,
				15,
				19,
				23
			],
			"name":"mixamorig:LeftHand",
			"rotation":[
				4.382507811512282e-15,
				-4.649162292480469e-06,
				-1.1853893901089932e-16,
				1
			],
			"translation":[
				-1.86395482160151e-07,
				26.71309471130371,
				-2.0292553017497994e-05
			]
		},
		{
			"children":[
				24
			],
			"name":"mixamorig:LeftForeArm",
			"rotation":[
				-1.4901162970204496e-08,
				-7.258321721437255e-10,
				-4.091887939594585e-10,
				1
			],
			"translation":[
				9.875618900423433e-08,
				30.736709594726562,
				-2.187591599067673e-05
			]
		},
		{
			"children":[
				25
			],
			"name":"mixamorig:LeftArm",
			"rotation":[
				-0.23298443853855133,
				-0.0024823995772749186,
				0.010359354317188263,
				0.9724221229553223
			],
			"scale":[
				1,
				1.000000238418579,
				1.0000001192092896
			],
			"translation":[
				-5.960464477539063e-08,
				12.686799049377441,
				-9.559969385009026e-07
			]
		},
		{
			"children":[
				26
			],
			"name":"mixamorig:LeftShoulder",
			"rotation":[
				0.5987646579742432,
				0.37613940238952637,
				-0.606641948223114,
				0.3632982671260834
			],
			"scale":[
				0.9999997019767761,
				0.9999997615814209,
				1
			],
			"translation":[
				11.304899215698242,
				19.886016845703125,
				-3.9660003185272217
			]
		},
		{
			"name":"mixamorig:RightHandThumb4",
			"rotation":[
				-1.6763806343078613e-08,
				-1.0803341865539551e-07,
				1.6298145055770874e-09,
				1
			],
			"translation":[
				2.1457672119140625e-06,
				3.907304286956787,
				-1.0132789611816406e-06
			]
		},
		{
			"children":[
				28
			],
			"name":"mixamorig:RightHandThumb3",
			"rotation":[
				3.799796672865341e-07,
				-2.6635825634002686e-07,
				-1.7671848695499648e-07,
				1
			],
			"scale":[
				1,
				0.9999998211860657,
				1
			],
			"translation":[
				-1.5497207641601562e-06,
				3.6363933086395264,
				-3.2186508178710938e-06
			]
		},
		{
			"children":[
				29
			],
			"name":"mixamorig:RightHandThumb2",
			"rotation":[
				1.0672955568225007e-06,
				3.203749372460152e-07,
				1.8812713165061723e-07,
				1
			],
			"scale":[
				1.0000001192092896,
				1.0000001192092896,
				1.0000001192092896
			],
			"translation":[
				-1.7881393432617188e-07,
				4.523193359375,
				-1.0915100574493408e-05
			]
		},
		{
			"children":[
				30
			],
			"name":"mixamorig:RightHandThumb1",
			"rotation":[
				0.21939553320407867,
				-0.06885460019111633,
				-0.2541006803512573,
				0.9394453167915344
			],
			"scale":[
				1,
				1,
				0.9999999403953552
			],
			"translation":[
				2.7121996879577637,
				6.800008296966553,
				2.7897963523864746
			]
		},
		{
			"name":"mixamorig:RightHandIndex4",
			"rotation":[
				1.520983314415555e-16,
				1.4210856409267898e-14,
				1.5551770551143658e-15,
				1
			],
			"scale":[
				1,
				1,
				0.9999999403953552
			],
			"translation":[
				2.006709109991789e-08,
				2.981694459915161,
				6.980809530432452e-07
			]
		},
		{
			"children":[
				32
			],
			"name":"mixamorig:RightHandIndex3",
			"rotation":[
				1.520983314415555e-16,
				1.4210856409267898e-14,
				1.5551770551143658e-15,
				1
			],
			"scale":[
				1,
				1,
				0.9999999403953552
			],
			"translation":[
				2.006709109991789e-08,
				2.907193422317505,
				6.980809530432452e-07
			]
		},
		{
			"children":[
				33
			],
			"name":"mixamorig:RightHandIndex2",
			"rotation":[
				1.520983314415555e-16,
				1.4210856409267898e-14,
				1.5551770551143658e-15,
				1
			],
			"scale":[
				1,
				1,
				0.9999999403953552
			],
			"translation":[
				2.006709109991789e-08,
				4.509106636047363,
				6.980809530432452e-07
			]
		},
		{
			"children":[
				34
			],
			"name":"mixamorig:RightHandIndex1",
			"rotation":[
				1.520983314415555e-16,
				-9.94759897826776e-14,
				1.5551770551143658e-15,
				1
			],
			"scale":[
				1,
				1,
				0.9999999403953552
			],
			"translation":[
				3.5263993740081787,
				14.4974946975708,
				1.2490088939666748
			]
		},
		{
			"name":"mixamorig:RightHandMiddle4",
			"rotation":[
				1.520983314415555e-16,
				1.4210856409267898e-14,
				1.5551770551143658e-15,
				1
			],
			"scale":[
				1,
				1,
				0.9999999403953552
			],
			"translation":[
				-2.9691727831959724e-07,
				4.715596675872803,
				-1.1092972272308543e-05
			]
		},
		{
			"children":[
				36
			],
			"name":"mixamorig:RightHandMiddle3",
			"rotation":[
				1.520983314415555e-16,
				1.4210856409267898e-14,
				1.5551770551143658e-15,
				1
			],
			"scale":[
				1,
				1,
				0.9999999403953552
			],
			"translation":[
				-2.9691727831959724e-07,
				2.8324944972991943,
				-1.1092972272308543e-05
			]
		},
		{
			"children":[
				37
			],
			"name":"mixamorig:RightHandMiddle2",
			"rotation":[
				1.520983314415555e-16,
				1.4210856409267898e-14,
				1.5551770551143658e-15,
				1
			],
			"scale":[
				1,
				1,
				0.9999999403953552
			],
			"translation":[
				-2.9691727831959724e-07,
				3.620206594467163,
				-1.1092972272308543e-05
			]
		},
		{
			"children":[
				38
			],
			"name":"mixamorig:RightHandMiddle1",
			"rotation":[
				1.520983314415555e-16,
				-9.94759897826776e-14,
				1.5551770551143658e-15,
				1
			],
			"scale":[
				1,
				1,
				0.9999999403953552
			],
			"translation":[
				-2.968881744891405e-07,
				15.099706649780273,
				-1.1092973181803245e-05
			]
		},
		{
			"name":"mixamorig:RightHandRing4",
			"rotation":[
				1.520983314415555e-16,
				1.4210856409267898e-14,
				1.5551770551143658e-15,
				1
			],
			"scale":[
				1,
				1,
				0.9999999403953552
			],
			"translation":[
				-6.113259587436914e-08,
				3.120603561401367,
				-7.639297109562904e-06
			]
		},
		{
			"children":[
				40
			],
			"name":"mixamorig:RightHandRing3",
			"rotation":[
				1.520983314415555e-16,
				1.4210856409267898e-14,
				1.5551770551143658e-15,
				1
			],
			"scale":[
				1,
				1,
				0.9999999403953552
			],
			"translation":[
				-6.113259587436914e-08,
				3.435598373413086,
				-7.639297109562904e-06
			]
		},
		{
			"children":[
				41
			],
			"name":"mixamorig:RightHandRing2",
			"rotation":[
				1.520983314415555e-16,
				1.4210856409267898e-14,
				1.5551770551143658e-15,
				1
			],
			"scale":[
				1,
				1,
				0.9999999403953552
			],
			"translation":[
				-6.113259587436914e-08,
				2.935995101928711,
				-7.639297109562904e-06
			]
		},
		{
			"children":[
				42
			],
			"name":"mixamorig:RightHandRing1",
			"rotation":[
				1.520983314415555e-16,
				-9.94759897826776e-14,
				1.5551770551143658e-15,
				1
			],
			"scale":[
				1,
				1,
				0.9999999403953552
			],
			"translation":[
				-3.5120997428894043,
				15.621702194213867,
				0.7730026245117188
			]
		},
		{
			"name":"mixamorig:RightHandPinky4",
			"rotation":[
				-2.9199936197286946e-16,
				-2.842170943040401e-14,
				-1.9975374707190824e-15,
				1
			],
			"scale":[
				1,
				0.9999999403953552,
				1
			],
			"translation":[
				1.4920078683644533e-07,
				2.9788880348205566,
				-4.766789061250165e-06
			]
		},
		{
			"children":[
				44
			],
			"name":"mixamorig:RightHandPinky3",
			"rotation":[
				1.5209324924387197e-16,
				-2.8421712818535796e-14,
				1.5551770551143658e-15,
				1
			],
			"scale":[
				1,
				0.9999998807907104,
				0.9999999403953552
			],
			"translation":[
				1.4922989066690207e-07,
				2.073805332183838,
				1.0491999091755133e-05
			]
		},
		{
			"children":[
				45
			],
			"name":"mixamorig:RightHandPinky2",
			"rotation":[
				1.520983314415555e-16,
				1.4210856409267898e-14,
				1.5551770551143658e-15,
				1
			],
			"scale":[
				1,
				1,
				0.9999999403953552
			],
			"translation":[
				1.4922989066690207e-07,
				2.4747071266174316,
				1.0491999091755133e-05
			]
		},
		{
			"children":[
				46
			],
			"name":"mixamorig:RightHandPinky1",
			"rotation":[
				1.520983314415555e-16,
				-9.94759897826776e-14,
				1.5551770551143658e-15,
				1
			],
			"scale":[
				1,
				1,
				0.9999999403953552
			],
			"translation":[
				-6.433199882507324,
				14.089704513549805,
				1.0012006759643555
			]
		},
		{
			"children":[
				31,
				35,
				39,
				43,
				47
			],
			"name":"mixamorig:RightHand",
			"rotation":[
				-7.360769251199073e-16,
				-1.0132789611816406e-06,
				-1.1015434515448621e-16,
				1
			],
			"scale":[
				1,
				1,
				0.9999999403953552
			],
			"translation":[
				1.8630814224707137e-07,
				26.713102340698242,
				-1.9678056560223922e-05
			]
		},
		{
			"children":[
				48
			],
			"name":"mixamorig:RightForeArm",
			"rotation":[
				5.702832488264421e-16,
				-7.904076004816574e-11,
				-1.199242705141046e-09,
				1
			],
			"scale":[
				1,
				0.9999998807907104,
				0.9999999403953552
			],
			"translation":[
				-1.3629541228965536e-07,
				30.736698150634766,
				-1.9678725948324427e-05
			]
		},
		{
			"children":[
				49
			],
			"name":"mixamorig:RightArm",
			"rotation":[
				-0.2329844981431961,
				0.0024823988787829876,
				-0.010359363630414009,
				0.9724221229553223
			],
			"scale":[
				1,
				1,
				1.0000001192092896
			],
			"translation":[
				-3.2782554626464844e-07,
				12.686793327331543,
				6.581892193935346e-06
			]
		},
		{
			"children":[
				50
			],
			"name":"mixamorig:RightShoulder",
			"rotation":[
				0.5987645983695984,
				-0.376139372587204,
				0.6066420078277588,
				0.3632981777191162
			],
			"scale":[
				1.0000001192092896,
				1.0000001192092896,
				1.0000001192092896
			],
			"translation":[
				-11.278600692749023,
				19.886016845703125,
				-3.9660003185272217
			]
		},
		{
			"children":[
				3,
				27,
				51
			],
			"name":"mixamorig:Spine2",
			"rotation":[
				-7.539274093915083e-09,
				-3.1415929697686806e-05,
				-0.0002399827353656292,
				1
			],
			"scale":[
				0.9999999403953552,
				1,
				1
			],
			"translation":[
				7.269344681759549e-09,
				11.062994956970215,
				4.547473508864641e-13
			]
		},
		{
			"children":[
				52
			],
			"name":"mixamorig:Spine1",
			"rotation":[
				-4.317968205214129e-09,
				-2.3561940906802192e-05,
				-0.0001832594716688618,
				1
			],
			"translation":[
				1.2347660671707672e-08,
				9.224204063415527,
				-1.7621459846850485e-12
			]
		},
		{
			"children":[
				53
			],
			"name":"mixamorig:Spine",
			"rotation":[
				-2.3220978917493085e-08,
				5.4977870604489e-05,
				0.00042236957233399153,
				0.9999999403953552
			],
			"scale":[
				0.9999999403953552,
				1,
				1
			],
			"translation":[
				-1.818989230073509e-11,
				13.214797973632812,
				3.1554436208840472e-24
			]
		},
		{
			"name":"mixamorig:LeftToe_End",
			"rotation":[
				1.605576471774839e-08,
				-3.750315613615385e-09,
				3.717886443155294e-09,
				1
			],
			"scale":[
				1.0000001192092896,
				1,
				0.9999999403953552
			],
			"translation":[
				1.3655321140504384e-07,
				12.650778770446777,
				3.14321368932724e-09
			]
		},
		{
			"children":[
				55
			],
			"name":"mixamorig:LeftToeBase",
			"rotation":[
				0.35310274362564087,
				-0.01874043419957161,
				-0.008418005891144276,
				0.935359001159668
			],
			"scale":[
				0.9999999403953552,
				1,
				0.9999998807907104
			],
			"translation":[
				2.39367363974452e-06,
				21.399982452392578,
				-8.908100426197052e-07
			]
		},
		{
			"children":[
				56
			],
			"name":"mixamorig:LeftFoot",
			"rotation":[
				0.4592278301715851,
				-0.025754090398550034,
				0.03195307031273842,
				0.8873699903488159
			],
			"scale":[
				0.9999999403953552,
				1.000000238418579,
				1.000000238418579
			],
			"translation":[
				1.1976833320659352e-06,
				51.588008880615234,
				-1.0918233783741016e-07
			]
		},
		{
			"children":[
				57
			],
			"name":"mixamorig:LeftLeg",
			"rotation":[
				-0.07946808636188507,
				1.0775558934028595e-07,
				5.511289646875639e-09,
				0.9968374371528625
			],
			"scale":[
				1,
				1,
				0.9999998211860657
			],
			"translation":[
				-4.187598392491054e-07,
				48.47809982299805,
				-6.898658284626435e-07
			]
		},
		{
			"children":[
				58
			],
			"name":"mixamorig:LeftUpLeg",
			"rotation":[
				8.650570038071237e-08,
				0.02516501396894455,
				0.9996833205223083,
				8.778694109423668e-07
			],
			"scale":[
				1,
				0.9999998211860657,
				1.0000015497207642
			],
			"translation":[
				9.418100357055664,
				-4.87509298324585,
				1.8976999521255493
			]
		},
		{
			"name":"mixamorig:RightToe_End",
			"rotation":[
				5.1805166378926515e-08,
				4.112479246032308e-09,
				-3.717811836168039e-09,
				1
			],
			"scale":[
				1,
				0.9999998211860657,
				0.9999998807907104
			],
			"translation":[
				-1.279461798731063e-06,
				12.651082992553711,
				7.566995918750763e-10
			]
		},
		{
			"children":[
				60
			],
			"name":"mixamorig:RightToeBase",
			"rotation":[
				0.35310184955596924,
				0.018740558996796608,
				0.008420721627771854,
				0.9353592991828918
			],
			"scale":[
				1.0000001192092896,
				1.000000238418579,
				0.9999999403953552
			],
			"translation":[
				1.1365045793354511e-08,
				21.39998435974121,
				-2.239830791950226e-06
			]
		},
		{
			"children":[
				61
			],
			"name":"mixamorig:RightFoot",
			"rotation":[
				0.4592277407646179,
				0.02575555071234703,
				-0.031953439116477966,
				0.8873699903488159
			],
			"scale":[
				0.9999999403953552,
				1.0000001192092896,
				1.0000001192092896
			],
			"translation":[
				-7.096657554939156e-07,
				51.58800506591797,
				2.2839191160528571e-07
			]
		},
		{
			"children":[
				62
			],
			"name":"mixamorig:RightLeg",
			"rotation":[
				-0.07946808636188507,
				1.0774833469895384e-07,
				5.510769174321695e-09,
				0.9968374371528625
			],
			"scale":[
				1,
				1,
				0.9999998211860657
			],
			"translation":[
				-4.188636921753641e-07,
				48.478084564208984,
				1.1668415709209512e-06
			]
		},
		{
			"children":[
				63
			],
			"name":"mixamorig:RightUpLeg",
			"rotation":[
				8.649841731767083e-08,
				0.02516501024365425,
				0.9996833205223083,
				8.778696951594611e-07
			],
			"scale":[
				1,
				0.9999998211860657,
				1.0000015497207642
			],
			"translation":[
				-9.418100357055664,
				-4.875105857849121,
				1.8976999521255493
			]
		},
		{
			"children":[
				54,
				59,
				64
			],
			"name":"mixamorig:Hips",
			"rotation":[
				-0.7071067690849304,
				6.170670303617953e-07,
				6.170670303617953e-07,
				0.7071067690849304
			],
			"translation":[
				0,
				0,
				-118.71609497070312
			]
		},
		{
			"children":[
				65
			],
			"name":"Armature",
			"rotation":[
				0.7071068286895752,
				0,
				0,
				0.7071068286895752
			],
			"scale":[
				0.009999999776482582,
				0.009999999776482582,
				0.009999999776482582
			]
		}
	],
	"animations":[
		{
			"channels":[
				{
					"sampler":0,
					"target":{
						"node":65,
						"path":"translation"
					}
				},
				{
					"sampler":1,
					"target":{
						"node":65,
						"path":"rotation"
					}
				},
				{
					"sampler":2,
					"target":{
						"node":65,
						"path":"scale"
					}
				},
				{
					"sampler":3,
					"target":{
						"node":54,
						"path":"translation"
					}
				},
				{
					"sampler":4,
					"target":{
						"node":54,
						"path":"rotation"
					}
				},
				{
					"sampler":5,
					"target":{
						"node":54,
						"path":"scale"
					}
				},
				{
					"sampler":6,
					"target":{
						"node":53,
						"path":"translation"
					}
				},
				{
					"sampler":7,
					"target":{
						"node":53,
						"path":"rotation"
					}
				},
				{
					"sampler":8,
					"target":{
						"node":53,
						"path":"scale"
					}
				},
				{
					"sampler":9,
					"target":{
						"node":52,
						"path":"translation"
					}
				},
				{
					"sampler":10,
					"target":{
						"node":52,
						"path":"rotation"
					}
				},
				{
					"sampler":11,
					"target":{
						"node":52,
						"path":"scale"
					}
				},
				{
					"sampler":12,
					"target":{
						"node":3,
						"path":"translation"
					}
				},
				{
					"sampler":13,
					"target":{
						"node":3,
						"path":"rotation"
					}
				},
				{
					"sampler":14,
					"target":{
						"node":3,
						"path":"scale"
					}
				},
				{
					"sampler":15,
					"target":{
						"node":2,
						"path":"translation"
					}
				},
				{
					"sampler":16,
					"target":{
						"node":2,
						"path":"rotation"
					}
				},
				{
					"sampler":17,
					"target":{
						"node":2,
						"path":"scale"
					}
				},
				{
					"sampler":18,
					"target":{
						"node":0,
						"path":"translation"
					}
				},
				{
					"sampler":19,
					"target":{
						"node":0,
						"path":"rotation"
					}
				},
				{
					"sampler":20,
					"target":{
						"node":0,
						"path":"scale"
					}
				},
				{
					"sampler":21,
					"target":{
						"node":1,
						"path":"translation"
					}
				},
				{
					"sampler":22,
					"target":{
						"node":1,
						"path":"rotation"
					}
				},
				{
					"sampler":23,
					"target":{
						"node":1,
						"path":"scale"
					}
				},
				{
					"sampler":24,
					"target":{
						"node":27,
						"path":"translation"
					}
				},
				{
					"sampler":25,
					"target":{
						"node":27,
						"path":"rotation"
					}
				},
				{
					"sampler":26,
					"target":{
						"node":27,
						"path":"scale"
					}
				},
				{
					"sampler":27,
					"target":{
						"node":26,
						"path":"translation"
					}
				},
				{
					"sampler":28,
					"target":{
						"node":26,
						"path":"rotation"
					}
				},
				{
					"sampler":29,
					"target":{
						"node":26,
						"path":"scale"
					}
				},
				{
					"sampler":30,
					"target":{
						"node":25,
						"path":"translation"
					}
				},
				{
					"sampler":31,
					"target":{
						"node":25,
						"path":"rotation"
					}
				},
				{
					"sampler":32,
					"target":{
						"node":25,
						"path":"scale"
					}
				},
				{
					"sampler":33,
					"target":{
						"node":24,
						"path":"translation"
					}
				},
				{
					"sampler":34,
					"target":{
						"node":24,
						"path":"rotation"
					}
				},
				{
					"sampler":35,
					"target":{
						"node":24,
						"path":"scale"
					}
				},
				{
					"sampler":36,
					"target":{
						"node":7,
						"path":"translation"
					}
				},
				{
					"sampler":37,
					"target":{
						"node":7,
						"path":"rotation"
					}
				},
				{
					"sampler":38,
					"target":{
						"node":7,
						"path":"scale"
					}
				},
				{
					"sampler":39,
					"target":{
						"node":6,
						"path":"translation"
					}
				},
				{
					"sampler":40,
					"target":{
						"node":6,
						"path":"rotation"
					}
				},
				{
					"sampler":41,
					"target":{
						"node":6,
						"path":"scale"
					}
				},
				{
					"sampler":42,
					"target":{
						"node":5,
						"path":"translation"
					}
				},
				{
					"sampler":43,
					"target":{
						"node":5,
						"path":"rotation"
					}
				},
				{
					"sampler":44,
					"target":{
						"node":5,
						"path":"scale"
					}
				},
				{
					"sampler":45,
					"target":{
						"node":4,
						"path":"translation"
					}
				},
				{
					"sampler":46,
					"target":{
						"node":4,
						"path":"rotation"
					}
				},
				{
					"sampler":47,
					"target":{
						"node":4,
						"path":"scale"
					}
				},
				{
					"sampler":48,
					"target":{
						"node":11,
						"path":"translation"
					}
				},
				{
					"sampler":49,
					"target":{
						"node":11,
						"path":"rotation"
					}
				},
				{
					"sampler":50,
					"target":{
						"node":11,
						"path":"scale"
					}
				},
				{
					"sampler":51,
					"target":{
						"node":10,
						"path":"translation"
					}
				},
				{
					"sampler":52,
					"target":{
						"node":10,
						"path":"rotation"
					}
				},
				{
					"sampler":53,
					"target":{
						"node":10,
						"path":"scale"
					}
				},
				{
					"sampler":54,
					"target":{
						"node":9,
						"path":"translation"
					}
				},
				{
					"sampler":55,
					"target":{
						"node":9,
						"path":"rotation"
					}
				},
				{
					"sampler":56,
					"target":{
						"node":9,
						"path":"scale"
					}
				},
				{
					"sampler":57,
					"target":{
						"node":8,
						"path":"translation"
					}
				},
				{
					"sampler":58,
					"target":{
						"node":8,
						"path":"rotation"
					}
				},
				{
					"sampler":59,
					"target":{
						"node":8,
						"path":"scale"
					}
				},
				{
					"sampler":60,
					"target":{
						"node":15,
						"path":"translation"
					}
				},
				{
					"sampler":61,
					"target":{
						"node":15,
						"path":"rotation"
					}
				},
				{
					"sampler":62,
					"target":{
						"node":15,
						"path":"scale"
					}
				},
				{
					"sampler":63,
					"target":{
						"node":14,
						"path":"translation"
					}
				},
				{
					"sampler":64,
					"target":{
						"node":14,
						"path":"rotation"
					}
				},
				{
					"sampler":65,
					"target":{
						"node":14,
						"path":"scale"
					}
				},
				{
					"sampler":66,
					"target":{
						"node":13,
						"path":"translation"
					}
				},
				{
					"sampler":67,
					"target":{
						"node":13,
						"path":"rotation"
					}
				},
				{
					"sampler":68,
					"target":{
						"node":13,
						"path":"scale"
					}
				},
				{
					"sampler":69,
					"target":{
						"node":12,
						"path":"translation"
					}
				},
				{
					"sampler":70,
					"target":{
						"node":12,
						"path":"rotation"
					}
				},
				{
					"sampler":71,
					"target":{
						"node":12,
						"path":"scale"
					}
				},
				{
					"sampler":72,
					"target":{
						"node":19,
						"path":"translation"
					}
				},
				{
					"sampler":73,
					"target":{
						"node":19,
						"path":"rotation"
					}
				},
				{
					"sampler":74,
					"target":{
						"node":19,
						"path":"scale"
					}
				},
				{
					"sampler":75,
					"target":{
						"node":18,
						"path":"translation"
					}
				},
				{
					"sampler":76,
					"target":{
						"node":18,
						"path":"rotation"
					}
				},
				{
					"sampler":77,
					"target":{
						"node":18,
						"path":"scale"
					}
				},
				{
					"sampler":78,
					"target":{
						"node":17,
						"path":"translation"
					}
				},
				{
					"sampler":79,
					"target":{
						"node":17,
						"path":"rotation"
					}
				},
				{
					"sampler":80,
					"target":{
						"node":17,
						"path":"scale"
					}
				},
				{
					"sampler":81,
					"target":{
						"node":16,
						"path":"translation"
					}
				},
				{
					"sampler":82,
					"target":{
						"node":16,
						"path":"rotation"
					}
				},
				{
					"sampler":83,
					"target":{
						"node":16,
						"path":"scale"
					}
				},
				{
					"sampler":84,
					"target":{
						"node":23,
						"path":"translation"
					}
				},
				{
					"sampler":85,
					"target":{
						"node":23,
						"path":"rotation"
					}
				},
				{
					"sampler":86,
					"target":{
						"node":23,
						"path":"scale"
					}
				},
				{
					"sampler":87,
					"target":{
						"node":22,
						"path":"translation"
					}
				},
				{
					"sampler":88,
					"target":{
						"node":22,
						"path":"rotation"
					}
				},
				{
					"sampler":89,
					"target":{
						"node":22,
						"path":"scale"
					}
				},
				{
					"sampler":90,
					"target":{
						"node":21,
						"path":"translation"
					}
				},
				{
					"sampler":91,
					"target":{
						"node":21,
						"path":"rotation"
					}
				},
				{
					"sampler":92,
					"target":{
						"node":21,
						"path":"scale"
					}
				},
				{
					"sampler":93,
					"target":{
						"node":20,
						"path":"translation"
					}
				},
				{
					"sampler":94,
					"target":{
						"node":20,
						"path":"rotation"
					}
				},
				{
					"sampler":95,
					"target":{
						"node":20,
						"path":"scale"
					}
				},
				{
					"sampler":96,
					"target":{
						"node":51,
						"path":"translation"
					}
				},
				{
					"sampler":97,
					"target":{
						"node":51,
						"path":"rotation"
					}
				},
				{
					"sampler":98,
					"target":{
						"node":51,
						"path":"scale"
					}
				},
				{
					"sampler":99,
					"target":{
						"node":50,
						"path":"translation"
					}
				},
				{
					"sampler":100,
					"target":{
						"node":50,
						"path":"rotation"
					}
				},
				{
					"sampler":101,
					"target":{
						"node":50,
						"path":"scale"
					}
				},
				{
					"sampler":102,
					"target":{
						"node":49,
						"path":"translation"
					}
				},
				{
					"sampler":103,
					"target":{
						"node":49,
						"path":"rotation"
					}
				},
				{
					"sampler":104,
					"target":{
						"node":49,
						"path":"scale"
					}
				},
				{
					"sampler":105,
					"target":{
						"node":48,
						"path":"translation"
					}
				},
				{
					"sampler":106,
					"target":{
						"node":48,
						"path":"rotation"
					}
				},
				{
					"sampler":107,
					"target":{
						"node":48,
						"path":"scale"
					}
				},
				{
					"sampler":108,
					"target":{
						"node":31,
						"path":"translation"
					}
				},
				{
					"sampler":109,
					"target":{
						"node":31,
						"path":"rotation"
					}
				},
				{
					"sampler":110,
					"target":{
						"node":31,
						"path":"scale"
					}
				},
				{
					"sampler":111,
					"target":{
						"node":30,
						"path":"translation"
					}
				},
				{
					"sampler":112,
					"target":{
						"node":30,
						"path":"rotation"
					}
				},
				{
					"sampler":113,
					"target":{
						"node":30,
						"path":"scale"
					}
				},
				{
					"sampler":114,
					"target":{
						"node":29,
						"path":"translation"
					}
				},
				{
					"sampler":115,
					"target":{
						"node":29,
						"path":"rotation"
					}
				},
				{
					"sampler":116,
					"target":{
						"node":29,
						"path":"scale"
					}
				},
				{
					"sampler":117,
					"target":{
						"node":28,
						"path":"translation"
					}
				},
				{
					"sampler":118,
					"target":{
						"node":28,
						"path":"rotation"
					}
				},
				{
					"sampler":119,
					"target":{
						"node":28,
						"path":"scale"
					}
				},
				{
					"sampler":120,
					"target":{
						"node":35,
						"path":"translation"
					}
				},
				{
					"sampler":121,
					"target":{
						"node":35,
						"path":"rotation"
					}
				},
				{
					"sampler":122,
					"target":{
						"node":35,
						"path":"scale"
					}
				},
				{
					"sampler":123,
					"target":{
						"node":34,
						"path":"translation"
					}
				},
				{
					"sampler":124,
					"target":{
						"node":34,
						"path":"rotation"
					}
				},
				{
					"sampler":125,
					"target":{
						"node":34,
						"path":"scale"
					}
				},
				{
					"sampler":126,
					"target":{
						"node":33,
						"path":"translation"
					}
				},
				{
					"sampler":127,
					"target":{
						"node":33,
						"path":"rotation"
					}
				},
				{
					"sampler":128,
					"target":{
						"node":33,
						"path":"scale"
					}
				},
				{
					"sampler":129,
					"target":{
						"node":32,
						"path":"translation"
					}
				},
				{
					"sampler":130,
					"target":{
						"node":32,
						"path":"rotation"
					}
				},
				{
					"sampler":131,
					"target":{
						"node":32,
						"path":"scale"
					}
				},
				{
					"sampler":132,
					"target":{
						"node":39,
						"path":"translation"
					}
				},
				{
					"sampler":133,
					"target":{
						"node":39,
						"path":"rotation"
					}
				},
				{
					"sampler":134,
					"target":{
						"node":39,
						"path":"scale"
					}
				},
				{
					"sampler":135,
					"target":{
						"node":38,
						"path":"translation"
					}
				},
				{
					"sampler":136,
					"target":{
						"node":38,
						"path":"rotation"
					}
				},
				{
					"sampler":137,
					"target":{
						"node":38,
						"path":"scale"
					}
				},
				{
					"sampler":138,
					"target":{
						"node":37,
						"path":"translation"
					}
				},
				{
					"sampler":139,
					"target":{
						"node":37,
						"path":"rotation"
					}
				},
				{
					"sampler":140,
					"target":{
						"node":37,
						"path":"scale"
					}
				},
				{
					"sampler":141,
					"target":{
						"node":36,
						"path":"translation"
					}
				},
				{
					"sampler":142,
					"target":{
						"node":36,
						"path":"rotation"
					}
				},
				{
					"sampler":143,
					"target":{
						"node":36,
						"path":"scale"
					}
				},
				{
					"sampler":144,
					"target":{
						"node":43,
						"path":"translation"
					}
				},
				{
					"sampler":145,
					"target":{
						"node":43,
						"path":"rotation"
					}
				},
				{
					"sampler":146,
					"target":{
						"node":43,
						"path":"scale"
					}
				},
				{
					"sampler":147,
					"target":{
						"node":42,
						"path":"translation"
					}
				},
				{
					"sampler":148,
					"target":{
						"node":42,
						"path":"rotation"
					}
				},
				{
					"sampler":149,
					"target":{
						"node":42,
						"path":"scale"
					}
				},
				{
					"sampler":150,
					"target":{
						"node":41,
						"path":"translation"
					}
				},
				{
					"sampler":151,
					"target":{
						"node":41,
						"path":"rotation"
					}
				},
				{
					"sampler":152,
					"target":{
						"node":41,
						"path":"scale"
					}
				},
				{
					"sampler":153,
					"target":{
						"node":40,
						"path":"translation"
					}
				},
				{
					"sampler":154,
					"target":{
						"node":40,
						"path":"rotation"
					}
				},
				{
					"sampler":155,
					"target":{
						"node":40,
						"path":"scale"
					}
				},
				{
					"sampler":156,
					"target":{
						"node":47,
						"path":"translation"
					}
				},
				{
					"sampler":157,
					"target":{
						"node":47,
						"path":"rotation"
					}
				},
				{
					"sampler":158,
					"target":{
						"node":47,
						"path":"scale"
					}
				},
				{
					"sampler":159,
					"target":{
						"node":46,
						"path":"translation"
					}
				},
				{
					"sampler":160,
					"target":{
						"node":46,
						"path":"rotation"
					}
				},
				{
					"sampler":161,
					"target":{
						"node":46,
						"path":"scale"
					}
				},
				{
					"sampler":162,
					"target":{
						"node":45,
						"path":"translation"
					}
				},
				{
					"sampler":163,
					"target":{
						"node":45,
						"path":"rotation"
					}
				},
				{
					"sampler":164,
					"target":{
						"node":45,
						"path":"scale"
					}
				},
				{
					"sampler":165,
					"target":{
						"node":44,
						"path":"translation"
					}
				},
				{
					"sampler":166,
					"target":{
						"node":44,
						"path":"rotation"
					}
				},
				{
					"sampler":167,
					"target":{
						"node":44,
						"path":"scale"
					}
				},
				{
					"sampler":168,
					"target":{
						"node":59,
						"path":"translation"
					}
				},
				{
					"sampler":169,
					"target":{
						"node":59,
						"path":"rotation"
					}
				},
				{
					"sampler":170,
					"target":{
						"node":59,
						"path":"scale"
					}
				},
				{
					"sampler":171,
					"target":{
						"node":58,
						"path":"translation"
					}
				},
				{
					"sampler":172,
					"target":{
						"node":58,
						"path":"rotation"
					}
				},
				{
					"sampler":173,
					"target":{
						"node":58,
						"path":"scale"
					}
				},
				{
					"sampler":174,
					"target":{
						"node":57,
						"path":"translation"
					}
				},
				{
					"sampler":175,
					"target":{
						"node":57,
						"path":"rotation"
					}
				},
				{
					"sampler":176,
					"target":{
						"node":57,
						"path":"scale"
					}
				},
				{
					"sampler":177,
					"target":{
						"node":56,
						"path":"translation"
					}
				},
				{
					"sampler":178,
					"target":{
						"node":56,
						"path":"rotation"
					}
				},
				{
					"sampler":179,
					"target":{
						"node":56,
						"path":"scale"
					}
				},
				{
					"sampler":180,
					"target":{
						"node":55,
						"path":"translation"
					}
				},
				{
					"sampler":181,
					"target":{
						"node":55,
						"path":"rotation"
					}
				},
				{
					"sampler":182,
					"target":{
						"node":55,
						"path":"scale"
					}
				},
				{
					"sampler":183,
					"target":{
						"node":64,
						"path":"translation"
					}
				},
				{
					"sampler":184,
					"target":{
						"node":64,
						"path":"rotation"
					}
				},
				{
					"sampler":185,
					"target":{
						"node":64,
						"path":"scale"
					}
				},
				{
					"sampler":186,
					"target":{
						"node":63,
						"path":"translation"
					}
				},
				{
					"sampler":187,
					"target":{
						"node":63,
						"path":"rotation"
					}
				},
				{
					"sampler":188,
					"target":{
						"node":63,
						"path":"scale"
					}
				},
				{
					"sampler":189,
					"target":{
						"node":62,
						"path":"translation"
					}
				},
				{
					"sampler":190,
					"target":{
						"node":62,
						"path":"rotation"
					}
				},
				{
					"sampler":191,
					"target":{
						"node":62,
						"path":"scale"
					}
				},
				{
					"sampler":192,
					"target":{
						"node":61,
						"path":"translation"
					}
				},
				{
					"sampler":193,
					"target":{
						"node":61,
						"path":"rotation"
					}
				},
				{
					"sampler":194,
					"target":{
						"node":61,
						"path":"scale"
					}
				},
				{
					"sampler":195,
					"target":{
						"node":60,
						"path":"translation"
					}
				},
				{
					"sampler":196,
					"target":{
						"node":60,
						"path":"rotation"
					}
				},
				{
					"sampler":197,
					"target":{
						"node":60,
						"path":"scale"
					}
				}
			],
			"name":"mixamo.com",
			"samplers":[
				{
					"input":0,
					"interpolation":"LINEAR",
					"output":1
				},
				{
					"input":0,
					"interpolation":"LINEAR",
					"output":2
				},
				{
					"input":3,
					"interpolation":"STEP",
					"output":4
				},
				{
					"input":3,
					"interpolation":"LINEAR",
					"output":5
				},
				{
					"input":0,
					"interpolation":"LINEAR",
					"output":6
				},
				{
					"input":3,
					"interpolation":"STEP",
					"output":7
				},
				{
					"input":3,
					"interpolation":"LINEAR",
					"output":8
				},
				{
					"input":0,
					"interpolation":"LINEAR",
					"output":9
				},
				{
					"input":3,
					"interpolation":"LINEAR",
					"output":10
				},
				{
					"input":3,
					"interpolation":"LINEAR",
					"output":11
				},
				{
					"input":0,
					"interpolation":"LINEAR",
					"output":12
				},
				{
					"input":3,
					"interpolation":"LINEAR",
					"output":13
				},
				{
					"input":3,
					"interpolation":"LINEAR",
					"output":14
				},
				{
					"input":0,
					"interpolation":"LINEAR",
					"output":15
				},
				{
					"input":3,
					"interpolation":"STEP",
					"output":16
				},
				{
					"input":3,
					"interpolation":"LINEAR",
					"output":17
				},
				{
					"input":0,
					"interpolation":"LINEAR",
					"output":18
				},
				{
					"input":3,
					"interpolation":"STEP",
					"output":19
				},
				{
					"input":3,
					"interpolation":"STEP",
					"output":20
				},
				{
					"input":3,
					"interpolation":"STEP",
					"output":21
				},
				{
					"input":3,
					"interpolation":"STEP",
					"output":22
				},
				{
					"input":3,
					"interpolation":"STEP",
					"output":23
				},
				{
					"input":3,
					"interpolation":"STEP",
					"output":24
				},
				{
					"input":3,
					"interpolation":"STEP",
					"output":25
				},
				{
					"input":3,
					"interpolation":"LINEAR",
					"output":26
				},
				{
					"input":0,
					"interpolation":"LINEAR",
					"output":27
				},
				{
					"input":3,
					"interpolation":"STEP",
					"output":28
				},
				{
					"input":3,
					"interpolation":"LINEAR",
					"output":29
				},
				{
					"input":0,
					"interpolation":"LINEAR",
					"output":30
				},
				{
					"input":3,
					"interpolation":"LINEAR",
					"output":31
				},
				{
					"input":3,
					"interpolation":"LINEAR",
					"output":32
				},
				{
					"input":0,
					"interpolation":"LINEAR",
					"output":33
				},
				{
					"input":3,
					"interpolation":"LINEAR",
					"output":34
				},
				{
					"input":3,
					"interpolation":"LINEAR",
					"output":35
				},
				{
					"input":0,
					"interpolation":"LINEAR",
					"output":36
				},
				{
					"input":3,
					"interpolation":"STEP",
					"output":37
				},
				{
					"input":3,
					"interpolation":"LINEAR",
					"output":38
				},
				{
					"input":0,
					"interpolation":"LINEAR",
					"output":39
				},
				{
					"input":3,
					"interpolation":"LINEAR",
					"output":40
				},
				{
					"input":3,
					"interpolation":"LINEAR",
					"output":41
				},
				{
					"input":0,
					"interpolation":"LINEAR",
					"output":42
				},
				{
					"input":3,
					"interpolation":"STEP",
					"output":43
				},
				{
					"input":3,
					"interpolation":"LINEAR",
					"output":44
				},
				{
					"input":0,
					"interpolation":"LINEAR",
					"output":45
				},
				{
					"input":3,
					"interpolation":"STEP",
					"output":46
				},
				{
					"input":3,
					"interpolation":"STEP",
					"output":47
				},
				{
					"input":3,
					"interpolation":"STEP",
					"output":48
				},
				{
					"input":3,
					"interpolation":"STEP",
					"output":49
				},
				{
					"input":3,
					"interpolation":"LINEAR",
					"output":50
				},
				{
					"input":0,
					"interpolation":"LINEAR",
					"output":51
				},
				{
					"input":3,
					"interpolation":"STEP",
					"output":52
				},
				{
					"input":3,
					"interpolation":"LINEAR",
					"output":53
				},
				{
					"input":0,
					"interpolation":"LINEAR",
					"output":54
				},
				{
					"input":3,
					"interpolation":"STEP",
					"output":55
				},
				{
					"input":3,
					"interpolation":"LINEAR",
					"output":56
				},
				{
					"input":0,
					"interpolation":"LINEAR",
					"output":57
				},
				{
					"input":3,
					"interpolation":"LINEAR",
					"output":58
				},
				{
					"input":3,
					"interpolation":"STEP",
					"output":59
				},
				{
					"input":3,
					"interpolation":"STEP",
					"output":60
				},
				{
					"input":3,
					"interpolation":"STEP",
					"output":61
				},
				{
					"input":3,
					"interpolation":"LINEAR",
					"output":62
				},
				{
					"input":0,
					"interpolation":"LINEAR",
					"output":63
				},
				{
					"input":3,
					"interpolation":"STEP",
					"output":7
				},
				{
					"input":3,
					"interpolation":"LINEAR",
					"output":64
				},
				{
					"input":0,
					"interpolation":"LINEAR",
					"output":65
				},
				{
					"input":3,
					"interpolation":"LINEAR",
					"output":66
				},
				{
					"input":3,
					"interpolation":"LINEAR",
					"output":67
				},
				{
					"input":0,
					"interpolation":"LINEAR",
					"output":68
				},
				{
					"input":3,
					"interpolation":"STEP",
					"output":69
				},
				{
					"input":3,
					"interpolation":"STEP",
					"output":70
				},
				{
					"input":3,
					"interpolation":"STEP",
					"output":71
				},
				{
					"input":3,
					"interpolation":"STEP",
					"output":72
				},
				{
					"input":3,
					"interpolation":"LINEAR",
					"output":73
				},
				{
					"input":0,
					"interpolation":"LINEAR",
					"output":74
				},
				{
					"input":3,
					"interpolation":"STEP",
					"output":52
				},
				{
					"input":3,
					"interpolation":"LINEAR",
					"output":75
				},
				{
					"input":0,
					"interpolation":"LINEAR",
					"output":76
				},
				{
					"input":3,
					"interpolation":"STEP",
					"output":77
				},
				{
					"input":3,
					"interpolation":"LINEAR",
					"output":78
				},
				{
					"input":0,
					"interpolation":"LINEAR",
					"output":79
				},
				{
					"input":3,
					"interpolation":"STEP",
					"output":80
				},
				{
					"input":3,
					"interpolation":"STEP",
					"output":81
				},
				{
					"input":3,
					"interpolation":"STEP",
					"output":82
				},
				{
					"input":3,
					"interpolation":"STEP",
					"output":4
				},
				{
					"input":3,
					"interpolation":"LINEAR",
					"output":83
				},
				{
					"input":0,
					"interpolation":"LINEAR",
					"output":84
				},
				{
					"input":3,
					"interpolation":"STEP",
					"output":85
				},
				{
					"input":3,
					"interpolation":"LINEAR",
					"output":86
				},
				{
					"input":0,
					"interpolation":"LINEAR",
					"output":87
				},
				{
					"input":3,
					"interpolation":"LINEAR",
					"output":88
				},
				{
					"input":3,
					"interpolation":"LINEAR",
					"output":89
				},
				{
					"input":0,
					"interpolation":"LINEAR",
					"output":90
				},
				{
					"input":3,
					"interpolation":"STEP",
					"output":91
				},
				{
					"input":3,
					"interpolation":"STEP",
					"output":92
				},
				{
					"input":3,
					"interpolation":"STEP",
					"output":93
				},
				{
					"input":3,
					"interpolation":"STEP",
					"output":94
				},
				{
					"input":3,
					"interpolation":"LINEAR",
					"output":95
				},
				{
					"input":0,
					"interpolation":"LINEAR",
					"output":96
				},
				{
					"input":3,
					"interpolation":"STEP",
					"output":97
				},
				{
					"input":3,
					"interpolation":"LINEAR",
					"output":98
				},
				{
					"input":0,
					"interpolation":"LINEAR",
					"output":99
				},
				{
					"input":3,
					"interpolation":"LINEAR",
					"output":100
				},
				{
					"input":3,
					"interpolation":"LINEAR",
					"output":101
				},
				{
					"input":0,
					"interpolation":"LINEAR",
					"output":102
				},
				{
					"input":3,
					"interpolation":"STEP",
					"output":103
				},
				{
					"input":3,
					"interpolation":"LINEAR",
					"output":104
				},
				{
					"input":0,
					"interpolation":"LINEAR",
					"output":105
				},
				{
					"input":3,
					"interpolation":"STEP",
					"output":106
				},
				{
					"input":3,
					"interpolation":"LINEAR",
					"output":107
				},
				{
					"input":3,
					"interpolation":"STEP",
					"output":108
				},
				{
					"input":3,
					"interpolation":"LINEAR",
					"output":109
				},
				{
					"input":3,
					"interpolation":"LINEAR",
					"output":110
				},
				{
					"input":3,
					"interpolation":"LINEAR",
					"output":111
				},
				{
					"input":3,
					"interpolation":"STEP",
					"output":112
				},
				{
					"input":3,
					"interpolation":"LINEAR",
					"output":113
				},
				{
					"input":3,
					"interpolation":"LINEAR",
					"output":114
				},
				{
					"input":3,
					"interpolation":"LINEAR",
					"output":115
				},
				{
					"input":3,
					"interpolation":"STEP",
					"output":116
				},
				{
					"input":3,
					"interpolation":"STEP",
					"output":117
				},
				{
					"input":3,
					"interpolation":"STEP",
					"output":118
				},
				{
					"input":3,
					"interpolation":"LINEAR",
					"output":119
				},
				{
					"input":3,
					"interpolation":"LINEAR",
					"output":120
				},
				{
					"input":3,
					"interpolation":"LINEAR",
					"output":121
				},
				{
					"input":3,
					"interpolation":"LINEAR",
					"output":122
				},
				{
					"input":3,
					"interpolation":"LINEAR",
					"output":123
				},
				{
					"input":3,
					"interpolation":"STEP",
					"output":124
				},
				{
					"input":3,
					"interpolation":"LINEAR",
					"output":125
				},
				{
					"input":3,
					"interpolation":"LINEAR",
					"output":126
				},
				{
					"input":3,
					"interpolation":"LINEAR",
					"output":127
				},
				{
					"input":3,
					"interpolation":"STEP",
					"output":128
				},
				{
					"input":3,
					"interpolation":"STEP",
					"output":129
				},
				{
					"input":3,
					"interpolation":"STEP",
					"output":130
				},
				{
					"input":3,
					"interpolation":"LINEAR",
					"output":131
				},
				{
					"input":3,
					"interpolation":"LINEAR",
					"output":132
				},
				{
					"input":3,
					"interpolation":"STEP",
					"output":133
				},
				{
					"input":3,
					"interpolation":"LINEAR",
					"output":134
				},
				{
					"input":3,
					"interpolation":"LINEAR",
					"output":135
				},
				{
					"input":3,
					"interpolation":"STEP",
					"output":136
				},
				{
					"input":3,
					"interpolation":"LINEAR",
					"output":137
				},
				{
					"input":3,
					"interpolation":"LINEAR",
					"output":138
				},
				{
					"input":3,
					"interpolation":"LINEAR",
					"output":139
				},
				{
					"input":3,
					"interpolation":"STEP",
					"output":140
				},
				{
					"input":3,
					"interpolation":"STEP",
					"output":141
				},
				{
					"input":3,
					"interpolation":"STEP",
					"output":142
				},
				{
					"input":3,
					"interpolation":"LINEAR",
					"output":143
				},
				{
					"input":3,
					"interpolation":"LINEAR",
					"output":144
				},
				{
					"input":3,
					"interpolation":"LINEAR",
					"output":145
				},
				{
					"input":3,
					"interpolation":"LINEAR",
					"output":146
				},
				{
					"input":3,
					"interpolation":"LINEAR",
					"output":147
				},
				{
					"input":3,
					"interpolation":"STEP",
					"output":148
				},
				{
					"input":3,
					"interpolation":"LINEAR",
					"output":149
				},
				{
					"input":3,
					"interpolation":"LINEAR",
					"output":150
				},
				{
					"input":3,
					"interpolation":"STEP",
					"output":151
				},
				{
					"input":3,
					"interpolation":"STEP",
					"output":152
				},
				{
					"input":3,
					"interpolation":"STEP",
					"output":153
				},
				{
					"input":3,
					"interpolation":"STEP",
					"output":4
				},
				{
					"input":3,
					"interpolation":"LINEAR",
					"output":154
				},
				{
					"input":3,
					"interpolation":"LINEAR",
					"output":155
				},
				{
					"input":3,
					"interpolation":"LINEAR",
					"output":156
				},
				{
					"input":3,
					"interpolation":"LINEAR",
					"output":157
				},
				{
					"input":3,
					"interpolation":"LINEAR",
					"output":158
				},
				{
					"input":3,
					"interpolation":"STEP",
					"output":159
				},
				{
					"input":3,
					"interpolation":"LINEAR",
					"output":160
				},
				{
					"input":3,
					"interpolation":"LINEAR",
					"output":161
				},
				{
					"input":3,
					"interpolation":"LINEAR",
					"output":162
				},
				{
					"input":3,
					"interpolation":"STEP",
					"output":163
				},
				{
					"input":3,
					"interpolation":"STEP",
					"output":164
				},
				{
					"input":3,
					"interpolation":"STEP",
					"output":165
				},
				{
					"input":3,
					"interpolation":"LINEAR",
					"output":166
				},
				{
					"input":0,
					"interpolation":"LINEAR",
					"output":167
				},
				{
					"input":3,
					"interpolation":"STEP",
					"output":168
				},
				{
					"input":3,
					"interpolation":"LINEAR",
					"output":169
				},
				{
					"input":0,
					"interpolation":"LINEAR",
					"output":170
				},
				{
					"input":3,
					"interpolation":"STEP",
					"output":171
				},
				{
					"input":3,
					"interpolation":"LINEAR",
					"output":172
				},
				{
					"input":0,
					"interpolation":"LINEAR",
					"output":173
				},
				{
					"input":3,
					"interpolation":"STEP",
					"output":174
				},
				{
					"input":3,
					"interpolation":"LINEAR",
					"output":175
				},
				{
					"input":0,
					"interpolation":"LINEAR",
					"output":176
				},
				{
					"input":3,
					"interpolation":"LINEAR",
					"output":177
				},
				{
					"input":3,
					"interpolation":"STEP",
					"output":178
				},
				{
					"input":3,
					"interpolation":"STEP",
					"output":179
				},
				{
					"input":3,
					"interpolation":"STEP",
					"output":180
				},
				{
					"input":3,
					"interpolation":"LINEAR",
					"output":181
				},
				{
					"input":0,
					"interpolation":"LINEAR",
					"output":182
				},
				{
					"input":3,
					"interpolation":"STEP",
					"output":183
				},
				{
					"input":3,
					"interpolation":"LINEAR",
					"output":184
				},
				{
					"input":0,
					"interpolation":"LINEAR",
					"output":185
				},
				{
					"input":3,
					"interpolation":"LINEAR",
					"output":186
				},
				{
					"input":3,
					"interpolation":"LINEAR",
					"output":187
				},
				{
					"input":0,
					"interpolation":"LINEAR",
					"output":188
				},
				{
					"input":3,
					"interpolation":"STEP",
					"output":189
				},
				{
					"input":3,
					"interpolation":"LINEAR",
					"output":190
				},
				{
					"input":0,
					"interpolation":"LINEAR",
					"output":191
				},
				{
					"input":3,
					"interpolation":"STEP",
					"output":192
				},
				{
					"input":3,
					"interpolation":"STEP",
					"output":193
				},
				{
					"input":3,
					"interpolation":"STEP",
					"output":194
				},
				{
					"input":3,
					"interpolation":"STEP",
					"output":195
				}
			]
		}
	],
	"accessors":[
		{
			"bufferView":0,
			"componentType":5126,
			"count":57,
			"max":[
				1.9
			],
			"min":[
				0.03333333333333333
			],
			"type":"SCALAR"
		},
		{
			"bufferView":1,
			"componentType":5126,
			"count":57,
			"type":"VEC3"
		},
		{
			"bufferView":2,
			"componentType":5126,
			"count":57,
			"type":"VEC4"
		},
		{
			"bufferView":3,
			"componentType":5126,
			"count":2,
			"max":[
				1.9
			],
			"min":[
				0.03333333333333333
			],
			"type":"SCALAR"
		},
		{
			"bufferView":4,
			"componentType":5126,
			"count":2,
			"type":"VEC3"
		},
		{
			"bufferView":5,
			"componentType":5126,
			"count":2,
			"type":"VEC3"
		},
		{
			"bufferView":6,
			"componentType":5126,
			"count":57,
			"type":"VEC4"
		},
		{
			"bufferView":7,
			"componentType":5126,
			"count":2,
			"type":"VEC3"
		},
		{
			"bufferView":8,
			"componentType":5126,
			"count":2,
			"type":"VEC3"
		},
		{
			"bufferView":9,
			"componentType":5126,
			"count":57,
			"type":"VEC4"
		},
		{
			"bufferView":10,
			"componentType":5126,
			"count":2,
			"type":"VEC3"
		},
		{
			"bufferView":11,
			"componentType":5126,
			"count":2,
			"type":"VEC3"
		},
		{
			"bufferView":12,
			"componentType":5126,
			"count":57,
			"type":"VEC4"
		},
		{
			"bufferView":13,
			"componentType":5126,
			"count":2,
			"type":"VEC3"
		},
		{
			"bufferView":14,
			"componentType":5126,
			"count":2,
			"type":"VEC3"
		},
		{
			"bufferView":15,
			"componentType":5126,
			"count":57,
			"type":"VEC4"
		},
		{
			"bufferView":16,
			"componentType":5126,
			"count":2,
			"type":"VEC3"
		},
		{
			"bufferView":17,
			"componentType":5126,
			"count":2,
			"type":"VEC3"
		},
		{
			"bufferView":18,
			"componentType":5126,
			"count":57,
			"type":"VEC4"
		},
		{
			"bufferView":19,
			"componentType":5126,
			"count":2,
			"type":"VEC3"
		},
		{
			"bufferView":20,
			"componentType":5126,
			"count":2,
			"type":"VEC3"
		},
		{
			"bufferView":21,
			"componentType":5126,
			"count":2,
			"type":"VEC4"
		},
		{
			"bufferView":22,
			"componentType":5126,
			"count":2,
			"type":"VEC3"
		},
		{
			"bufferView":23,
			"componentType":5126,
			"count":2,
			"type":"VEC3"
		},
		{
			"bufferView":24,
			"componentType":5126,
			"count":2,
			"type":"VEC4"
		},
		{
			"bufferView":25,
			"componentType":5126,
			"count":2,
			"type":"VEC3"
		},
		{
			"bufferView":26,
			"componentType":5126,
			"count":2,
			"type":"VEC3"
		},
		{
			"bufferView":27,
			"componentType":5126,
			"count":57,
			"type":"VEC4"
		},
		{
			"bufferView":28,
			"componentType":5126,
			"count":2,
			"type":"VEC3"
		},
		{
			"bufferView":29,
			"componentType":5126,
			"count":2,
			"type":"VEC3"
		},
		{
			"bufferView":30,
			"componentType":5126,
			"count":57,
			"type":"VEC4"
		},
		{
			"bufferView":31,
			"componentType":5126,
			"count":2,
			"type":"VEC3"
		},
		{
			"bufferView":32,
			"componentType":5126,
			"count":2,
			"type":"VEC3"
		},
		{
			"bufferView":33,
			"componentType":5126,
			"count":57,
			"type":"VEC4"
		},
		{
			"bufferView":34,
			"componentType":5126,
			"count":2,
			"type":"VEC3"
		},
		{
			"bufferView":35,
			"componentType":5126,
			"count":2,
			"type":"VEC3"
		},
		{
			"bufferView":36,
			"componentType":5126,
			"count":57,
			"type":"VEC4"
		},
		{
			"bufferView":37,
			"componentType":5126,
			"count":2,
			"type":"VEC3"
		},
		{
			"bufferView":38,
			"componentType":5126,
			"count":2,
			"type":"VEC3"
		},
		{
			"bufferView":39,
			"componentType":5126,
			"count":57,
			"type":"VEC4"
		},
		{
			"bufferView":40,
			"componentType":5126,
			"count":2,
			"type":"VEC3"
		},
		{
			"bufferView":41,
			"componentType":5126,
			"count":2,
			"type":"VEC3"
		},
		{
			"bufferView":42,
			"componentType":5126,
			"count":57,
			"type":"VEC4"
		},
		{
			"bufferView":43,
			"componentType":5126,
			"count":2,
			"type":"VEC3"
		},
		{
			"bufferView":44,
			"componentType":5126,
			"count":2,
			"type":"VEC3"
		},
		{
			"bufferView":45,
			"componentType":5126,
			"count":57,
			"type":"VEC4"
		},
		{
			"bufferView":46,
			"componentType":5126,
			"count":2,
			"type":"VEC3"
		},
		{
			"bufferView":47,
			"componentType":5126,
			"count":2,
			"type":"VEC3"
		},
		{
			"bufferView":48,
			"componentType":5126,
			"count":2,
			"type":"VEC4"
		},
		{
			"bufferView":49,
			"componentType":5126,
			"count":2,
			"type":"VEC3"
		},
		{
			"bufferView":50,
			"componentType":5126,
			"count":2,
			"type":"VEC3"
		},
		{
			"bufferView":51,
			"componentType":5126,
			"count":57,
			"type":"VEC4"
		},
		{
			"bufferView":52,
			"componentType":5126,
			"count":2,
			"type":"VEC3"
		},
		{
			"bufferView":53,
			"componentType":5126,
			"count":2,
			"type":"VEC3"
		},
		{
			"bufferView":54,
			"componentType":5126,
			"count":57,
			"type":"VEC4"
		},
		{
			"bufferView":55,
			"componentType":5126,
			"count":2,
			"type":"VEC3"
		},
		{
			"bufferView":56,
			"componentType":5126,
			"count":2,
			"type":"VEC3"
		},
		{
			"bufferView":57,
			"componentType":5126,
			"count":57,
			"type":"VEC4"
		},
		{
			"bufferView":58,
			"componentType":5126,
			"count":2,
			"type":"VEC3"
		},
		{
			"bufferView":59,
			"componentType":5126,
			"count":2,
			"type":"VEC3"
		},
		{
			"bufferView":60,
			"componentType":5126,
			"count":2,
			"type":"VEC4"
		},
		{
			"bufferView":61,
			"componentType":5126,
			"count":2,
			"type":"VEC3"
		},
		{
			"bufferView":62,
			"componentType":5126,
			"count":2,
			"type":"VEC3"
		},
		{
			"bufferView":63,
			"componentType":5126,
			"count":57,
			"type":"VEC4"
		},
		{
			"bufferView":64,
			"componentType":5126,
			"count":2,
			"type":"VEC3"
		},
		{
			"bufferView":65,
			"componentType":5126,
			"count":57,
			"type":"VEC4"
		},
		{
			"bufferView":66,
			"componentType":5126,
			"count":2,
			"type":"VEC3"
		},
		{
			"bufferView":67,
			"componentType":5126,
			"count":2,
			"type":"VEC3"
		},
		{
			"bufferView":68,
			"componentType":5126,
			"count":57,
			"type":"VEC4"
		},
		{
			"bufferView":69,
			"componentType":5126,
			"count":2,
			"type":"VEC3"
		},
		{
			"bufferView":70,
			"componentType":5126,
			"count":2,
			"type":"VEC3"
		},
		{
			"bufferView":71,
			"componentType":5126,
			"count":2,
			"type":"VEC4"
		},
		{
			"bufferView":72,
			"componentType":5126,
			"count":2,
			"type":"VEC3"
		},
		{
			"bufferView":73,
			"componentType":5126,
			"count":2,
			"type":"VEC3"
		},
		{
			"bufferView":74,
			"componentType":5126,
			"count":57,
			"type":"VEC4"
		},
		{
			"bufferView":75,
			"componentType":5126,
			"count":2,
			"type":"VEC3"
		},
		{
			"bufferView":76,
			"componentType":5126,
			"count":57,
			"type":"VEC4"
		},
		{
			"bufferView":77,
			"componentType":5126,
			"count":2,
			"type":"VEC3"
		},
		{
			"bufferView":78,
			"componentType":5126,
			"count":2,
			"type":"VEC3"
		},
		{
			"bufferView":79,
			"componentType":5126,
			"count":57,
			"type":"VEC4"
		},
		{
			"bufferView":80,
			"componentType":5126,
			"count":2,
			"type":"VEC3"
		},
		{
			"bufferView":81,
			"componentType":5126,
			"count":2,
			"type":"VEC3"
		},
		{
			"bufferView":82,
			"componentType":5126,
			"count":2,
			"type":"VEC4"
		},
		{
			"bufferView":83,
			"componentType":5126,
			"count":2,
			"type":"VEC3"
		},
		{
			"bufferView":84,
			"componentType":5126,
			"count":57,
			"type":"VEC4"
		},
		{
			"bufferView":85,
			"componentType":5126,
			"count":2,
			"type":"VEC3"
		},
		{
			"bufferView":86,
			"componentType":5126,
			"count":2,
			"type":"VEC3"
		},
		{
			"bufferView":87,
			"componentType":5126,
			"count":57,
			"type":"VEC4"
		},
		{
			"bufferView":88,
			"componentType":5126,
			"count":2,
			"type":"VEC3"
		},
		{
			"bufferView":89,
			"componentType":5126,
			"count":2,
			"type":"VEC3"
		},
		{
			"bufferView":90,
			"componentType":5126,
			"count":57,
			"type":"VEC4"
		},
		{
			"bufferView":91,
			"componentType":5126,
			"count":2,
			"type":"VEC3"
		},
		{
			"bufferView":92,
			"componentType":5126,
			"count":2,
			"type":"VEC3"
		},
		{
			"bufferView":93,
			"componentType":5126,
			"count":2,
			"type":"VEC4"
		},
		{
			"bufferView":94,
			"componentType":5126,
			"count":2,
			"type":"VEC3"
		},
		{
			"bufferView":95,
			"componentType":5126,
			"count":2,
			"type":"VEC3"
		},
		{
			"bufferView":96,
			"componentType":5126,
			"count":57,
			"type":"VEC4"
		},
		{
			"bufferView":97,
			"componentType":5126,
			"count":2,
			"type":"VEC3"
		},
		{
			"bufferView":98,
			"componentType":5126,
			"count":2,
			"type":"VEC3"
		},
		{
			"bufferView":99,
			"componentType":5126,
			"count":57,
			"type":"VEC4"
		},
		{
			"bufferView":100,
			"componentType":5126,
			"count":2,
			"type":"VEC3"
		},
		{
			"bufferView":101,
			"componentType":5126,
			"count":2,
			"type":"VEC3"
		},
		{
			"bufferView":102,
			"componentType":5126,
			"count":57,
			"type":"VEC4"
		},
		{
			"bufferView":103,
			"componentType":5126,
			"count":2,
			"type":"VEC3"
		},
		{
			"bufferView":104,
			"componentType":5126,
			"count":2,
			"type":"VEC3"
		},
		{
			"bufferView":105,
			"componentType":5126,
			"count":57,
			"type":"VEC4"
		},
		{
			"bufferView":106,
			"componentType":5126,
			"count":2,
			"type":"VEC3"
		},
		{
			"bufferView":107,
			"componentType":5126,
			"count":2,
			"type":"VEC3"
		},
		{
			"bufferView":108,
			"componentType":5126,
			"count":2,
			"type":"VEC4"
		},
		{
			"bufferView":109,
			"componentType":5126,
			"count":2,
			"type":"VEC3"
		},
		{
			"bufferView":110,
			"componentType":5126,
			"count":2,
			"type":"VEC3"
		},
		{
			"bufferView":111,
			"componentType":5126,
			"count":2,
			"type":"VEC4"
		},
		{
			"bufferView":112,
			"componentType":5126,
			"count":2,
			"type":"VEC3"
		},
		{
			"bufferView":113,
			"componentType":5126,
			"count":2,
			"type":"VEC3"
		},
		{
			"bufferView":114,
			"componentType":5126,
			"count":2,
			"type":"VEC4"
		},
		{
			"bufferView":115,
			"componentType":5126,
			"count":2,
			"type":"VEC3"
		},
		{
			"bufferView":116,
			"componentType":5126,
			"count":2,
			"type":"VEC3"
		},
		{
			"bufferView":117,
			"componentType":5126,
			"count":2,
			"type":"VEC4"
		},
		{
			"bufferView":118,
			"componentType":5126,
			"count":2,
			"type":"VEC3"
		},
		{
			"bufferView":119,
			"componentType":5126,
			"count":2,
			"type":"VEC3"
		},
		{
			"bufferView":120,
			"componentType":5126,
			"count":2,
			"type":"VEC4"
		},
		{
			"bufferView":121,
			"componentType":5126,
			"count":2,
			"type":"VEC3"
		},
		{
			"bufferView":122,
			"componentType":5126,
			"count":2,
			"type":"VEC3"
		},
		{
			"bufferView":123,
			"componentType":5126,
			"count":2,
			"type":"VEC4"
		},
		{
			"bufferView":124,
			"componentType":5126,
			"count":2,
			"type":"VEC3"
		},
		{
			"bufferView":125,
			"componentType":5126,
			"count":2,
			"type":"VEC3"
		},
		{
			"bufferView":126,
			"componentType":5126,
			"count":2,
			"type":"VEC4"
		},
		{
			"bufferView":127,
			"componentType":5126,
			"count":2,
			"type":"VEC3"
		},
		{
			"bufferView":128,
			"componentType":5126,
			"count":2,
			"type":"VEC3"
		},
		{
			"bufferView":129,
			"componentType":5126,
			"count":2,
			"type":"VEC4"
		},
		{
			"bufferView":130,
			"componentType":5126,
			"count":2,
			"type":"VEC3"
		},
		{
			"bufferView":131,
			"componentType":5126,
			"count":2,
			"type":"VEC3"
		},
		{
			"bufferView":132,
			"componentType":5126,
			"count":2,
			"type":"VEC4"
		},
		{
			"bufferView":133,
			"componentType":5126,
			"count":2,
			"type":"VEC3"
		},
		{
			"bufferView":134,
			"componentType":5126,
			"count":2,
			"type":"VEC3"
		},
		{
			"bufferView":135,
			"componentType":5126,
			"count":2,
			"type":"VEC4"
		},
		{
			"bufferView":136,
			"componentType":5126,
			"count":2,
			"type":"VEC3"
		},
		{
			"bufferView":137,
			"componentType":5126,
			"count":2,
			"type":"VEC3"
		},
		{
			"bufferView":138,
			"componentType":5126,
			"count":2,
			"type":"VEC4"
		},
		{
			"bufferView":139,
			"componentType":5126,
			"count":2,
			"type":"VEC3"
		},
		{
			"bufferView":140,
			"componentType":5126,
			"count":2,
			"type":"VEC3"
		},
		{
			"bufferView":141,
			"componentType":5126,
			"count":2,
			"type":"VEC4"
		},
		{
			"bufferView":142,
			"componentType":5126,
			"count":2,
			"type":"VEC3"
		},
		{
			"bufferView":143,
			"componentType":5126,
			"count":2,
			"type":"VEC3"
		},
		{
			"bufferView":144,
			"componentType":5126,
			"count":2,
			"type":"VEC4"
		},
		{
			"bufferView":145,
			"componentType":5126,
			"count":2,
			"type":"VEC3"
		},
		{
			"bufferView":146,
			"componentType":5126,
			"count":2,
			"type":"VEC3"
		},
		{
			"bufferView":147,
			"componentType":5126,
			"count":2,
			"type":"VEC4"
		},
		{
			"bufferView":148,
			"componentType":5126,
			"count":2,
			"type":"VEC3"
		},
		{
			"bufferView":149,
			"componentType":5126,
			"count":2,
			"type":"VEC3"
		},
		{
			"bufferView":150,
			"componentType":5126,
			"count":2,
			"type":"VEC4"
		},
		{
			"bufferView":151,
			"componentType":5126,
			"count":2,
			"type":"VEC3"
		},
		{
			"bufferView":152,
			"componentType":5126,
			"count":2,
			"type":"VEC3"
		},
		{
			"bufferView":153,
			"componentType":5126,
			"count":2,
			"type":"VEC4"
		},
		{
			"bufferView":154,
			"componentType":5126,
			"count":2,
			"type":"VEC3"
		},
		{
			"bufferView":155,
			"componentType":5126,
			"count":2,
			"type":"VEC4"
		},
		{
			"bufferView":156,
			"componentType":5126,
			"count":2,
			"type":"VEC3"
		},
		{
			"bufferView":157,
			"componentType":5126,
			"count":2,
			"type":"VEC3"
		},
		{
			"bufferView":158,
			"componentType":5126,
			"count":2,
			"type":"VEC4"
		},
		{
			"bufferView":159,
			"componentType":5126,
			"count":2,
			"type":"VEC3"
		},
		{
			"bufferView":160,
			"componentType":5126,
			"count":2,
			"type":"VEC3"
		},
		{
			"bufferView":161,
			"componentType":5126,
			"count":2,
			"type":"VEC4"
		},
		{
			"bufferView":162,
			"componentType":5126,
			"count":2,
			"type":"VEC3"
		},
		{
			"bufferView":163,
			"componentType":5126,
			"count":2,
			"type":"VEC3"
		},
		{
			"bufferView":164,
			"componentType":5126,
			"count":2,
			"type":"VEC4"
		},
		{
			"bufferView":165,
			"componentType":5126,
			"count":2,
			"type":"VEC3"
		},
		{
			"bufferView":166,
			"componentType":5126,
			"count":2,
			"type":"VEC3"
		},
		{
			"bufferView":167,
			"componentType":5126,
			"count":57,
			"type":"VEC4"
		},
		{
			"bufferView":168,
			"componentType":5126,
			"count":2,
			"type":"VEC3"
		},
		{
			"bufferView":169,
			"componentType":5126,
			"count":2,
			"type":"VEC3"
		},
		{
			"bufferView":170,
			"componentType":5126,
			"count":57,
			"type":"VEC4"
		},
		{
			"bufferView":171,
			"componentType":5126,
			"count":2,
			"type":"VEC3"
		},
		{
			"bufferView":172,
			"componentType":5126,
			"count":2,
			"type":"VEC3"
		},
		{
			"bufferView":173,
			"componentType":5126,
			"count":57,
			"type":"VEC4"
		},
		{
			"bufferView":174,
			"componentType":5126,
			"count":2,
			"type":"VEC3"
		},
		{
			"bufferView":175,
			"componentType":5126,
			"count":2,
			"type":"VEC3"
		},
		{
			"bufferView":176,
			"componentType":5126,
			"count":57,
			"type":"VEC4"
		},
		{
			"bufferView":177,
			"componentType":5126,
			"count":2,
			"type":"VEC3"
		},
		{
			"bufferView":178,
			"componentType":5126,
			"count":2,
			"type":"VEC3"
		},
		{
			"bufferView":179,
			"componentType":5126,
			"count":2,
			"type":"VEC4"
		},
		{
			"bufferView":180,
			"componentType":5126,
			"count":2,
			"type":"VEC3"
		},
		{
			"bufferView":181,
			"componentType":5126,
			"count":2,
			"type":"VEC3"
		},
		{
			"bufferView":182,
			"componentType":5126,
			"count":57,
			"type":"VEC4"
		},
		{
			"bufferView":183,
			"componentType":5126,
			"count":2,
			"type":"VEC3"
		},
		{
			"bufferView":184,
			"componentType":5126,
			"count":2,
			"type":"VEC3"
		},
		{
			"bufferView":185,
			"componentType":5126,
			"count":57,
			"type":"VEC4"
		},
		{
			"bufferView":186,
			"componentType":5126,
			"count":2,
			"type":"VEC3"
		},
		{
			"bufferView":187,
			"componentType":5126,
			"count":2,
			"type":"VEC3"
		},
		{
			"bufferView":188,
			"componentType":5126,
			"count":57,
			"type":"VEC4"
		},
		{
			"bufferView":189,
			"componentType":5126,
			"count":2,
			"type":"VEC3"
		},
		{
			"bufferView":190,
			"componentType":5126,
			"count":2,
			"type":"VEC3"
		},
		{
			"bufferView":191,
			"componentType":5126,
			"count":57,
			"type":"VEC4"
		},
		{
			"bufferView":192,
			"componentType":5126,
			"count":2,
			"type":"VEC3"
		},
		{
			"bufferView":193,
			"componentType":5126,
			"count":2,
			"type":"VEC3"
		},
		{
			"bufferView":194,
			"componentType":5126,
			"count":2,
			"type":"VEC4"
		},
		{
			"bufferView":195,
			"componentType":5126,
			"count":2,
			"type":"VEC3"
		}
	],
	"bufferViews":[
		{
			"buffer":0,
			"byteLength":228,
			"byteOffset":0
		},
		{
			"buffer":0,
			"byteLength":684,
			"byteOffset":228
		},
		{
			"buffer":0,
			"byteLength":912,
			"byteOffset":912
		},
		{
			"buffer":0,
			"byteLength":8,
			"byteOffset":1824
		},
		{
			"buffer":0,
			"byteLength":24,
			"byteOffset":1832
		},
		{
			"buffer":0,
			"byteLength":24,
			"byteOffset":1856
		},
		{
			"buffer":0,
			"byteLength":912,
			"byteOffset":1880
		},
		{
			"buffer":0,
			"byteLength":24,
			"byteOffset":2792
		},
		{
			"buffer":0,
			"byteLength":24,
			"byteOffset":2816
		},
		{
			"buffer":0,
			"byteLength":912,
			"byteOffset":2840
		},
		{
			"buffer":0,
			"byteLength":24,
			"byteOffset":3752
		},
		{
			"buffer":0,
			"byteLength":24,
			"byteOffset":3776
		},
		{
			"buffer":0,
			"byteLength":912,
			"byteOffset":3800
		},
		{
			"buffer":0,
			"byteLength":24,
			"byteOffset":4712
		},
		{
			"buffer":0,
			"byteLength":24,
			"byteOffset":4736
		},
		{
			"buffer":0,
			"byteLength":912,
			"byteOffset":4760
		},
		{
			"buffer":0,
			"byteLength":24,
			"byteOffset":5672
		},
		{
			"buffer":0,
			"byteLength":24,
			"byteOffset":5696
		},
		{
			"buffer":0,
			"byteLength":912,
			"byteOffset":5720
		},
		{
			"buffer":0,
			"byteLength":24,
			"byteOffset":6632
		},
		{
			"buffer":0,
			"byteLength":24,
			"byteOffset":6656
		},
		{
			"buffer":0,
			"byteLength":32,
			"byteOffset":6680
		},
		{
			"buffer":0,
			"byteLength":24,
			"byteOffset":6712
		},
		{
			"buffer":0,
			"byteLength":24,
			"byteOffset":6736
		},
		{
			"buffer":0,
			"byteLength":32,
			"byteOffset":6760
		},
		{
			"buffer":0,
			"byteLength":24,
			"byteOffset":6792
		},
		{
			"buffer":0,
			"byteLength":24,
			"byteOffset":6816
		},
		{
			"buffer":0,
			"byteLength":912,
			"byteOffset":6840
		},
		{
			"buffer":0,
			"byteLength":24,
			"byteOffset":7752
		},
		{
			"buffer":0,
			"byteLength":24,
			"byteOffset":7776
		},
		{
			"buffer":0,
			"byteLength":912,
			"byteOffset":7800
		},
		{
			"buffer":0,
			"byteLength":24,
			"byteOffset":8712
		},
		{
			"buffer":0,
			"byteLength":24,
			"byteOffset":8736
		},
		{
			"buffer":0,
			"byteLength":912,
			"byteOffset":8760
		},
		{
			"buffer":0,
			"byteLength":24,
			"byteOffset":9672
		},
		{
			"buffer":0,
			"byteLength":24,
			"byteOffset":9696
		},
		{
			"buffer":0,
			"byteLength":912,
			"byteOffset":9720
		},
		{
			"buffer":0,
			"byteLength":24,
			"byteOffset":10632
		},
		{
			"buffer":0,
			"byteLength":24,
			"byteOffset":10656
		},
		{
			"buffer":0,
			"byteLength":912,
			"byteOffset":10680
		},
		{
			"buffer":0,
			"byteLength":24,
			"byteOffset":11592
		},
		{
			"buffer":0,
			"byteLength":24,
			"byteOffset":11616
		},
		{
			"buffer":0,
			"byteLength":912,
			"byteOffset":11640
		},
		{
			"buffer":0,
			"byteLength":24,
			"byteOffset":12552
		},
		{
			"buffer":0,
			"byteLength":24,
			"byteOffset":12576
		},
		{
			"buffer":0,
			"byteLength":912,
			"byteOffset":12600
		},
		{
			"buffer":0,
			"byteLength":24,
			"byteOffset":13512
		},
		{
			"buffer":0,
			"byteLength":24,
			"byteOffset":13536
		},
		{
			"buffer":0,
			"byteLength":32,
			"byteOffset":13560
		},
		{
			"buffer":0,
			"byteLength":24,
			"byteOffset":13592
		},
		{
			"buffer":0,
			"byteLength":24,
			"byteOffset":13616
		},
		{
			"buffer":0,
			"byteLength":912,
			"byteOffset":13640
		},
		{
			"buffer":0,
			"byteLength":24,
			"byteOffset":14552
		},
		{
			"buffer":0,
			"byteLength":24,
			"byteOffset":14576
		},
		{
			"buffer":0,
			"byteLength":912,
			"byteOffset":14600
		},
		{
			"buffer":0,
			"byteLength":24,
			"byteOffset":15512
		},
		{
			"buffer":0,
			"byteLength":24,
			"byteOffset":15536
		},
		{
			"buffer":0,
			"byteLength":912,
			"byteOffset":15560
		},
		{
			"buffer":0,
			"byteLength":24,
			"byteOffset":16472
		},
		{
			"buffer":0,
			"byteLength":24,
			"byteOffset":16496
		},
		{
			"buffer":0,
			"byteLength":32,
			"byteOffset":16520
		},
		{
			"buffer":0,
			"byteLength":24,
			"byteOffset":16552
		},
		{
			"buffer":0,
			"byteLength":24,
			"byteOffset":16576
		},
		{
			"buffer":0,
			"byteLength":912,
			"byteOffset":16600
		},
		{
			"buffer":0,
			"byteLength":24,
			"byteOffset":17512
		},
		{
			"buffer":0,
			"byteLength":912,
			"byteOffset":17536
		},
		{
			"buffer":0,
			"byteLength":24,
			"byteOffset":18448
		},
		{
			"buffer":0,
			"byteLength":24,
			"byteOffset":18472
		},
		{
			"buffer":0,
			"byteLength":912,
			"byteOffset":18496
		},
		{
			"buffer":0,
			"byteLength":24,
			"byteOffset":19408
		},
		{
			"buffer":0,
			"byteLength":24,
			"byteOffset":19432
		},
		{
			"buffer":0,
			"byteLength":32,
			"byteOffset":19456
		},
		{
			"buffer":0,
			"byteLength":24,
			"byteOffset":19488
		},
		{
			"buffer":0,
			"byteLength":24,
			"byteOffset":19512
		},
		{
			"buffer":0,
			"byteLength":912,
			"byteOffset":19536
		},
		{
			"buffer":0,
			"byteLength":24,
			"byteOffset":20448
		},
		{
			"buffer":0,
			"byteLength":912,
			"byteOffset":20472
		},
		{
			"buffer":0,
			"byteLength":24,
			"byteOffset":21384
		},
		{
			"buffer":0,
			"byteLength":24,
			"byteOffset":21408
		},
		{
			"buffer":0,
			"byteLength":912,
			"byteOffset":21432
		},
		{
			"buffer":0,
			"byteLength":24,
			"byteOffset":22344
		},
		{
			"buffer":0,
			"byteLength":24,
			"byteOffset":22368
		},
		{
			"buffer":0,
			"byteLength":32,
			"byteOffset":22392
		},
		{
			"buffer":0,
			"byteLength":24,
			"byteOffset":22424
		},
		{
			"buffer":0,
			"byteLength":912,
			"byteOffset":22448
		},
		{
			"buffer":0,
			"byteLength":24,
			"byteOffset":23360
		},
		{
			"buffer":0,
			"byteLength":24,
			"byteOffset":23384
		},
		{
			"buffer":0,
			"byteLength":912,
			"byteOffset":23408
		},
		{
			"buffer":0,
			"byteLength":24,
			"byteOffset":24320
		},
		{
			"buffer":0,
			"byteLength":24,
			"byteOffset":24344
		},
		{
			"buffer":0,
			"byteLength":912,
			"byteOffset":24368
		},
		{
			"buffer":0,
			"byteLength":24,
			"byteOffset":25280
		},
		{
			"buffer":0,
			"byteLength":24,
			"byteOffset":25304
		},
		{
			"buffer":0,
			"byteLength":32,
			"byteOffset":25328
		},
		{
			"buffer":0,
			"byteLength":24,
			"byteOffset":25360
		},
		{
			"buffer":0,
			"byteLength":24,
			"byteOffset":25384
		},
		{
			"buffer":0,
			"byteLength":912,
			"byteOffset":25408
		},
		{
			"buffer":0,
			"byteLength":24,
			"byteOffset":26320
		},
		{
			"buffer":0,
			"byteLength":24,
			"byteOffset":26344
		},
		{
			"buffer":0,
			"byteLength":912,
			"byteOffset":26368
		},
		{
			"buffer":0,
			"byteLength":24,
			"byteOffset":27280
		},
		{
			"buffer":0,
			"byteLength":24,
			"byteOffset":27304
		},
		{
			"buffer":0,
			"byteLength":912,
			"byteOffset":27328
		},
		{
			"buffer":0,
			"byteLength":24,
			"byteOffset":28240
		},
		{
			"buffer":0,
			"byteLength":24,
			"byteOffset":28264
		},
		{
			"buffer":0,
			"byteLength":912,
			"byteOffset":28288
		},
		{
			"buffer":0,
			"byteLength":24,
			"byteOffset":29200
		},
		{
			"buffer":0,
			"byteLength":24,
			"byteOffset":29224
		},
		{
			"buffer":0,
			"byteLength":32,
			"byteOffset":29248
		},
		{
			"buffer":0,
			"byteLength":24,
			"byteOffset":29280
		},
		{
			"buffer":0,
			"byteLength":24,
			"byteOffset":29304
		},
		{
			"buffer":0,
			"byteLength":32,
			"byteOffset":29328
		},
		{
			"buffer":0,
			"byteLength":24,
			"byteOffset":29360
		},
		{
			"buffer":0,
			"byteLength":24,
			"byteOffset":29384
		},
		{
			"buffer":0,
			"byteLength":32,
			"byteOffset":29408
		},
		{
			"buffer":0,
			"byteLength":24,
			"byteOffset":29440
		},
		{
			"buffer":0,
			"byteLength":24,
			"byteOffset":29464
		},
		{
			"buffer":0,
			"byteLength":32,
			"byteOffset":29488
		},
		{
			"buffer":0,
			"byteLength":24,
			"byteOffset":29520
		},
		{
			"buffer":0,
			"byteLength":24,
			"byteOffset":29544
		},
		{
			"buffer":0,
			"byteLength":32,
			"byteOffset":29568
		},
		{
			"buffer":0,
			"byteLength":24,
			"byteOffset":29600
		},
		{
			"buffer":0,
			"byteLength":24,
			"byteOffset":29624
		},
		{
			"buffer":0,
			"byteLength":32,
			"byteOffset":29648
		},
		{
			"buffer":0,
			"byteLength":24,
			"byteOffset":29680
		},
		{
			"buffer":0,
			"byteLength":24,
			"byteOffset":29704
		},
		{
			"buffer":0,
			"byteLength":32,
			"byteOffset":29728
		},
		{
			"buffer":0,
			"byteLength":24,
			"byteOffset":29760
		},
		{
			"buffer":0,
			"byteLength":24,
			"byteOffset":29784
		},
		{
			"buffer":0,
			"byteLength":32,
			"byteOffset":29808
		},
		{
			"buffer":0,
			"byteLength":24,
			"byteOffset":29840
		},
		{
			"buffer":0,
			"byteLength":24,
			"byteOffset":29864
		},
		{
			"buffer":0,
			"byteLength":32,
			"byteOffset":29888
		},
		{
			"buffer":0,
			"byteLength":24,
			"byteOffset":29920
		},
		{
			"buffer":0,
			"byteLength":24,
			"byteOffset":29944
		},
		{
			"buffer":0,
			"byteLength":32,
			"byteOffset":29968
		},
		{
			"buffer":0,
			"byteLength":24,
			"byteOffset":30000
		},
		{
			"buffer":0,
			"byteLength":24,
			"byteOffset":30024
		},
		{
			"buffer":0,
			"byteLength":32,
			"byteOffset":30048
		},
		{
			"buffer":0,
			"byteLength":24,
			"byteOffset":30080
		},
		{
			"buffer":0,
			"byteLength":24,
			"byteOffset":30104
		},
		{
			"buffer":0,
			"byteLength":32,
			"byteOffset":30128
		},
		{
			"buffer":0,
			"byteLength":24,
			"byteOffset":30160
		},
		{
			"buffer":0,
			"byteLength":24,
			"byteOffset":30184
		},
		{
			"buffer":0,
			"byteLength":32,
			"byteOffset":30208
		},
		{
			"buffer":0,
			"byteLength":24,
			"byteOffset":30240
		},
		{
			"buffer":0,
			"byteLength":24,
			"byteOffset":30264
		},
		{
			"buffer":0,
			"byteLength":32,
			"byteOffset":30288
		},
		{
			"buffer":0,
			"byteLength":24,
			"byteOffset":30320
		},
		{
			"buffer":0,
			"byteLength":24,
			"byteOffset":30344
		},
		{
			"buffer":0,
			"byteLength":32,
			"byteOffset":30368
		},
		{
			"buffer":0,
			"byteLength":24,
			"byteOffset":30400
		},
		{
			"buffer":0,
			"byteLength":24,
			"byteOffset":30424
		},
		{
			"buffer":0,
			"byteLength":32,
			"byteOffset":30448
		},
		{
			"buffer":0,
			"byteLength":24,
			"byteOffset":30480
		},
		{
			"buffer":0,
			"byteLength":32,
			"byteOffset":30504
		},
		{
			"buffer":0,
			"byteLength":24,
			"byteOffset":30536
		},
		{
			"buffer":0,
			"byteLength":24,
			"byteOffset":30560
		},
		{
			"buffer":0,
			"byteLength":32,
			"byteOffset":30584
		},
		{
			"buffer":0,
			"byteLength":24,
			"byteOffset":30616
		},
		{
			"buffer":0,
			"byteLength":24,
			"byteOffset":30640
		},
		{
			"buffer":0,
			"byteLength":32,
			"byteOffset":30664
		},
		{
			"buffer":0,
			"byteLength":24,
			"byteOffset":30696
		},
		{
			"buffer":0,
			"byteLength":24,
			"byteOffset":30720
		},
		{
			"buffer":0,
			"byteLength":32,
			"byteOffset":30744
		},
		{
			"buffer":0,
			"byteLength":24,
			"byteOffset":30776
		},
		{
			"buffer":0,
			"byteLength":24,
			"byteOffset":30800
		},
		{
			"buffer":0,
			"byteLength":912,
			"byteOffset":30824
		},
		{
			"buffer":0,
			"byteLength":24,
			"byteOffset":31736
		},
		{
			"buffer":0,
			"byteLength":24,
			"byteOffset":31760
		},
		{
			"buffer":0,
			"byteLength":912,
			"byteOffset":31784
		},
		{
			"buffer":0,
			"byteLength":24,
			"byteOffset":32696
		},
		{
			"buffer":0,
			"byteLength":24,
			"byteOffset":32720
		},
		{
			"buffer":0,
			"byteLength":912,
			"byteOffset":32744
		},
		{
			"buffer":0,
			"byteLength":24,
			"byteOffset":33656
		},
		{
			"buffer":0,
			"byteLength":24,
			"byteOffset":33680
		},
		{
			"buffer":0,
			"byteLength":912,
			"byteOffset":33704
		},
		{
			"buffer":0,
			"byteLength":24,
			"byteOffset":34616
		},
		{
			"buffer":0,
			"byteLength":24,
			"byteOffset":34640
		},
		{
			"buffer":0,
			"byteLength":32,
			"byteOffset":34664
		},
		{
			"buffer":0,
			"byteLength":24,
			"byteOffset":34696
		},
		{
			"buffer":0,
			"byteLength":24,
			"byteOffset":34720
		},
		{
			"buffer":0,
			"byteLength":912,
			"byteOffset":34744
		},
		{
			"buffer":0,
			"byteLength":24,
			"byteOffset":35656
		},
		{
			"buffer":0,
			"byteLength":24,
			"byteOffset":35680
		},
		{
			"buffer":0,
			"byteLength":912,
			"byteOffset":35704
		},
		{
			"buffer":0,
			"byteLength":24,
			"byteOffset":36616
		},
		{
			"buffer":0,
			"byteLength":24,
			"byteOffset":36640
		},
		{
			"buffer":0,
			"byteLength":912,
			"byteOffset":36664
		},
		{
			"buffer":0,
			"byteLength":24,
			"byteOffset":37576
		},
		{
			"buffer":0,
			"byteLength":24,
			"byteOffset":37600
		},
		{
			"buffer":0,
			"byteLength":912,
			"byteOffset":37624
		},
		{
			"buffer":0,
			"byteLength":24,
			"byteOffset":38536
		},
		{
			"buffer":0,
			"byteLength":24,
			"byteOffset":38560
		},
		{
			"buffer":0,
			"byteLength":32,
			"byteOffset":38584
		},
		{
			"buffer":0,
			"byteLength":24,
			"byteOffset":38616
		}
	],
	"buffers":[
		{
			"byteLength":38640,
			"uri":"Kick.bin"
		}
	]
}
