{
	"asset":{
		"generator":"Khronos glTF Blender I/O v5.0.21",
		"version":"2.0"
	},
	"scene":0,
	"scenes":[
		{
			"extras":{
				"bc":{},
				"wiggle":{
					"is_rendering":0
				}
			},
			"name":"Scene",
			"nodes":[
				66,
				67,
				68,
				69,
				70,
				71,
				72,
				73,
				74,
				75,
				76,
				77,
				78,
				79,
				80,
				81,
				82,
				83,
				84,
				85,
				86,
				87,
				88,
				89,
				90,
				91,
				92,
				93,
				94,
				95,
				96,
				97,
				98,
				99,
				100,
				101,
				102,
				103,
				104,
				105,
				106,
				107,
				108,
				109,
				110,
				111,
				112,
				113,
				114,
				115,
				116,
				117,
				118,
				119,
				120,
				121,
				122,
				123,
				124,
				125,
				126,
				127,
				128,
				129,
				130,
				131,
				132,
				133,
				134,
				135,
				136,
				137,
				138,
				139,
				140,
				141,
				142,
				143,
				144,
				145,
				146,
				147,
				148,
				149,
				150,
				151,
				152,
				153,
				154,
				155,
				156,
				157,
				158,
				159,
				160,
				161,
				162,
				163,
				164,
				165,
				166,
				167,
				168,
				169,
				170,
				171,
				172,
				173,
				174,
				175,
				176,
				177,
				178,
				179,
				180,
				181,
				182,
				183,
				184,
				185,
				186,
				187,
				188,
				189,
				190,
				191,
				192,
				193
			]
		}
	],
	"nodes":[
		{
			"name":"Head",
			"rotation":[
				-0.07867422699928284,
				0,
				0,
				0.9969003796577454
			],
			"scale":[
				1,
				0.9999999403953552,
				0.9999999403953552
			],
			"translation":[
				0,
				0.08258678019046783,
				-1.3969838619232178e-09
			]
		},
		{
			"children":[
				0
			],
			"name":"neck_01",
			"rotation":[
				0.11098591238260269,
				0,
				0,
				0.9938219785690308
			],
			"scale":[
				1,
				0.9999999403953552,
				0.9999999403953552
			],
			"translation":[
				0,
				0.1728907823562622,
				-1.862645149230957e-09
			]
		},
		{
			"name":"index_04_leaf_l",
			"rotation":[
				4.1180931362579326e-16,
				1,
				1.4787951179418804e-17,
				3.6517765238386346e-06
			],
			"translation":[
				4.697540134657174e-09,
				0.030100105330348015,
				1.0693611329770647e-08
			]
		},
		{
			"children":[
				2
			],
			"name":"index_03_l",
			"rotation":[
				7.348758588704803e-18,
				1.1368683772161603e-13,
				-1.327914859583146e-16,
				1
			],
			"scale":[
				1,
				0.9999999403953552,
				1
			],
			"translation":[
				9.722498361952603e-10,
				0.034800052642822266,
				1.0693611329770647e-08
			]
		},
		{
			"children":[
				3
			],
			"name":"index_02_l",
			"rotation":[
				-4.4818607104670644e-14,
				-9.671452971815597e-09,
				-2.7004171121447484e-10,
				1
			],
			"translation":[
				-5.128198976578346e-10,
				0.04070001840591431,
				1.136087224296034e-08
			]
		},
		{
			"children":[
				4
			],
			"name":"index_01_l",
			"rotation":[
				-4.854115687180638e-08,
				0.7071095705032349,
				-4.854154056488369e-08,
				0.707103967666626
			],
			"scale":[
				0.9999999403953552,
				0.9999997615814209,
				1
			],
			"translation":[
				0.001999831758439541,
				0.1198999211192131,
				0.030899997800588608
			]
		},
		{
			"name":"middle_04_leaf_l",
			"rotation":[
				9.313227522511625e-09,
				1,
				-5.5467012344376405e-15,
				3.6517760690912837e-06
			],
			"scale":[
				1,
				0.9999997019767761,
				1
			],
			"translation":[
				-5.866240826435387e-09,
				0.034437183290719986,
				2.5992932251028833e-08
			]
		},
		{
			"children":[
				6
			],
			"name":"middle_03_l",
			"rotation":[
				8.156294306616019e-09,
				-3.566927135600917e-12,
				-0.0011296597076579928,
				0.9999993443489075
			],
			"translation":[
				-2.7830537874251604e-10,
				0.03393314778804779,
				1.605138209015422e-07
			]
		},
		{
			"children":[
				7
			],
			"name":"middle_02_l",
			"rotation":[
				-1.1900032070855104e-08,
				-9.910034570737025e-09,
				0.0015135601861402392,
				0.9999988675117493
			],
			"translation":[
				3.637978807091713e-10,
				0.042347248643636703,
				2.018612121901242e-08
			]
		},
		{
			"children":[
				8
			],
			"name":"middle_01_l",
			"rotation":[
				-0.01670246012508869,
				0.7069122791290283,
				-0.016702570021152496,
				0.7069067358970642
			],
			"scale":[
				0.9999999403953552,
				0.9999998807907104,
				1
			],
			"translation":[
				-0.00040022601024247706,
				0.12159990519285202,
				0.0052000004798173904
			]
		},
		{
			"name":"pinky_04_leaf_l",
			"rotation":[
				2.421439049271612e-08,
				1,
				1.6284096602614886e-14,
				3.65177675121231e-06
			],
			"scale":[
				0.9999999403953552,
				0.9999999403953552,
				0.9999999403953552
			],
			"translation":[
				-3.5834091249853373e-09,
				0.028164202347397804,
				1.1433525060056127e-07
			]
		},
		{
			"children":[
				10
			],
			"name":"pinky_03_l",
			"rotation":[
				-4.400461328657457e-09,
				4.186874371508997e-12,
				0.000609522860031575,
				0.9999998211860657
			],
			"scale":[
				0.9999999403953552,
				0.9999998807907104,
				0.9999999403953552
			],
			"translation":[
				-3.58431861968711e-09,
				0.027665333822369576,
				2.2544884359376738e-07
			]
		},
		{
			"children":[
				11
			],
			"name":"pinky_02_l",
			"rotation":[
				5.882122788847255e-09,
				-1.0178268894378562e-08,
				-0.0008342716027982533,
				0.9999996423721313
			],
			"translation":[
				3.346940502524376e-09,
				0.04029057174921036,
				-1.4873648979119025e-09
			]
		},
		{
			"children":[
				12
			],
			"name":"pinky_01_l",
			"rotation":[
				-0.023706039413809776,
				0.7067120671272278,
				-0.02370619960129261,
				0.7067065238952637
			],
			"translation":[
				0.0015997173031792045,
				0.107699915766716,
				-0.040800001472234726
			]
		},
		{
			"name":"ring_04_leaf_l",
			"rotation":[
				1.862645149230957e-09,
				1,
				5.017902800631517e-14,
				3.65177675121231e-06
			],
			"translation":[
				1.2751115718856454e-09,
				0.03182259574532509,
				-1.1624800322351803e-07
			]
		},
		{
			"children":[
				14
			],
			"name":"ring_03_l",
			"rotation":[
				7.704945126363327e-09,
				-2.098988951398928e-12,
				-0.0010670634219422936,
				0.9999994039535522
			],
			"scale":[
				1,
				0.9999999403953552,
				1
			],
			"translation":[
				-6.176378519739956e-09,
				0.030919553712010384,
				-1.0190598231929471e-07
			]
		},
		{
			"children":[
				15
			],
			"name":"ring_02_l",
			"rotation":[
				-8.660336892063469e-10,
				-9.627518338106711e-09,
				1.2190081179141998e-05,
				1
			],
			"translation":[
				-7.830749382264912e-10,
				0.039324983954429626,
				-1.0246476733755117e-07
			]
		},
		{
			"children":[
				16
			],
			"name":"ring_01_l",
			"rotation":[
				-0.012588735669851303,
				0.7069975137710571,
				-0.012588820420205593,
				0.706991970539093
			],
			"scale":[
				0.9999999403953552,
				0.9999997615814209,
				1
			],
			"translation":[
				-0.00010019120236393064,
				0.11909990012645721,
				-0.017100004479289055
			]
		},
		{
			"name":"thumb_04_leaf_l",
			"rotation":[
				2.3757428024850924e-08,
				0.5061779022216797,
				2.723667478221614e-07,
				0.8624290823936462
			],
			"scale":[
				1.0000001192092896,
				1,
				1
			],
			"translation":[
				-2.0787410903722048e-07,
				0.0408623106777668,
				-1.862645149230957e-08
			]
		},
		{
			"children":[
				18
			],
			"name":"thumb_03_l",
			"rotation":[
				0.0002478846290614456,
				8.091918425634503e-05,
				-0.0005353352753445506,
				0.9999998211860657
			],
			"scale":[
				0.9999998807907104,
				0.9999998807907104,
				0.9999999403953552
			],
			"translation":[
				-1.2301234164624475e-07,
				0.049077946692705154,
				-2.514570951461792e-08
			]
		},
		{
			"children":[
				19
			],
			"name":"thumb_02_l",
			"rotation":[
				-0.000135714202770032,
				-7.41071708034724e-05,
				4.7934565372997895e-05,
				1
			],
			"scale":[
				1,
				0.9999998807907104,
				0.9999999403953552
			],
			"translation":[
				5.90443960390985e-09,
				0.0430297926068306,
				4.284083843231201e-08
			]
		},
		{
			"children":[
				20
			],
			"name":"thumb_01_l",
			"rotation":[
				0.2474130243062973,
				0.9457945227622986,
				0.20344115793704987,
				0.05358405411243439
			],
			"scale":[
				1,
				1.0000001192092896,
				1
			],
			"translation":[
				0.02279982902109623,
				0.02729993499815464,
				0.03359999507665634
			]
		},
		{
			"children":[
				5,
				9,
				13,
				17,
				21
			],
			"name":"hand_l",
			"rotation":[
				-0.008619682863354683,
				-4.1722387322806753e-07,
				2.1919726034269615e-09,
				0.9999628663063049
			],
			"translation":[
				1.2729826082136242e-08,
				0.27264055609703064,
				-1.8102070953318616e-09
			]
		},
		{
			"children":[
				22
			],
			"name":"lowerarm_l",
			"rotation":[
				0.01718229055404663,
				-2.035305260505993e-05,
				3.6708831885334803e-07,
				0.9998524188995361
			],
			"translation":[
				2.1565142560575623e-08,
				0.2744402587413788,
				-1.2878444977104664e-09
			]
		},
		{
			"children":[
				23
			],
			"name":"upperarm_l",
			"rotation":[
				0.18026958405971527,
				0.6838500499725342,
				-0.17983640730381012,
				0.6837477087974548
			],
			"translation":[
				-0.03007233701646328,
				0.21858175098896027,
				-0.01696845516562462
			]
		},
		{
			"children":[
				24
			],
			"name":"clavicle_l",
			"rotation":[
				-0.6040205955505371,
				-0.34510302543640137,
				-0.35671767592430115,
				0.6235507726669312
			],
			"translation":[
				0.018799999728798866,
				0.1405535787343979,
				0.08089503645896912
			]
		},
		{
			"name":"index_04_leaf_r",
			"rotation":[
				1.7660197551910774e-16,
				-1,
				2.368324237555521e-16,
				3.6517765238386346e-06
			],
			"translation":[
				-9.713403414934874e-10,
				0.030099960044026375,
				1.1624820217548404e-08
			]
		},
		{
			"children":[
				26
			],
			"name":"index_03_r",
			"rotation":[
				-1.1838301877415552e-16,
				-1.1368683772161603e-13,
				-4.1818744524883854e-16,
				1
			],
			"translation":[
				-4.6966306399554014e-09,
				0.03480002284049988,
				-1.0758446933323285e-07
			]
		},
		{
			"children":[
				27
			],
			"name":"index_02_r",
			"rotation":[
				-5.2394442679858794e-14,
				-3.824084160441998e-09,
				2.7004842806377383e-10,
				1
			],
			"translation":[
				-5.3552526857458815e-09,
				0.04070010781288147,
				-1.0784840043243094e-07
			]
		},
		{
			"children":[
				28
			],
			"name":"index_01_r",
			"rotation":[
				-4.8541142660951664e-08,
				-0.7071096301078796,
				4.854153345945633e-08,
				0.7071039080619812
			],
			"scale":[
				1,
				0.9999999403953552,
				1
			],
			"translation":[
				-0.0019998278003185987,
				0.11989995837211609,
				0.030899999663233757
			]
		},
		{
			"name":"middle_04_leaf_r",
			"rotation":[
				9.313225746154785e-09,
				-1,
				-4.341538183106307e-14,
				3.651776296464959e-06
			],
			"translation":[
				4.00359567720443e-09,
				0.03443721681833267,
				2.6527175123192137e-08
			]
		},
		{
			"children":[
				30
			],
			"name":"middle_03_r",
			"rotation":[
				8.186298749990328e-09,
				2.2575290595239217e-11,
				0.0011296587763354182,
				0.9999993443489075
			],
			"scale":[
				1,
				0.9999999403953552,
				1
			],
			"translation":[
				2.141860022675246e-09,
				0.03393318131566048,
				4.189584501546051e-08
			]
		},
		{
			"children":[
				31
			],
			"name":"middle_02_r",
			"rotation":[
				-1.100992630398423e-08,
				-3.3837239676870468e-09,
				-0.0015135611174628139,
				0.9999988675117493
			],
			"translation":[
				6.311893230304122e-10,
				0.04234728217124939,
				-9.737595974002033e-08
			]
		},
		{
			"children":[
				32
			],
			"name":"middle_01_r",
			"rotation":[
				-0.01670246012508869,
				-0.7069123387336731,
				0.016702566295862198,
				0.7069066762924194
			],
			"scale":[
				0.9999999403953552,
				0.9999998807907104,
				1
			],
			"translation":[
				0.00040023319888859987,
				0.12159993499517441,
				0.00520000234246254
			]
		},
		{
			"name":"pinky_04_leaf_r",
			"rotation":[
				2.60770320892334e-08,
				-1,
				-3.1884908667338674e-14,
				3.6517765238386346e-06
			],
			"translation":[
				3.5824996302835643e-09,
				0.028164170682430267,
				-1.2279903671696957e-07
			]
		},
		{
			"children":[
				34
			],
			"name":"pinky_03_r",
			"rotation":[
				-4.416420118502629e-09,
				-1.6191496060580235e-11,
				-0.0006095209391787648,
				0.9999998211860657
			],
			"translation":[
				3.58431861968711e-09,
				0.027665363624691963,
				-1.1715911796272849e-08
			]
		},
		{
			"children":[
				35
			],
			"name":"pinky_02_r",
			"rotation":[
				5.623980836588771e-09,
				-2.9140143631423143e-09,
				0.0008342642686329782,
				0.9999996423721313
			],
			"scale":[
				0.9999999403953552,
				0.9999998211860657,
				1
			],
			"translation":[
				8.576535037718713e-10,
				0.04029053822159767,
				-1.963655904546613e-09
			]
		},
		{
			"children":[
				36
			],
			"name":"pinky_01_r",
			"rotation":[
				-0.023706039413809776,
				-0.7067121267318726,
				0.02370619773864746,
				0.7067064642906189
			],
			"translation":[
				-0.0015997047303244472,
				0.10769994556903839,
				-0.040800001472234726
			]
		},
		{
			"name":"ring_04_leaf_r",
			"rotation":[
				3.725290742551124e-09,
				-1,
				-6.052667895150524e-15,
				3.651776296464959e-06
			],
			"scale":[
				1,
				0.9999997019767761,
				1
			],
			"translation":[
				-1.2760210665874183e-09,
				0.031822629272937775,
				4.2641943309718044e-09
			]
		},
		{
			"children":[
				38
			],
			"name":"ring_03_r",
			"rotation":[
				7.732828599671393e-09,
				2.1304747896411236e-11,
				0.0010670634219422936,
				0.9999994039535522
			],
			"scale":[
				1,
				0.9999999403953552,
				1
			],
			"translation":[
				2.4510882212780416e-09,
				0.03091958537697792,
				-1.0054915833279665e-07
			]
		},
		{
			"children":[
				39
			],
			"name":"ring_02_r",
			"rotation":[
				7.371431243186066e-10,
				-3.438689111234794e-09,
				-1.2191012501716614e-05,
				1
			],
			"translation":[
				-2.5420376914553344e-09,
				0.03932501748204231,
				-2.1878902600747097e-07
			]
		},
		{
			"children":[
				40
			],
			"name":"ring_01_r",
			"rotation":[
				-0.012588738463819027,
				-0.7069975137710571,
				0.01258881762623787,
				0.706991970539093
			],
			"scale":[
				0.9999999403953552,
				0.9999997615814209,
				1
			],
			"translation":[
				0.00010020103945862502,
				0.1190999373793602,
				-0.017100002616643906
			]
		},
		{
			"name":"thumb_04_leaf_r",
			"rotation":[
				1.9437893072904444e-08,
				-0.5061777830123901,
				-2.737419038112421e-07,
				0.862429141998291
			],
			"translation":[
				-6.444497557822615e-08,
				0.040862299501895905,
				1.4901161193847656e-08
			]
		},
		{
			"children":[
				42
			],
			"name":"thumb_03_r",
			"rotation":[
				0.0002478510432410985,
				-8.099935803329572e-05,
				0.0005353167653083801,
				0.9999998807907104
			],
			"scale":[
				0.9999998807907104,
				0.9999999403953552,
				1
			],
			"translation":[
				-5.5804321164032444e-08,
				0.04907788336277008,
				5.587935447692871e-09
			]
		},
		{
			"children":[
				43
			],
			"name":"thumb_02_r",
			"rotation":[
				-0.00013566949928645045,
				7.40157556720078e-05,
				-4.7864316002232954e-05,
				1
			],
			"scale":[
				1,
				0.9999999403953552,
				0.9999999403953552
			],
			"translation":[
				-7.172275218181312e-09,
				0.04302985966205597,
				-1.6763806343078613e-08
			]
		},
		{
			"children":[
				44
			],
			"name":"thumb_01_r",
			"rotation":[
				0.2474130541086197,
				-0.9457944631576538,
				-0.2034410983324051,
				0.053584057837724686
			],
			"scale":[
				1,
				1.0000001192092896,
				1
			],
			"translation":[
				-0.022799823433160782,
				0.027299968525767326,
				0.03359999507665634
			]
		},
		{
			"children":[
				29,
				33,
				37,
				41,
				45
			],
			"name":"hand_r",
			"rotation":[
				-0.008619682863354683,
				5.364287289921776e-07,
				-2.1920292248012174e-09,
				0.9999628663063049
			],
			"scale":[
				1,
				0.9999999403953552,
				0.9999999403953552
			],
			"translation":[
				-2.204334137445585e-08,
				0.2726404666900635,
				1.72497038875008e-09
			]
		},
		{
			"children":[
				46
			],
			"name":"lowerarm_r",
			"rotation":[
				0.017182305455207825,
				2.035305260505993e-05,
				-3.691950496431673e-07,
				0.9998524188995361
			],
			"translation":[
				-1.4812334825364815e-07,
				0.2744402289390564,
				-7.94170773588121e-09
			]
		},
		{
			"children":[
				47
			],
			"name":"upperarm_r",
			"rotation":[
				0.18026958405971527,
				-0.6838500499725342,
				0.17983640730381012,
				0.6837477087974548
			],
			"translation":[
				0.03007233701646328,
				0.21858175098896027,
				-0.01696845516562462
			]
		},
		{
			"children":[
				48
			],
			"name":"clavicle_r",
			"rotation":[
				-0.6040205955505371,
				0.34510302543640137,
				0.35671767592430115,
				0.6235507726669312
			],
			"translation":[
				-0.018799999728798866,
				0.1405535787343979,
				0.08089503645896912
			]
		},
		{
			"children":[
				1,
				25,
				49
			],
			"name":"spine_03",
			"rotation":[
				-0.0002685915678739548,
				0,
				0,
				1
			],
			"scale":[
				1,
				0.9999999403953552,
				1
			],
			"translation":[
				0,
				0.14127187430858612,
				5.587935447692871e-09
			]
		},
		{
			"children":[
				50
			],
			"name":"spine_02",
			"rotation":[
				-0.07727984338998795,
				0,
				0,
				0.9970094561576843
			],
			"scale":[
				1,
				0.9999999403953552,
				1
			],
			"translation":[
				0,
				0.12403485178947449,
				3.4924596548080444e-10
			]
		},
		{
			"children":[
				51
			],
			"name":"spine_01",
			"rotation":[
				-0.06470262259244919,
				0,
				0,
				0.9979045987129211
			],
			"scale":[
				1,
				0.9999999403953552,
				1
			],
			"translation":[
				0,
				0.1381763368844986,
				-1.210719347000122e-08
			]
		},
		{
			"name":"ball_leaf_l",
			"rotation":[
				-1.4901159417490817e-08,
				-2.043089253334074e-08,
				-3.0444404944326845e-16,
				1
			],
			"translation":[
				6.8294805366519995e-09,
				0.07890003174543381,
				-5.368017141904602e-11
			]
		},
		{
			"children":[
				53
			],
			"name":"ball_l",
			"rotation":[
				0.0001371279067825526,
				-0.9643067717552185,
				0.26478710770606995,
				0.0004994344199076295
			],
			"scale":[
				1,
				1.0000003576278687,
				0.9999998211860657
			],
			"translation":[
				3.919922164641321e-09,
				0.1733010858297348,
				-8.578354027122259e-09
			]
		},
		{
			"children":[
				54
			],
			"name":"foot_l",
			"rotation":[
				-0.5290717482566833,
				-0.0003280931559856981,
				0.00034345293533988297,
				0.8485770225524902
			],
			"scale":[
				1,
				1,
				0.9999999403953552
			],
			"translation":[
				-7.219114195322618e-09,
				0.4294798970222473,
				2.408341970294714e-09
			]
		},
		{
			"children":[
				55
			],
			"name":"calf_l",
			"rotation":[
				0.03658590838313103,
				-0.0001311732194153592,
				-4.802307103091152e-06,
				0.9993305206298828
			],
			"scale":[
				0.9999999403953552,
				0.9999998807907104,
				0.9999998807907104
			],
			"translation":[
				7.450580596923828e-09,
				0.4003097712993622,
				-2.3283064365386963e-10
			]
		},
		{
			"children":[
				56
			],
			"name":"thigh_l",
			"rotation":[
				0.992484450340271,
				0,
				0,
				0.12237062305212021
			],
			"scale":[
				1,
				1,
				0.9999998211860657
			],
			"translation":[
				0.08900000154972076,
				0.027770841494202614,
				0.04602379724383354
			]
		},
		{
			"name":"ball_leaf_r",
			"rotation":[
				-1.4901159417490817e-08,
				-2.043089253334074e-08,
				-3.0444404944326845e-16,
				1
			],
			"translation":[
				-8.071681101284867e-09,
				0.07890003174543381,
				-2.2050139492080234e-10
			]
		},
		{
			"children":[
				58
			],
			"name":"ball_r",
			"rotation":[
				0.0001371279067825526,
				-0.9643067717552185,
				0.26478710770606995,
				0.0004994344199076295
			],
			"scale":[
				1,
				1.0000003576278687,
				0.9999998211860657
			],
			"translation":[
				-3.5306584322825074e-09,
				0.1733010858297348,
				-8.185452315956354e-09
			]
		},
		{
			"children":[
				59
			],
			"name":"foot_r",
			"rotation":[
				-0.5290717482566833,
				-0.0003280931559856981,
				0.00034345293533988297,
				0.8485770225524902
			],
			"scale":[
				1,
				1,
				0.9999999403953552
			],
			"translation":[
				7.682046998525038e-09,
				0.42947983741760254,
				1.3169483281672e-09
			]
		},
		{
			"children":[
				60
			],
			"name":"calf_r",
			"rotation":[
				0.03658590838313103,
				-0.0001311732194153592,
				-4.802307103091152e-06,
				0.9993305206298828
			],
			"scale":[
				0.9999999403953552,
				0.9999998807907104,
				0.9999998807907104
			],
			"translation":[
				-7.450580596923828e-09,
				0.4003097712993622,
				-2.3283064365386963e-10
			]
		},
		{
			"children":[
				61
			],
			"name":"thigh_r",
			"rotation":[
				0.992484450340271,
				0,
				0,
				0.12237062305212021
			],
			"scale":[
				1,
				1,
				0.9999998211860657
			],
			"translation":[
				-0.08900000154972076,
				0.027770841494202614,
				0.04602379724383354
			]
		},
		{
			"children":[
				52,
				57,
				62
			],
			"name":"pelvis",
			"rotation":[
				0.7904685139656067,
				0,
				0,
				0.6125027537345886
			],
			"scale":[
				1,
				0.9999999403953552,
				0.9999999403953552
			],
			"translation":[
				0,
				0.05010002851486206,
				0.916700005531311
			]
		},
		{
			"children":[
				63
			],
			"name":"root",
			"rotation":[
				-0.7071067690849304,
				0,
				0,
				0.7071067690849304
			]
		},
		{
			"mesh":0,
			"name":"Mannequin",
			"skin":0
		},
		{
			"children":[
				65,
				64
			],
			"extras":{
				"rig_ui":{
					"name":"rig_ui.py",
					"type":"Text"
				},
				"wiggle_enable":0
			},
			"name":"Armature"
		},
		{
			"name":"WGT-rig_spine_fk",
			"rotation":[
				0.7904685139656067,
				0,
				0,
				0.6125026941299438
			],
			"scale":[
				0.1381763368844986,
				0.13817636668682098,
				0.13817636668682098
			],
			"translation":[
				0,
				1.0505000352859497,
				-0.015600009821355343
			]
		},
		{
			"name":"WGT-rig_spine_fk.001",
			"rotation":[
				0.7491816878318787,
				0,
				0,
				0.6623645424842834
			],
			"scale":[
				0.12403479963541031,
				0.12403479218482971,
				0.12403479218482971
			],
			"translation":[
				0,
				1.1735999584197998,
				-0.0004000142216682434
			]
		},
		{
			"name":"WGT-rig_spine_fk.002",
			"rotation":[
				0.6957536339759827,
				0,
				0,
				0.7182804942131042
			],
			"scale":[
				0.14127175509929657,
				0.14127175509929657,
				0.14127175509929657
			],
			"translation":[
				0,
				1.1735999584197998,
				-0.0004000142216682434
			]
		},
		{
			"name":"WGT-rig_spine_fk.003",
			"rotation":[
				0.6955606937408447,
				0,
				0,
				0.7184673547744751
			],
			"scale":[
				0.17289066314697266,
				0.17289064824581146,
				0.17289064824581146
			],
			"translation":[
				0,
				1.3148000240325928,
				-0.004900019615888596
			]
		},
		{
			"name":"WGT-rig_tweak_spine",
			"rotation":[
				0.7904685139656067,
				0,
				0,
				0.6125026941299438
			],
			"scale":[
				0.0690881684422493,
				0.06908818334341049,
				0.06908818334341049
			],
			"translation":[
				0,
				0.916700005531311,
				-0.050100017338991165
			]
		},
		{
			"name":"WGT-rig_tweak_spine.001",
			"rotation":[
				0.7491816282272339,
				0,
				0,
				0.6623646020889282
			],
			"scale":[
				0.06201745942234993,
				0.06201746314764023,
				0.06201746314764023
			],
			"translation":[
				0,
				1.0505000352859497,
				-0.015600013546645641
			]
		},
		{
			"name":"WGT-rig_tweak_spine.002",
			"rotation":[
				0.6957536339759827,
				0,
				0,
				0.7182804942131042
			],
			"scale":[
				0.07063587754964828,
				0.07063587754964828,
				0.07063587009906769
			],
			"translation":[
				0,
				1.1735999584197998,
				-0.00040001649176701903
			]
		},
		{
			"name":"WGT-rig_tweak_spine.003",
			"rotation":[
				0.6955606937408447,
				0,
				0,
				0.7184673547744751
			],
			"scale":[
				0.0864453911781311,
				0.0864453837275505,
				0.0864453837275505
			],
			"translation":[
				0,
				1.3148000240325928,
				-0.00490001542493701
			]
		},
		{
			"name":"WGT-rig_tweak_spine.004",
			"rotation":[
				0.7710034251213074,
				0,
				0,
				0.6368309855461121
			],
			"scale":[
				0.04129336401820183,
				0.041293367743492126,
				0.04129336401820183
			],
			"translation":[
				0,
				1.4875999689102173,
				-0.010500025004148483
			]
		},
		{
			"name":"WGT-rig_torso",
			"scale":[
				0.34582412242889404,
				0.34582412242889404,
				0.34582412242889404
			],
			"translation":[
				0,
				0.9836000204086304,
				-0.0328499972820282
			]
		},
		{
			"name":"WGT-rig_hips",
			"rotation":[
				0.7904685139656067,
				0,
				0,
				0.6125026941299438
			],
			"scale":[
				0.14409339427947998,
				0.14409339427947998,
				0.14409339427947998
			],
			"translation":[
				0,
				0.916700005531311,
				-0.050100017338991165
			]
		},
		{
			"name":"WGT-rig_chest",
			"rotation":[
				0.6955606937408447,
				0,
				0,
				0.7184673547744751
			],
			"scale":[
				0.19212451577186584,
				0.19212450087070465,
				0.19212450087070465
			],
			"translation":[
				0,
				1.3148000240325928,
				-0.00490001542493701
			]
		},
		{
			"name":"WGT-rig_shoulder.L",
			"rotation":[
				-0.00025147193809971213,
				-0.49632999300956726,
				-0.00017363697406835854,
				0.8681339025497437
			],
			"scale":[
				0.16419848799705505,
				0.16419848799705505,
				0.16419848799705505
			],
			"translation":[
				0.018799999728798866,
				1.457900047302246,
				0.071399986743927
			]
		},
		{
			"name":"WGT-rig_upper_arm_parent.L",
			"rotation":[
				0.4946992099285126,
				-0.49467888474464417,
				-0.505265474319458,
				0.505244791507721
			],
			"scale":[
				0.06861009448766708,
				0.06861007958650589,
				0.06861009448766708
			],
			"translation":[
				0.19190001487731934,
				1.4407999515533447,
				-0.06540002673864365
			]
		},
		{
			"name":"WGT-rig_upper_arm_fk.L",
			"rotation":[
				0.49561959505081177,
				-0.49559926986694336,
				-0.5043627619743347,
				0.5043420791625977
			],
			"scale":[
				0.274440199136734,
				0.2744402289390564,
				0.2744401693344116
			],
			"translation":[
				0.19189998507499695,
				1.4407999515533447,
				-0.06540003418922424
			]
		},
		{
			"name":"WGT-rig_forearm_fk.L",
			"rotation":[
				0.5042914748191833,
				-0.5042912364006042,
				-0.49567151069641113,
				0.49567165970802307
			],
			"scale":[
				0.27264055609703064,
				0.27264052629470825,
				0.27264049649238586
			],
			"translation":[
				0.46629995107650757,
				1.4407999515533447,
				-0.07010003924369812
			]
		},
		{
			"name":"WGT-rig_hand_fk.L",
			"rotation":[
				0.5000001192092896,
				-0.4999997615814209,
				-0.49999988079071045,
				0.5000002384185791
			],
			"scale":[
				0.10930005460977554,
				0.10930005460977554,
				0.10930003970861435
			],
			"translation":[
				0.7388999462127686,
				1.4407999515533447,
				-0.06540003418922424
			]
		},
		{
			"name":"WGT-rig_upper_arm_ik.L",
			"rotation":[
				0.4957945942878723,
				-0.49577417969703674,
				-0.5041907429695129,
				0.5041701197624207
			],
			"scale":[
				0.2744402587413788,
				0.2744402587413788,
				0.27444028854370117
			],
			"translation":[
				0.19189998507499695,
				1.4407999515533447,
				-0.06540003418922424
			]
		},
		{
			"name":"WGT-rig_upper_arm_ik_target.L",
			"rotation":[
				0,
				-1,
				0,
				4.371139183945161e-08
			],
			"scale":[
				0.06837499141693115,
				0.06837499141693115,
				0.06837499141693115
			],
			"translation":[
				0.46630001068115234,
				1.4407999515533447,
				-0.6171000003814697
			]
		},
		{
			"name":"WGT-rig_hand_ik.L",
			"rotation":[
				0.5000001788139343,
				-0.4999997913837433,
				-0.49999988079071045,
				0.5000001788139343
			],
			"scale":[
				0.10930000245571136,
				0.10930000990629196,
				0.10929999500513077
			],
			"translation":[
				0.7389000058174133,
				1.4407999515533447,
				-0.06539999693632126
			]
		},
		{
			"name":"WGT-rig_VIS_upper_arm_ik_pole.L",
			"rotation":[
				0.5,
				0.5,
				-0.5000000596046448,
				0.4999999403953552
			],
			"scale":[
				0.546999990940094,
				0.546999990940094,
				0.5469999313354492
			],
			"translation":[
				0.46630001068115234,
				1.4407999515533447,
				-0.07010000944137573
			]
		},
		{
			"name":"WGT-rig_upper_arm_tweak.L",
			"rotation":[
				0.49525243043899536,
				-0.4952319860458374,
				-0.504723310470581,
				0.5047025680541992
			],
			"scale":[
				0.06861007958650589,
				0.06861007213592529,
				0.06861007958650589
			],
			"translation":[
				0.19189997017383575,
				1.4407999515533447,
				-0.06540004909038544
			]
		},
		{
			"name":"WGT-rig_upper_arm_tweak.L.001",
			"rotation":[
				0.4954327940940857,
				-0.4954124093055725,
				-0.5045462250709534,
				0.5045256018638611
			],
			"scale":[
				0.0686100646853447,
				0.0686100572347641,
				0.06861007213592529
			],
			"translation":[
				0.32910001277923584,
				1.4407999515533447,
				-0.06775004416704178
			]
		},
		{
			"name":"WGT-rig_forearm_tweak.L",
			"rotation":[
				0.5042915344238281,
				-0.5042912364006042,
				-0.49567145109176636,
				0.4956716299057007
			],
			"scale":[
				0.06816011667251587,
				0.06816009432077408,
				0.06816012412309647
			],
			"translation":[
				0.4663000702857971,
				1.4407999515533447,
				-0.07010004669427872
			]
		},
		{
			"name":"WGT-rig_forearm_tweak.L.001",
			"rotation":[
				0.5042915344238281,
				-0.5042912364006042,
				-0.49567145109176636,
				0.4956716299057007
			],
			"scale":[
				0.06815880537033081,
				0.06815878301858902,
				0.06815881282091141
			],
			"translation":[
				0.60260009765625,
				1.4407999515533447,
				-0.06775004416704178
			]
		},
		{
			"name":"WGT-rig_hand_tweak.L",
			"rotation":[
				0.5000001192092896,
				-0.4999997615814209,
				-0.49999988079071045,
				0.5000002384185791
			],
			"scale":[
				0.027324974536895752,
				0.027324968948960304,
				0.02732497826218605
			],
			"translation":[
				0.7389001250267029,
				1.4407999515533447,
				-0.06540004163980484
			]
		},
		{
			"name":"WGT-rig_f_index.01.L",
			"rotation":[
				-0.7071068286895752,
				-2.5418742097826907e-06,
				0.7071068286895752,
				2.6225181954941945e-06
			],
			"scale":[
				0.04070000723004341,
				0.04070001840591431,
				0.04070001840591431
			],
			"translation":[
				0.8588000535964966,
				1.4387999773025513,
				-0.03450002893805504
			]
		},
		{
			"name":"WGT-rig_f_index.02.L",
			"rotation":[
				-0.7071068286895752,
				-2.4575801944592968e-06,
				0.7071068286895752,
				2.5382246349181514e-06
			],
			"scale":[
				0.03479998558759689,
				0.03479999303817749,
				0.03479999303817749
			],
			"translation":[
				0.8995000720024109,
				1.4387999773025513,
				-0.03450002893805504
			]
		},
		{
			"name":"WGT-rig_f_index.03.L",
			"rotation":[
				-0.7071068286895752,
				-2.4575806492066476e-06,
				0.7071068286895752,
				2.5382241801708005e-06
			],
			"scale":[
				0.030099980533123016,
				0.030099987983703613,
				0.030099986121058464
			],
			"translation":[
				0.9343000650405884,
				1.4387999773025513,
				-0.03450002893805504
			]
		},
		{
			"name":"WGT-rig_f_index.01.L.001",
			"rotation":[
				0.7071068286895752,
				2.5418726181669626e-06,
				0.7071068286895752,
				2.6225197871099226e-06
			],
			"scale":[
				0.015049990266561508,
				0.015049993991851807,
				0.015049993060529232
			],
			"translation":[
				0.964400053024292,
				1.4387999773025513,
				-0.03450002893805504
			]
		},
		{
			"name":"WGT-rig_f_index.01_master.L",
			"rotation":[
				-0.7071068286895752,
				-2.5418742097826907e-06,
				0.7071068286895752,
				2.62251842286787e-06
			],
			"scale":[
				0.17269982397556305,
				0.17269986867904663,
				0.17269986867904663
			],
			"translation":[
				0.8588000535964966,
				1.4387999773025513,
				-0.03450002893805504
			]
		},
		{
			"name":"WGT-rig_f_middle.01.L",
			"rotation":[
				-0.6902070641517639,
				-2.562048621257418e-06,
				0.7236119508743286,
				2.602821268737898e-06
			],
			"scale":[
				0.04234728962182999,
				0.042347297072410583,
				0.04234730079770088
			],
			"translation":[
				0.8605000376701355,
				1.4412000179290771,
				-0.060200028121471405
			]
		},
		{
			"name":"WGT-rig_f_middle.02.L",
			"rotation":[
				-0.6913015246391296,
				-2.48426749749342e-06,
				0.7225664258003235,
				2.5121416911133565e-06
			],
			"scale":[
				0.033933125436306,
				0.0339331291615963,
				0.0339331328868866
			],
			"translation":[
				0.9028000831604004,
				1.4412000179290771,
				-0.06220002844929695
			]
		},
		{
			"name":"WGT-rig_f_middle.03.L",
			"rotation":[
				-0.6904847621917725,
				-2.4814278276608093e-06,
				0.7233469486236572,
				2.514947027520975e-06
			],
			"scale":[
				0.034437164664268494,
				0.03443717211484909,
				0.03443717584013939
			],
			"translation":[
				0.9367000460624695,
				1.4412000179290771,
				-0.06370002776384354
			]
		},
		{
			"name":"WGT-rig_f_middle.01.L.001",
			"rotation":[
				0.7233469486236572,
				2.7140474685438676e-06,
				0.6904847621917725,
				2.486373432475375e-06
			],
			"scale":[
				0.017218582332134247,
				0.017218587920069695,
				0.017218589782714844
			],
			"translation":[
				0.9711000323295593,
				1.4412000179290771,
				-0.06530003249645233
			]
		},
		{
			"name":"WGT-rig_f_middle.01_master.L",
			"rotation":[
				-0.6902070641517639,
				-2.564693204476498e-06,
				0.7236119508743286,
				2.6002990125562064e-06
			],
			"scale":[
				0.18074411153793335,
				0.18074415624141693,
				0.18074418604373932
			],
			"translation":[
				0.8605000376701355,
				1.4412000179290771,
				-0.060200028121471405
			]
		},
		{
			"name":"WGT-rig_f_pinky.01.L",
			"rotation":[
				-0.6830031871795654,
				-2.5361389361933107e-06,
				0.730415403842926,
				2.62807407125365e-06
			],
			"scale":[
				0.040290556848049164,
				0.04029056429862976,
				0.04029057174921036
			],
			"translation":[
				0.8466000556945801,
				1.4392000436782837,
				-0.10620003193616867
			]
		},
		{
			"name":"WGT-rig_f_pinky.02.L",
			"rotation":[
				-0.6823936104774475,
				-2.4527075765945483e-06,
				0.7309849262237549,
				2.5429462766624056e-06
			],
			"scale":[
				0.027665305882692337,
				0.027665311470627785,
				0.027665315195918083
			],
			"translation":[
				0.8868000507354736,
				1.4392000436782837,
				-0.1089000329375267
			]
		},
		{
			"name":"WGT-rig_f_pinky.03.L",
			"rotation":[
				-0.682839035987854,
				-2.4542559913243167e-06,
				0.7305688858032227,
				2.5414515221200418e-06
			],
			"scale":[
				0.028164168819785118,
				0.028164174407720566,
				0.028164178133010864
			],
			"translation":[
				0.914400041103363,
				1.4392000436782837,
				-0.11080002784729004
			]
		},
		{
			"name":"WGT-rig_f_pinky.01.L.001",
			"rotation":[
				0.7305688858032227,
				2.7409091671870556e-06,
				0.682839035987854,
				2.458498101987061e-06
			],
			"scale":[
				0.014082084409892559,
				0.014082086272537708,
				0.014082086272537708
			],
			"translation":[
				0.9425000548362732,
				1.4392000436782837,
				-0.11270003020763397
			]
		},
		{
			"name":"WGT-rig_f_pinky.01_master.L",
			"rotation":[
				-0.6830032467842102,
				-2.5362162432429614e-06,
				0.730415403842926,
				2.628001766424859e-06
			],
			"scale":[
				0.16044051945209503,
				0.16044054925441742,
				0.1604405790567398
			],
			"translation":[
				0.8466000556945801,
				1.4392000436782837,
				-0.10620003193616867
			]
		},
		{
			"name":"WGT-rig_f_ring.01.L",
			"rotation":[
				-0.6944059729576111,
				-2.578037538114586e-06,
				0.7195834517478943,
				2.5870135687000584e-06
			],
			"scale":[
				0.03932494670152664,
				0.03932495415210724,
				0.03932495787739754
			],
			"translation":[
				0.8580000400543213,
				1.4408999681472778,
				-0.08250003308057785
			]
		},
		{
			"name":"WGT-rig_f_ring.02.L",
			"rotation":[
				-0.6944147944450378,
				-2.495847866157419e-06,
				0.7195749282836914,
				2.5006620489875786e-06
			],
			"scale":[
				0.030919570475816727,
				0.030919576063752174,
				0.030919576063752174
			],
			"translation":[
				0.8973000645637512,
				1.4408999681472778,
				-0.08390002697706223
			]
		},
		{
			"name":"WGT-rig_f_ring.03.L",
			"rotation":[
				-0.6936464905738831,
				-2.49317577072361e-06,
				0.7203156352043152,
				2.503326186342747e-06
			],
			"scale":[
				0.03182259574532509,
				0.031822603195905685,
				0.031822603195905685
			],
			"translation":[
				0.9282000660896301,
				1.4408999681472778,
				-0.08500003069639206
			]
		},
		{
			"name":"WGT-rig_f_ring.01.L.001",
			"rotation":[
				0.7203157544136047,
				2.7041708108299645e-06,
				0.6936463713645935,
				2.4992384624056285e-06
			],
			"scale":[
				0.015911271795630455,
				0.015911273658275604,
				0.015911275520920753
			],
			"translation":[
				0.9600000381469727,
				1.4408999681472778,
				-0.08620002865791321
			]
		},
		{
			"name":"WGT-rig_f_ring.01_master.L",
			"rotation":[
				-0.6944060325622559,
				-2.578037538114586e-06,
				0.7195834517478943,
				2.5870135687000584e-06
			],
			"scale":[
				0.16690869629383087,
				0.16690874099731445,
				0.16690874099731445
			],
			"translation":[
				0.8580000400543213,
				1.4408999681472778,
				-0.08250003308057785
			]
		},
		{
			"name":"WGT-rig_thumb.01.L",
			"rotation":[
				-0.7251165509223938,
				-0.42411932349205017,
				0.2742622196674347,
				0.46809083223342896
			],
			"scale":[
				0.04302987828850746,
				0.043029870837926865,
				0.04302985966205597
			],
			"translation":[
				0.766200065612793,
				1.4179999828338623,
				-0.031800031661987305
			]
		},
		{
			"name":"WGT-rig_thumb.02.L",
			"rotation":[
				-0.7252246737480164,
				-0.42408037185668945,
				0.2742046117782593,
				0.4679923355579376
			],
			"scale":[
				0.04907801002264023,
				0.04907799884676933,
				0.04907798767089844
			],
			"translation":[
				0.8004000782966614,
				1.398800015449524,
				-0.014100035652518272
			]
		},
		{
			"name":"WGT-rig_thumb.03.L",
			"rotation":[
				-0.7249274253845215,
				-0.42432162165641785,
				0.2746601104736328,
				0.46796727180480957
			],
			"scale":[
				0.040862321853637695,
				0.0408623181283474,
				0.0408623032271862
			],
			"translation":[
				0.839400053024292,
				1.3768999576568604,
				0.0060999635607004166
			]
		},
		{
			"name":"WGT-rig_thumb.01.L.001",
			"rotation":[
				0.46829235553741455,
				0.27410539984703064,
				0.42518025636672974,
				0.7244241237640381
			],
			"scale":[
				0.0204311590641737,
				0.02043115720152855,
				0.020431149750947952
			],
			"translation":[
				0.8719000816345215,
				1.3587000370025635,
				0.022899970412254333
			]
		},
		{
			"name":"WGT-rig_thumb.01_master.L",
			"rotation":[
				-0.7251166701316833,
				-0.424119234085083,
				0.27426227927207947,
				0.46809089183807373
			],
			"scale":[
				0.20924249291419983,
				0.20924243330955505,
				0.2092423141002655
			],
			"translation":[
				0.766200065612793,
				1.4179999828338623,
				-0.031800031661987305
			]
		},
		{
			"name":"WGT-rig_shoulder.R",
			"rotation":[
				0.8681339025497437,
				0.00017365854000672698,
				-0.49632999300956726,
				0.0002515096275601536
			],
			"scale":[
				-0.16419848799705505,
				-0.16419848799705505,
				-0.16419848799705505
			],
			"translation":[
				-0.018799999728798866,
				1.457900047302246,
				0.071399986743927
			]
		},
		{
			"name":"WGT-rig_upper_arm_parent.R",
			"rotation":[
				-0.5047098398208618,
				-0.5047306418418884,
				0.49522456526756287,
				0.49524495005607605
			],
			"scale":[
				-0.06861009448766708,
				-0.06861007958650589,
				-0.06861009448766708
			],
			"translation":[
				-0.19190001487731934,
				1.4407999515533447,
				-0.06540002673864365
			]
		},
		{
			"name":"WGT-rig_upper_arm_fk.R",
			"rotation":[
				-0.5047001838684082,
				-0.5047208070755005,
				0.49523454904556274,
				0.49525490403175354
			],
			"scale":[
				-0.274440199136734,
				-0.2744402289390564,
				-0.2744401693344116
			],
			"translation":[
				-0.19189998507499695,
				1.4407999515533447,
				-0.06540003418922424
			]
		},
		{
			"name":"WGT-rig_forearm_fk.R",
			"rotation":[
				-0.49567171931266785,
				-0.49567151069641113,
				0.5042911767959595,
				0.5042914748191833
			],
			"scale":[
				-0.27264055609703064,
				-0.27264052629470825,
				-0.27264049649238586
			],
			"translation":[
				-0.46629995107650757,
				1.4407999515533447,
				-0.07010003924369812
			]
		},
		{
			"name":"WGT-rig_hand_fk.R",
			"rotation":[
				-0.5000002384185791,
				-0.4999997615814209,
				0.4999998211860657,
				0.5000002384185791
			],
			"scale":[
				-0.10930005460977554,
				-0.10930005460977554,
				-0.10930003970861435
			],
			"translation":[
				-0.7388999462127686,
				1.4407999515533447,
				-0.06540003418922424
			]
		},
		{
			"name":"WGT-rig_upper_arm_ik.R",
			"rotation":[
				-0.504526674747467,
				-0.5045474767684937,
				0.4954111874103546,
				0.49543172121047974
			],
			"scale":[
				-0.2744402587413788,
				-0.27444028854370117,
				-0.27444028854370117
			],
			"translation":[
				-0.19189998507499695,
				1.4407999515533447,
				-0.06540003418922424
			]
		},
		{
			"name":"WGT-rig_upper_arm_ik_target.R",
			"rotation":[
				0,
				0,
				1,
				4.371139183945161e-08
			],
			"scale":[
				-0.06837499141693115,
				-0.06837499141693115,
				-0.06837499141693115
			],
			"translation":[
				-0.46630001068115234,
				1.4407999515533447,
				-0.6171000003814697
			]
		},
		{
			"name":"WGT-rig_hand_ik.R",
			"rotation":[
				-0.5000002384185791,
				-0.4999997615814209,
				0.4999997317790985,
				0.5000002384185791
			],
			"scale":[
				-0.10930000245571136,
				-0.10930000990629196,
				-0.10929999500513077
			],
			"translation":[
				-0.7389000058174133,
				1.4407999515533447,
				-0.06539999693632126
			]
		},
		{
			"name":"WGT-rig_VIS_upper_arm_ik_pole.R",
			"rotation":[
				-0.4999999403953552,
				-0.5000000596046448,
				-0.5000000596046448,
				0.4999999403953552
			],
			"scale":[
				-0.546999990940094,
				-0.546999990940094,
				-0.5469999313354492
			],
			"translation":[
				-0.46630001068115234,
				1.4407999515533447,
				-0.07010000944137573
			]
		},
		{
			"name":"WGT-rig_upper_arm_tweak.R",
			"rotation":[
				-0.5050616264343262,
				-0.505082368850708,
				0.4948658049106598,
				0.49488627910614014
			],
			"scale":[
				-0.06861007958650589,
				-0.06861007213592529,
				-0.06861007958650589
			],
			"translation":[
				-0.19189997017383575,
				1.4407999515533447,
				-0.06540004909038544
			]
		},
		{
			"name":"WGT-rig_upper_arm_tweak.R.001",
			"rotation":[
				-0.5043476223945618,
				-0.5043684244155884,
				0.49559351801872253,
				0.49561384320259094
			],
			"scale":[
				-0.06861009448766708,
				-0.06861007213592529,
				-0.06861010193824768
			],
			"translation":[
				-0.32910001277923584,
				1.4407999515533447,
				-0.06775004416704178
			]
		},
		{
			"name":"WGT-rig_forearm_tweak.R",
			"rotation":[
				-0.495671808719635,
				-0.4956715703010559,
				0.5042911171913147,
				0.5042914152145386
			],
			"scale":[
				-0.06816011667251587,
				-0.06816009432077408,
				-0.06816012412309647
			],
			"translation":[
				-0.4663000702857971,
				1.4407999515533447,
				-0.07010004669427872
			]
		},
		{
			"name":"WGT-rig_forearm_tweak.R.001",
			"rotation":[
				-0.495671808719635,
				-0.4956715703010559,
				0.5042911171913147,
				0.5042914152145386
			],
			"scale":[
				-0.06815880537033081,
				-0.06815878301858902,
				-0.06815881282091141
			],
			"translation":[
				-0.60260009765625,
				1.4407999515533447,
				-0.06775004416704178
			]
		},
		{
			"name":"WGT-rig_hand_tweak.R",
			"rotation":[
				-0.5000001788139343,
				-0.4999998211860657,
				0.49999988079071045,
				0.5000001788139343
			],
			"scale":[
				-0.027324974536895752,
				-0.027324968948960304,
				-0.02732497826218605
			],
			"translation":[
				-0.7389001250267029,
				1.4407999515533447,
				-0.06540004163980484
			]
		},
		{
			"name":"WGT-rig_f_index.01.R",
			"rotation":[
				2.637538273120299e-06,
				-0.7071067094802856,
				-2.5639715204306412e-06,
				0.7071068286895752
			],
			"scale":[
				-0.04070000723004341,
				-0.04070001840591431,
				-0.04070001840591431
			],
			"translation":[
				-0.8588000535964966,
				1.4387999773025513,
				-0.03450003266334534
			]
		},
		{
			"name":"WGT-rig_f_index.02.R",
			"rotation":[
				2.559719632699853e-06,
				-0.7071067094802856,
				-2.486152425262844e-06,
				0.7071068286895752
			],
			"scale":[
				-0.03479998558759689,
				-0.03479999303817749,
				-0.03479999303817749
			],
			"translation":[
				-0.8995000720024109,
				1.4387999773025513,
				-0.03450003266334534
			]
		},
		{
			"name":"WGT-rig_f_index.03.R",
			"rotation":[
				2.5597189505788265e-06,
				-0.7071067094802856,
				-2.486152880010195e-06,
				0.7071068286895752
			],
			"scale":[
				-0.030099980533123016,
				-0.030099987983703613,
				-0.030099986121058464
			],
			"translation":[
				-0.9343000650405884,
				1.4387999773025513,
				-0.03450003266334534
			]
		},
		{
			"name":"WGT-rig_f_index.01.R.001",
			"rotation":[
				-2.6332872948842123e-06,
				0.7071067094802856,
				-2.5597180410841247e-06,
				0.7071068286895752
			],
			"scale":[
				-0.015049990266561508,
				-0.015049993991851807,
				-0.015049993060529232
			],
			"translation":[
				-0.964400053024292,
				1.4387999773025513,
				-0.03450003266334534
			]
		},
		{
			"name":"WGT-rig_f_index.01_master.R",
			"rotation":[
				2.6375380457466235e-06,
				-0.7071067094802856,
				-2.5639715204306412e-06,
				0.7071068286895752
			],
			"scale":[
				-0.17269982397556305,
				-0.17269986867904663,
				-0.17269986867904663
			],
			"translation":[
				-0.8588000535964966,
				1.4387999773025513,
				-0.03450003266334534
			]
		},
		{
			"name":"WGT-rig_f_middle.01.R",
			"rotation":[
				2.6155908017244656e-06,
				-0.7236119508743286,
				-2.574471182015259e-06,
				0.6902070641517639
			],
			"scale":[
				-0.04234728962182999,
				-0.042347297072410583,
				-0.04234730079770088
			],
			"translation":[
				-0.8605000376701355,
				1.4412000179290771,
				-0.060200028121471405
			]
		},
		{
			"name":"WGT-rig_f_middle.02.R",
			"rotation":[
				2.532591679482721e-06,
				-0.7225664258003235,
				-2.5028264190041227e-06,
				0.6913015246391296
			],
			"scale":[
				-0.033933125436306,
				-0.0339331291615963,
				-0.0339331328868866
			],
			"translation":[
				-0.9028000831604004,
				1.4412000179290771,
				-0.06220002844929695
			]
		},
		{
			"name":"WGT-rig_f_middle.03.R",
			"rotation":[
				2.535352678023628e-06,
				-0.7233469486236572,
				-2.4998939807119314e-06,
				0.6904847621917725
			],
			"scale":[
				-0.034437164664268494,
				-0.03443717211484909,
				-0.03443717584013939
			],
			"translation":[
				-0.9367000460624695,
				1.4412000179290771,
				-0.06370002776384354
			]
		},
		{
			"name":"WGT-rig_f_middle.01.R.001",
			"rotation":[
				-2.499261199773173e-06,
				0.6904847621917725,
				-2.7005194169760216e-06,
				0.7233469486236572
			],
			"scale":[
				-0.017218582332134247,
				-0.017218587920069695,
				-0.017218589782714844
			],
			"translation":[
				-0.9711000323295593,
				1.4412000179290771,
				-0.06530003249645233
			]
		},
		{
			"name":"WGT-rig_f_middle.01_master.R",
			"rotation":[
				2.613014885355369e-06,
				-0.7236119508743286,
				-2.5745509901753394e-06,
				0.6902070641517639
			],
			"scale":[
				-0.18074409663677216,
				-0.18074415624141693,
				-0.18074417114257812
			],
			"translation":[
				-0.8605000376701355,
				1.4412000179290771,
				-0.060200028121471405
			]
		},
		{
			"name":"WGT-rig_f_pinky.01.R",
			"rotation":[
				2.642239223860088e-06,
				-0.730415403842926,
				-2.5476863356743706e-06,
				0.6830031871795654
			],
			"scale":[
				-0.040290556848049164,
				-0.04029056429862976,
				-0.04029057174921036
			],
			"translation":[
				-0.8466000556945801,
				1.4392000436782837,
				-0.10620003193616867
			]
		},
		{
			"name":"WGT-rig_f_pinky.02.R",
			"rotation":[
				2.5637141334300395e-06,
				-0.7309849262237549,
				-2.4707612737984164e-06,
				0.6823936104774475
			],
			"scale":[
				-0.027665305882692337,
				-0.027665311470627785,
				-0.027665315195918083
			],
			"translation":[
				-0.8868000507354736,
				1.4392000436782837,
				-0.1089000329375267
			]
		},
		{
			"name":"WGT-rig_f_pinky.03.R",
			"rotation":[
				2.5622434804972727e-06,
				-0.7305688261985779,
				-2.472359483363107e-06,
				0.6828390955924988
			],
			"scale":[
				-0.028164168819785118,
				-0.028164174407720566,
				-0.028164178133010864
			],
			"translation":[
				-0.914400041103363,
				1.4392000436782837,
				-0.11080002784729004
			]
		},
		{
			"name":"WGT-rig_f_pinky.01.R.001",
			"rotation":[
				-2.4715534436836606e-06,
				0.6828391551971436,
				-2.7245846467849333e-06,
				0.7305687665939331
			],
			"scale":[
				-0.014082084409892559,
				-0.014082085341215134,
				-0.014082081615924835
			],
			"translation":[
				-0.9425000548362732,
				1.4392000436782837,
				-0.11270003020763397
			]
		},
		{
			"name":"WGT-rig_f_pinky.01_master.R",
			"rotation":[
				2.6422278551763156e-06,
				-0.730415403842926,
				-2.5476858809270198e-06,
				0.6830032467842102
			],
			"scale":[
				-0.16044051945209503,
				-0.16044054925441742,
				-0.1604405790567398
			],
			"translation":[
				-0.8466000556945801,
				1.4392000436782837,
				-0.10620003193616867
			]
		},
		{
			"name":"WGT-rig_f_ring.01.R",
			"rotation":[
				2.5991685106419027e-06,
				-0.7195834517478943,
				-2.590823896753136e-06,
				0.6944059729576111
			],
			"scale":[
				-0.03932494670152664,
				-0.03932495415210724,
				-0.03932495787739754
			],
			"translation":[
				-0.8580000400543213,
				1.4408999681472778,
				-0.08250003308057785
			]
		},
		{
			"name":"WGT-rig_f_ring.02.R",
			"rotation":[
				2.520740736144944e-06,
				-0.7195749282836914,
				-2.514053448976483e-06,
				0.6944147944450378
			],
			"scale":[
				-0.030919570475816727,
				-0.030919576063752174,
				-0.030919576063752174
			],
			"translation":[
				-0.8973000645637512,
				1.4408999681472778,
				-0.08390002697706223
			]
		},
		{
			"name":"WGT-rig_f_ring.03.R",
			"rotation":[
				2.5233637188648572e-06,
				-0.7203156352043152,
				-2.5112956336670322e-06,
				0.6936465501785278
			],
			"scale":[
				-0.03182259202003479,
				-0.031822603195905685,
				-0.031822603195905685
			],
			"translation":[
				-0.9282000660896301,
				1.4408999681472778,
				-0.08500003069639206
			]
		},
		{
			"name":"WGT-rig_f_ring.01.R.001",
			"rotation":[
				-2.510691274437704e-06,
				0.6936463713645935,
				-2.691665486054262e-06,
				0.7203157544136047
			],
			"scale":[
				-0.015911271795630455,
				-0.015911273658275604,
				-0.015911275520920753
			],
			"translation":[
				-0.9600000381469727,
				1.4408999681472778,
				-0.08620002865791321
			]
		},
		{
			"name":"WGT-rig_f_ring.01_master.R",
			"rotation":[
				2.5991694201366045e-06,
				-0.7195834517478943,
				-2.590823896753136e-06,
				0.6944060325622559
			],
			"scale":[
				-0.16690869629383087,
				-0.16690874099731445,
				-0.16690874099731445
			],
			"translation":[
				-0.8580000400543213,
				1.4408999681472778,
				-0.08250003308057785
			]
		},
		{
			"name":"WGT-rig_thumb.01.R",
			"rotation":[
				0.46809080243110657,
				-0.27426230907440186,
				-0.4241192936897278,
				0.7251165509223938
			],
			"scale":[
				-0.04302987828850746,
				-0.043029867112636566,
				-0.04302985593676567
			],
			"translation":[
				-0.766200065612793,
				1.4179999828338623,
				-0.031800031661987305
			]
		},
		{
			"name":"WGT-rig_thumb.02.R",
			"rotation":[
				0.46799248456954956,
				-0.27420467138290405,
				-0.42408043146133423,
				0.7252246737480164
			],
			"scale":[
				-0.04907801374793053,
				-0.049077995121479034,
				-0.04907798767089844
			],
			"translation":[
				-0.8004000782966614,
				1.398800015449524,
				-0.014100037515163422
			]
		},
		{
			"name":"WGT-rig_thumb.03.R",
			"rotation":[
				0.46796727180480957,
				-0.27465999126434326,
				-0.42432159185409546,
				0.7249273657798767
			],
			"scale":[
				-0.040862321853637695,
				-0.0408623181283474,
				-0.0408623032271862
			],
			"translation":[
				-0.839400053024292,
				1.3768999576568604,
				0.006099961698055267
			]
		},
		{
			"name":"WGT-rig_thumb.01.R.001",
			"rotation":[
				-0.7244241237640381,
				0.4251801073551178,
				-0.2741055190563202,
				0.46829235553741455
			],
			"scale":[
				-0.020431164652109146,
				-0.020431160926818848,
				-0.0204311553388834
			],
			"translation":[
				-0.8719000816345215,
				1.3587000370025635,
				0.022899966686964035
			]
		},
		{
			"name":"WGT-rig_thumb.01_master.R",
			"rotation":[
				0.46809059381484985,
				-0.2742622494697571,
				-0.424119234085083,
				0.7251167297363281
			],
			"scale":[
				-0.2092425674200058,
				-0.2092425525188446,
				-0.20924259722232819
			],
			"translation":[
				-0.766200065612793,
				1.4179999828338623,
				-0.031800031661987305
			]
		},
		{
			"name":"WGT-rig_neck",
			"rotation":[
				0.7710034251213074,
				0,
				0,
				0.6368309855461121
			],
			"scale":[
				0.08258672803640366,
				0.08258672803640366,
				0.08258672803640366
			],
			"translation":[
				0,
				1.4875999689102173,
				-0.010500023141503334
			]
		},
		{
			"name":"WGT-rig_head",
			"rotation":[
				0.7185114026069641,
				0,
				0,
				0.6955151557922363
			],
			"scale":[
				0.23372361063957214,
				0.23372365534305573,
				0.23372365534305573
			],
			"translation":[
				0,
				1.5686999559402466,
				0.005099957808852196
			]
		},
		{
			"name":"WGT-rig_thigh_parent.L",
			"rotation":[
				-0.7046293616294861,
				0,
				0,
				0.7095755934715271
			],
			"scale":[
				0.10007745772600174,
				0.10007771849632263,
				0.10007746517658234
			],
			"translation":[
				0.08900000154972076,
				0.9320999383926392,
				0.0013999701477587223
			]
		},
		{
			"name":"WGT-rig_thigh_fk.L",
			"rotation":[
				-0.7046294808387756,
				0,
				0,
				0.7095754742622375
			],
			"scale":[
				0.40030983090400696,
				0.40030983090400696,
				0.40030983090400696
			],
			"translation":[
				0.08900000154972076,
				0.9320999383926392,
				0.0013999794609844685
			]
		},
		{
			"name":"WGT-rig_shin_fk.L",
			"rotation":[
				-0.6781973242759705,
				8.902088302420452e-05,
				9.646111720940098e-05,
				0.7348798513412476
			],
			"scale":[
				0.4294799566268921,
				0.4294799566268921,
				0.4294799268245697
			],
			"translation":[
				0.08900000154972076,
				0.5317999124526978,
				-0.0014000262599438429
			]
		},
		{
			"name":"WGT-rig_foot_fk.L",
			"rotation":[
				-0.9643067717552185,
				0.0004994148039259017,
				0.00013713330554310232,
				0.26478707790374756
			],
			"scale":[
				0.17330104112625122,
				0.17330102622509003,
				0.17330104112625122
			],
			"translation":[
				0.08900000154972076,
				0.10369989275932312,
				-0.0358000323176384
			]
		},
		{
			"name":"WGT-rig_toe_fk.L",
			"rotation":[
				0,
				1,
				0,
				4.371138828673793e-08
			],
			"scale":[
				0.07890000939369202,
				0.07890000939369202,
				0.0789000391960144
			],
			"translation":[
				0.08900000154972076,
				0.015199893154203892,
				0.11319997906684875
			]
		},
		{
			"name":"WGT-rig_thigh_ik.L",
			"rotation":[
				-0.7046294808387756,
				0,
				0,
				0.7095754742622375
			],
			"scale":[
				0.40030983090400696,
				0.40030983090400696,
				0.40030983090400696
			],
			"translation":[
				0.08900000154972076,
				0.9320999383926392,
				0.0013999762013554573
			]
		},
		{
			"name":"WGT-rig_thigh_ik_target.L",
			"rotation":[
				0.0224362351000309,
				0,
				0,
				0.9997483491897583
			],
			"scale":[
				0.10365437716245651,
				0.10365437716245651,
				0.10365437716245651
			],
			"translation":[
				0.08900000154972076,
				0.4945995509624481,
				0.8269999623298645
			]
		},
		{
			"name":"WGT-rig_foot_ik.L",
			"scale":[
				0.17330104112625122,
				0.17330104112625122,
				0.17330104112625122
			],
			"translation":[
				0.08900000154972076,
				0.10369999706745148,
				-0.03579999879002571
			]
		},
		{
			"name":"WGT-rig_VIS_thigh_ik_pole.L",
			"rotation":[
				0.7071067094802856,
				-9.281560778617859e-05,
				9.281560051022097e-05,
				0.70710688829422
			],
			"scale":[
				0.8292346000671387,
				0.8292346000671387,
				0.8292346000671387
			],
			"translation":[
				0.08900000154972076,
				0.5317999720573425,
				-0.001399993896484375
			]
		},
		{
			"name":"WGT-rig_thigh_tweak.L",
			"rotation":[
				-0.7046293616294861,
				0,
				0,
				0.7095755934715271
			],
			"scale":[
				0.10007745772600174,
				0.10007771849632263,
				0.10007746517658234
			],
			"translation":[
				0.08900000154972076,
				0.9320999383926392,
				0.0013999781804159284
			]
		},
		{
			"name":"WGT-rig_thigh_tweak.L.001",
			"rotation":[
				-0.7046293616294861,
				0,
				0,
				0.7095755934715271
			],
			"scale":[
				0.10007745772600174,
				0.10007771849632263,
				0.10007746517658234
			],
			"translation":[
				0.08900000154972076,
				0.7319499254226685,
				0
			]
		},
		{
			"name":"WGT-rig_shin_tweak.L",
			"rotation":[
				-0.6781972646713257,
				8.902137051336467e-05,
				9.646119724493474e-05,
				0.7348799109458923
			],
			"scale":[
				0.10736996680498123,
				0.10737024992704391,
				0.10736996680498123
			],
			"translation":[
				0.08900000154972076,
				0.5317999124526978,
				-0.001400031498633325
			]
		},
		{
			"name":"WGT-rig_shin_tweak.L.001",
			"rotation":[
				-0.6781972646713257,
				8.902169793145731e-05,
				9.646154649090022e-05,
				0.7348799109458923
			],
			"scale":[
				0.10736996680498123,
				0.10737024992704391,
				0.10736995935440063
			],
			"translation":[
				0.08900000154972076,
				0.31774988770484924,
				-0.01860002987086773
			]
		},
		{
			"name":"WGT-rig_foot_tweak.L",
			"rotation":[
				-0.9643067121505737,
				0.0004994149785488844,
				0.00013713388761971146,
				0.26478761434555054
			],
			"scale":[
				0.04332515969872475,
				0.04332517459988594,
				0.04332524910569191
			],
			"translation":[
				0.08900000154972076,
				0.10369988530874252,
				-0.0358000285923481
			]
		},
		{
			"name":"WGT-rig_foot_spin_ik.L",
			"scale":[
				0.08665049821138382,
				0.08665049821138382,
				0.08665049076080322
			],
			"translation":[
				0.08900000154972076,
				0.015200003981590271,
				0.11319999396800995
			]
		},
		{
			"name":"WGT-rig_foot_heel_ik.L",
			"scale":[
				0.08665052056312561,
				0.08665052056312561,
				0.08665051311254501
			],
			"translation":[
				0.08900000154972076,
				0.10369999706745148,
				-0.03579999506473541
			]
		},
		{
			"name":"WGT-rig_toe_ik.L",
			"rotation":[
				0,
				-1,
				0,
				4.371139183945161e-08
			],
			"scale":[
				0.07889999449253082,
				0.07890003174543381,
				0.07889999449253082
			],
			"translation":[
				0.08900000154972076,
				0.015200004912912846,
				0.11320000886917114
			]
		},
		{
			"name":"WGT-rig_thigh_parent.R",
			"rotation":[
				0.7095755934715271,
				0,
				0,
				0.7046293616294861
			],
			"scale":[
				-0.10007745772600174,
				-0.10007771849632263,
				-0.10007746517658234
			],
			"translation":[
				-0.08900000154972076,
				0.9320999383926392,
				0.0013999701477587223
			]
		},
		{
			"name":"WGT-rig_thigh_fk.R",
			"rotation":[
				0.7095754742622375,
				0,
				0,
				0.7046295404434204
			],
			"scale":[
				-0.40030983090400696,
				-0.40030983090400696,
				-0.40030983090400696
			],
			"translation":[
				-0.08900000154972076,
				0.9320999383926392,
				0.0013999794609844685
			]
		},
		{
			"name":"WGT-rig_shin_fk.R",
			"rotation":[
				0.7348798513412476,
				9.646111720940098e-05,
				-8.902089757611975e-05,
				0.6781973242759705
			],
			"scale":[
				-0.4294799566268921,
				-0.4294799566268921,
				-0.4294799268245697
			],
			"translation":[
				-0.08900000154972076,
				0.5317999124526978,
				-0.0014000262599438429
			]
		},
		{
			"name":"WGT-rig_foot_fk.R",
			"rotation":[
				0.2647870182991028,
				0.00013713336375076324,
				-0.0004994148621335626,
				0.9643068909645081
			],
			"scale":[
				-0.17330104112625122,
				-0.17330104112625122,
				-0.17330104112625122
			],
			"translation":[
				-0.08900000154972076,
				0.10369989275932312,
				-0.0358000323176384
			]
		},
		{
			"name":"WGT-rig_toe_fk.R",
			"rotation":[
				0,
				0,
				-1,
				4.371138828673793e-08
			],
			"scale":[
				-0.07890000939369202,
				-0.07890000939369202,
				-0.0789000391960144
			],
			"translation":[
				-0.08900000154972076,
				0.015199893154203892,
				0.11319997906684875
			]
		},
		{
			"name":"WGT-rig_thigh_ik.R",
			"rotation":[
				0.7095754742622375,
				0,
				0,
				0.7046295404434204
			],
			"scale":[
				-0.40030983090400696,
				-0.40030983090400696,
				-0.40030983090400696
			],
			"translation":[
				-0.08900000154972076,
				0.9320999383926392,
				0.0013999762013554573
			]
		},
		{
			"name":"WGT-rig_thigh_ik_target.R",
			"rotation":[
				-0.9997483491897583,
				0,
				0,
				0.022436246275901794
			],
			"scale":[
				-0.10365437716245651,
				-0.10365437716245651,
				-0.10365437716245651
			],
			"translation":[
				-0.08900000154972076,
				0.4945995509624481,
				0.8269999623298645
			]
		},
		{
			"name":"WGT-rig_foot_ik.R",
			"rotation":[
				-1,
				0,
				0,
				4.371138828673793e-08
			],
			"scale":[
				-0.17330104112625122,
				-0.17330104112625122,
				-0.17330104112625122
			],
			"translation":[
				-0.08900000154972076,
				0.10369999706745148,
				-0.03579999879002571
			]
		},
		{
			"name":"WGT-rig_VIS_thigh_ik_pole.R",
			"rotation":[
				-0.7071067094802856,
				-9.281560778617859e-05,
				-9.281560051022097e-05,
				0.70710688829422
			],
			"scale":[
				-0.8292346000671387,
				-0.8292346000671387,
				-0.8292346000671387
			],
			"translation":[
				-0.08900000154972076,
				0.5317999720573425,
				-0.001399993896484375
			]
		},
		{
			"name":"WGT-rig_thigh_tweak.R",
			"rotation":[
				0.7095755934715271,
				0,
				0,
				0.7046293616294861
			],
			"scale":[
				-0.10007745772600174,
				-0.10007771849632263,
				-0.10007746517658234
			],
			"translation":[
				-0.08900000154972076,
				0.9320999383926392,
				0.0013999781804159284
			]
		},
		{
			"name":"WGT-rig_thigh_tweak.R.001",
			"rotation":[
				0.7095755934715271,
				0,
				0,
				0.7046293616294861
			],
			"scale":[
				-0.10007745772600174,
				-0.10007771849632263,
				-0.10007746517658234
			],
			"translation":[
				-0.08900000154972076,
				0.7319499254226685,
				0
			]
		},
		{
			"name":"WGT-rig_shin_tweak.R",
			"rotation":[
				0.7348798513412476,
				9.646119724493474e-05,
				-8.902137051336467e-05,
				0.6781973242759705
			],
			"scale":[
				-0.10736996680498123,
				-0.10737025737762451,
				-0.10736996680498123
			],
			"translation":[
				-0.08900000154972076,
				0.5317999124526978,
				-0.001400031498633325
			]
		},
		{
			"name":"WGT-rig_shin_tweak.R.001",
			"rotation":[
				0.7348798513412476,
				9.646155376685783e-05,
				-8.902170520741493e-05,
				0.6781973242759705
			],
			"scale":[
				-0.10736996680498123,
				-0.10737025737762451,
				-0.10736995935440063
			],
			"translation":[
				-0.08900000154972076,
				0.31774988770484924,
				-0.01860002987086773
			]
		},
		{
			"name":"WGT-rig_foot_tweak.R",
			"rotation":[
				0.2647874653339386,
				0.00013713393127545714,
				-0.0004994149203412235,
				0.9643067717552185
			],
			"scale":[
				-0.04332515969872475,
				-0.04332517459988594,
				-0.04332525283098221
			],
			"translation":[
				-0.08900000154972076,
				0.10369988530874252,
				-0.0358000285923481
			]
		},
		{
			"name":"WGT-rig_foot_spin_ik.R",
			"rotation":[
				-1,
				0,
				0,
				4.371138828673793e-08
			],
			"scale":[
				-0.08665049821138382,
				-0.08665049821138382,
				-0.08665049076080322
			],
			"translation":[
				-0.08900000154972076,
				0.015200003981590271,
				0.11319999396800995
			]
		},
		{
			"name":"WGT-rig_foot_heel_ik.R",
			"rotation":[
				-1,
				0,
				0,
				4.371138828673793e-08
			],
			"scale":[
				-0.08665052056312561,
				-0.08665052056312561,
				-0.08665051311254501
			],
			"translation":[
				-0.08900000154972076,
				0.10369999706745148,
				-0.03579999506473541
			]
		},
		{
			"name":"WGT-rig_toe_ik.R",
			"rotation":[
				0,
				0,
				1,
				4.371138828673793e-08
			],
			"scale":[
				-0.07889999449253082,
				-0.07890003174543381,
				-0.07889999449253082
			],
			"translation":[
				-0.08900000154972076,
				0.015200004912912846,
				0.11320000886917114
			]
		},
		{
			"name":"WGT-rig_root",
			"scale":[
				0.8471986651420593,
				0.8471986651420593,
				0.8471986651420593
			]
		}
	],
	"materials":[
		{
			"doubleSided":true,
			"name":"M_Main",
			"pbrMetallicRoughness":{
				"baseColorFactor":[
					0.8007264733314514,
					0.40298932790756226,
					0.0429254025220871,
					1
				],
				"metallicFactor":0,
				"roughnessFactor":0.5
			}
		},
		{
			"doubleSided":true,
			"name":"M_Joints",
			"pbrMetallicRoughness":{
				"baseColorFactor":[
					0.40037965774536133,
					0.13159601390361786,
					0.7071905136108398,
					1
				],
				"metallicFactor":0,
				"roughnessFactor":0.5
			}
		}
	],
	"meshes":[
		{
			"name":"Mannequin",
			"primitives":[
				{
					"attributes":{
						"POSITION":0,
						"NORMAL":1,
						"TEXCOORD_0":2,
						"TEXCOORD_1":3,
						"TANGENT":4,
						"JOINTS_0":5,
						"WEIGHTS_0":6
					},
					"indices":7,
					"material":0
				},
				{
					"attributes":{
						"POSITION":8,
						"NORMAL":9,
						"TEXCOORD_0":10,
						"TEXCOORD_1":11,
						"TANGENT":12,
						"JOINTS_0":13,
						"WEIGHTS_0":14
					},
					"indices":15,
					"material":1
				}
			]
		}
	],
	"skins":[
		{
			"inverseBindMatrices":16,
			"joints":[
				64,
				63,
				52,
				51,
				50,
				1,
				0,
				25,
				24,
				23,
				22,
				5,
				4,
				3,
				2,
				9,
				8,
				7,
				6,
				13,
				12,
				11,
				10,
				17,
				16,
				15,
				14,
				21,
				20,
				19,
				18,
				49,
				48,
				47,
				46,
				29,
				28,
				27,
				26,
				33,
				32,
				31,
				30,
				37,
				36,
				35,
				34,
				41,
				40,
				39,
				38,
				45,
				44,
				43,
				42,
				57,
				56,
				55,
				54,
				53,
				62,
				61,
				60,
				59,
				58
			],
			"name":"Armature"
		}
	],
	"accessors":[
		{
			"bufferView":0,
			"componentType":5126,
			"count":3389,
			"max":[
				0.9722270965576172,
				1.829177975654602,
				0.2054443359375
			],
			"min":[
				-0.9722270965576172,
				0.0004614409990608692,
				-0.164154052734375
			],
			"type":"VEC3"
		},
		{
			"bufferView":1,
			"componentType":5126,
			"count":3389,
			"type":"VEC3"
		},
		{
			"bufferView":2,
			"componentType":5126,
			"count":3389,
			"type":"VEC2"
		},
		{
			"bufferView":3,
			"componentType":5126,
			"count":3389,
			"type":"VEC2"
		},
		{
			"bufferView":4,
			"componentType":5126,
			"count":3389,
			"type":"VEC4"
		},
		{
			"bufferView":5,
			"componentType":5121,
			"count":3389,
			"type":"VEC4"
		},
		{
			"bufferView":6,
			"componentType":5126,
			"count":3389,
			"type":"VEC4"
		},
		{
			"bufferView":7,
			"componentType":5123,
			"count":17196,
			"type":"SCALAR"
		},
		{
			"bufferView":8,
			"componentType":5126,
			"count":5157,
			"max":[
				0.9503883123397827,
				1.6652591228485107,
				0.116485595703125
			],
			"min":[
				-0.9503883123397827,
				0.09957661479711533,
				-0.12136195600032806
			],
			"type":"VEC3"
		},
		{
			"bufferView":9,
			"componentType":5126,
			"count":5157,
			"type":"VEC3"
		},
		{
			"bufferView":10,
			"componentType":5126,
			"count":5157,
			"type":"VEC2"
		},
		{
			"bufferView":11,
			"componentType":5126,
			"count":5157,
			"type":"VEC2"
		},
		{
			"bufferView":12,
			"componentType":5126,
			"count":5157,
			"type":"VEC4"
		},
		{
			"bufferView":13,
			"componentType":5121,
			"count":5157,
			"type":"VEC4"
		},
		{
			"bufferView":14,
			"componentType":5126,
			"count":5157,
			"type":"VEC4"
		},
		{
			"bufferView":15,
			"componentType":5123,
			"count":24036,
			"type":"SCALAR"
		},
		{
			"bufferView":16,
			"componentType":5126,
			"count":65,
			"type":"MAT4"
		}
	],
	"bufferViews":[
		{
			"buffer":0,
			"byteLength":40668,
			"byteOffset":0,
			"target":34962
		},
		{
			"buffer":0,
			"byteLength":40668,
			"byteOffset":40668,
			"target":34962
		},
		{
			"buffer":0,
			"byteLength":27112,
			"byteOffset":81336,
			"target":34962
		},
		{
			"buffer":0,
			"byteLength":27112,
			"byteOffset":108448,
			"target":34962
		},
		{
			"buffer":0,
			"byteLength":54224,
			"byteOffset":135560,
			"target":34962
		},
		{
			"buffer":0,
			"byteLength":13556,
			"byteOffset":189784,
			"target":34962
		},
		{
			"buffer":0,
			"byteLength":54224,
			"byteOffset":203340,
			"target":34962
		},
		{
			"buffer":0,
			"byteLength":34392,
			"byteOffset":257564,
			"target":34963
		},
		{
			"buffer":0,
			"byteLength":61884,
			"byteOffset":291956,
			"target":34962
		},
		{
			"buffer":0,
			"byteLength":61884,
			"byteOffset":353840,
			"target":34962
		},
		{
			"buffer":0,
			"byteLength":41256,
			"byteOffset":415724,
			"target":34962
		},
		{
			"buffer":0,
			"byteLength":41256,
			"byteOffset":456980,
			"target":34962
		},
		{
			"buffer":0,
			"byteLength":82512,
			"byteOffset":498236,
			"target":34962
		},
		{
			"buffer":0,
			"byteLength":20628,
			"byteOffset":580748,
			"target":34962
		},
		{
			"buffer":0,
			"byteLength":82512,
			"byteOffset":601376,
			"target":34962
		},
		{
			"buffer":0,
			"byteLength":48072,
			"byteOffset":683888,
			"target":34963
		},
		{
			"buffer":0,
			"byteLength":4160,
			"byteOffset":731960
		}
	],
	"buffers":[
		{
			"byteLength":736120,
			"uri":"character.bin"
		}
	]
}
